<svg width="17" height="16" viewBox="0 0 17 16" fill="none" xmlns="http://www.w3.org/2000/svg">
<path d="M12.688 0C13.0876 0 13.4115 0.328939 13.4115 0.734694V1.45747H14.6685C15.9541 1.45747 17 2.51947 17 3.82482V6.01196V7.48135V13.6327C17 14.938 15.9541 16 14.6685 16H2.33151C1.04592 16 -9.57723e-08 14.938 -9.57723e-08 13.6327V7.48131V6.01192V3.82478C-9.57723e-08 2.51943 1.04592 1.45743 2.33151 1.45743H3.40903V0.734694C3.40903 0.328939 3.73299 0 4.1326 0C4.53221 0 4.85617 0.328939 4.85617 0.734694V1.45747H11.9644V0.734694C11.9644 0.328939 12.2883 0 12.688 0ZM1.4471 13.6327C1.4471 14.1278 1.84382 14.5306 2.33147 14.5306H14.6685C15.1561 14.5306 15.5528 14.1278 15.5528 13.6327V7.48131H1.4471V13.6327ZM4.85613 2.92686V3.64959C4.85613 4.05535 4.53217 4.38429 4.13256 4.38429C3.73295 4.38429 3.40899 4.05535 3.40899 3.64959V2.92686H2.33147C1.84382 2.92686 1.4471 3.32967 1.4471 3.82482V6.01196H15.5528V3.82482C15.5528 3.32967 15.1561 2.92686 14.6685 2.92686H13.4115V3.64959C13.4115 4.05535 13.0875 4.38429 12.6879 4.38429C12.2883 4.38429 11.9643 4.05535 11.9643 3.64959V2.92686H4.85613Z" fill="#3F4A72" fill-opacity="0.4"/>
</svg>
