<svg width="185" height="143" viewBox="0 0 185 143" fill="none" xmlns="http://www.w3.org/2000/svg">
<path d="M92.053 142.494C141.236 142.494 181.106 120.669 181.106 93.7469C181.106 66.8247 141.236 45 92.053 45C42.8704 45 3 66.8247 3 93.7469C3 120.669 42.8704 142.494 92.053 142.494Z" fill="#EFF1FA"/>
<path d="M76.5613 123.068L43.3729 103.937C43.2772 103.906 43.1941 103.844 43.1351 103.763C43.0762 103.681 43.0444 103.583 43.0444 103.482C43.0444 103.381 43.0762 103.283 43.1351 103.201C43.1941 103.119 43.2772 103.058 43.3729 103.026L109.47 64.6859C109.714 64.5621 109.983 64.4976 110.256 64.4976C110.529 64.4976 110.799 64.5621 111.042 64.6859L144.231 83.8165C144.326 83.8483 144.41 83.9095 144.469 83.9912C144.528 84.073 144.559 84.1712 144.559 84.272C144.559 84.3728 144.528 84.471 144.469 84.5528C144.41 84.6345 144.326 84.6957 144.231 84.7275L78.1338 123.064C77.8905 123.189 77.6212 123.254 77.348 123.255C77.0747 123.255 76.8052 123.191 76.5613 123.068Z" fill="#E0E3F1"/>
<path d="M65.1723 92.8015C79.1574 92.8015 90.4945 86.2572 90.4945 78.1843C90.4945 70.1114 79.1574 63.567 65.1723 63.567C51.1872 63.567 39.8501 70.1114 39.8501 78.1843C39.8501 86.2572 51.1872 92.8015 65.1723 92.8015Z" fill="#E0E0E0"/>
<path d="M23.3506 108.152L42.7533 119.352L60.7688 108.95L41.3661 97.7495L23.3506 108.152Z" fill="#E0E0E0"/>
<path d="M44.6733 119.443L64.0723 130.643L78.6253 122.286L59.2226 111.085L44.6733 119.443Z" fill="#E0E0E0"/>
<path d="M63.4195 90.4958C63.3543 90.4963 63.2897 90.4839 63.2294 90.4592C63.1691 90.4344 63.1143 90.398 63.0682 90.3519C63.0222 90.3058 62.9857 90.251 62.961 90.1907C62.9363 90.1304 62.9238 90.0658 62.9243 90.0006V58.1882C62.9243 58.0568 62.9765 57.9309 63.0694 57.838C63.1622 57.7452 63.2882 57.693 63.4195 57.693C63.5508 57.693 63.6768 57.7452 63.7697 57.838C63.8625 57.9309 63.9147 58.0568 63.9147 58.1882V90.0006C63.9147 90.0657 63.9019 90.1301 63.877 90.1901C63.8521 90.2502 63.8156 90.3048 63.7697 90.3508C63.7237 90.3968 63.6691 90.4332 63.609 90.4581C63.5489 90.483 63.4845 90.4958 63.4195 90.4958V90.4958Z" fill="#455A64"/>
<path d="M83.1017 78.9177C83.0025 78.9167 82.9057 78.8864 82.8236 78.8306C82.7416 78.7748 82.6779 78.6959 82.6406 78.6039L72.8844 53.913C72.8343 53.7907 72.8348 53.6535 72.8858 53.5315C72.9369 53.4096 73.0342 53.3129 73.1566 53.2628C73.2789 53.2127 73.4161 53.2132 73.538 53.2642C73.6599 53.3153 73.7566 53.4127 73.8067 53.535L83.5629 78.2259C83.6101 78.3483 83.6072 78.4843 83.5548 78.6046C83.5025 78.7249 83.4049 78.8197 83.2832 78.8685C83.2262 78.8959 83.1647 78.9126 83.1017 78.9177V78.9177Z" fill="#455A64"/>
<path d="M81.9301 75.9504C81.8629 75.9503 81.7964 75.9365 81.7346 75.9099C81.6729 75.8832 81.6172 75.8443 81.571 75.7954L63.427 56.5893L45.2982 75.716C45.2064 75.8044 45.0841 75.854 44.9567 75.8545C44.8293 75.8551 44.7066 75.8065 44.6141 75.7189C44.5216 75.6312 44.4664 75.5113 44.4601 75.3841C44.4537 75.2568 44.4967 75.1321 44.58 75.0356L63.0604 55.5271C63.1064 55.478 63.1621 55.439 63.2238 55.4123C63.2856 55.3857 63.3522 55.372 63.4195 55.3721C63.4899 55.3698 63.5599 55.3824 63.6251 55.4091C63.6902 55.4358 63.749 55.476 63.7975 55.5271L82.3195 75.115C82.3871 75.1864 82.432 75.2764 82.4483 75.3734C82.4646 75.4704 82.4517 75.5701 82.4111 75.6597C82.3706 75.7493 82.3043 75.8248 82.2206 75.8766C82.137 75.9284 82.0398 75.9541 81.9415 75.9504H81.9301Z" fill="#455A64"/>
<path d="M43.7371 78.9177C43.675 78.9177 43.6135 78.9062 43.5556 78.8837C43.4947 78.8603 43.4391 78.825 43.3919 78.7799C43.3448 78.7348 43.3071 78.6808 43.2811 78.621C43.255 78.5612 43.2412 78.4968 43.2403 78.4315C43.2394 78.3663 43.2515 78.3015 43.2759 78.241L53.0321 53.5501C53.0822 53.4283 53.1787 53.3314 53.3002 53.2807C53.4218 53.23 53.5585 53.2297 53.6804 53.2798C53.8022 53.3299 53.8991 53.4264 53.9497 53.548C54.0004 53.6695 54.0007 53.8063 53.9506 53.9281L44.1944 78.6039C44.1582 78.6959 44.0953 78.7749 44.0138 78.8308C43.9323 78.8868 43.8359 78.917 43.7371 78.9177V78.9177Z" fill="#455A64"/>
<path d="M82.4287 75.1868L83.7176 78.5888C83.7213 78.6176 83.7213 78.6468 83.7176 78.6757C83.7214 78.6957 83.7214 78.7162 83.7176 78.7362C83.6845 78.8307 83.6151 78.9082 83.5249 78.9516C83.4029 79.0131 83.2683 79.0451 83.1317 79.0451C82.9952 79.0451 82.8605 79.0131 82.7386 78.9516C82.6717 78.9173 82.6184 78.8614 82.5874 78.7929V78.7475L81.3892 75.5572L82.4287 75.1868Z" fill="#C0CAEF"/>
<path d="M44.3985 75.1868L43.1058 78.5888C43.1021 78.6176 43.1021 78.6468 43.1058 78.6757V78.74C43.1422 78.8337 43.2123 78.9106 43.3023 78.9554C43.4236 79.0169 43.5576 79.0489 43.6936 79.0489C43.8295 79.0489 43.9635 79.0169 44.0848 78.9554C44.1526 78.9211 44.2071 78.8653 44.2398 78.7967V78.7967V78.7513L45.4343 75.561L44.3985 75.1868Z" fill="#C0CAEF"/>
<path d="M63.9902 87.5398V90.3521C63.9859 90.4025 63.9682 90.4507 63.9389 90.4919C63.9097 90.5331 63.87 90.5658 63.8239 90.5865C63.6985 90.6499 63.5599 90.683 63.4194 90.683C63.2789 90.683 63.1403 90.6499 63.015 90.5865C62.9689 90.5658 62.9291 90.5331 62.8999 90.4919C62.8707 90.4507 62.853 90.4025 62.8486 90.3521V87.5398C63.0239 87.4449 63.2201 87.3951 63.4194 87.3951C63.6187 87.3951 63.8149 87.4449 63.9902 87.5398V87.5398Z" fill="#C0CAEF"/>
<path d="M85.5437 53.5775C85.5437 52.6929 84.765 51.7479 83.1245 50.682C80.1005 48.7164 71.2629 43.7873 67.0179 41.4361C67.016 41.4278 67.0118 41.4202 67.0058 41.4142C66.9998 41.4082 66.9922 41.404 66.9839 41.4021C63.718 39.4176 62.7239 30.9617 60.4634 23.7873C59.7074 21.3454 58.7511 19.9619 57.6322 19.3118C57.3676 19.1568 56.3886 18.6162 56.1693 18.4877C53.9505 17.1572 51.0399 18.7561 47.4149 20.7557C44.0771 22.5852 41.4651 24.9137 40.9397 31.1356C40.6222 34.9156 40.9397 42.1392 41.6957 47.6164C42.807 56.764 44.1716 56.7829 46.1523 58.31C49.5543 60.956 57.2429 64.6491 60.4785 65.9229C66.3489 68.2325 71.1457 64.6718 74.7216 62.8989C77.9991 61.2381 81.1635 59.3629 84.1943 57.2856C85.0901 56.6355 85.5551 55.9778 85.5437 55.286C85.5362 54.9912 85.5437 53.8647 85.5437 53.5775Z" fill="#263238"/>
<path d="M74.718 61.1744C77.9971 59.5164 81.1617 57.6411 84.1907 55.5611C86.2281 54.0869 86.0391 52.5749 83.1247 50.6811C79.0725 48.0351 64.6896 40.1462 64.6896 40.1462C64.6896 40.1462 43.8127 52.4653 44.7123 54.7408C45.612 57.0164 56.4039 62.5919 60.4749 64.1908C66.3453 66.5004 71.1421 62.9434 74.718 61.1744Z" fill="#37474F"/>
<path d="M57.5041 19.2352C55.3042 18.0823 52.4503 19.651 48.916 21.5864C46.648 22.8262 44.7277 24.2966 43.5559 27.0447L42.0439 26.1828C43.2157 23.4423 45.1398 21.9757 47.3964 20.7359C51.0214 18.7514 53.932 17.16 56.1509 18.4679C56.3626 18.6002 57.1337 19.016 57.5041 19.2352Z" fill="#455A64"/>
<path d="M48.9344 21.5864C54.3625 18.6153 58.1879 16.5061 60.4823 23.7864C62.7503 30.9684 65.7743 40.5733 69.0516 42.5541C64.2321 42.074 48.9344 51.1913 46.3225 56.4569C45.7668 55.9957 45.2641 55.5006 45.1885 55.4514C43.0528 53.6824 41.8999 38.173 42.4215 31.9625C42.9431 25.752 45.5778 23.4159 48.9344 21.5864Z" fill="#37474F"/>
<g opacity="0.1">
<path opacity="0.1" d="M48.9344 21.5864C54.3625 18.6153 58.1879 16.5061 60.4823 23.7864C62.7503 30.9684 65.7743 40.5733 69.0516 42.5541C64.2321 42.074 48.9344 51.1913 46.3225 56.4569C45.7668 55.9957 45.2641 55.5006 45.1885 55.4514C43.0528 53.6824 41.8999 38.173 42.4215 31.9625C42.9431 25.752 45.5778 23.4159 48.9344 21.5864Z" fill="black"/>
</g>
<path d="M77.1893 81.0799L46.6885 63.5142L110.684 26.5685L141.185 44.1341L77.1893 81.0799Z" fill="#C0CAEF"/>
<path opacity="0.3" d="M77.1893 81.0799L46.6885 63.5142L110.684 26.5685L141.185 44.1341L77.1893 81.0799Z" fill="black"/>
<path d="M46.6885 63.5142V103.919L48.5293 104.981V75.1641L75.3484 90.6016V120.422L77.1893 121.484V81.0798L46.6885 63.5142Z" fill="#C0CAEF"/>
<path opacity="0.5" d="M46.6885 63.5142V103.919L48.5293 104.981V75.1641L75.3484 90.6016V120.422L77.1893 121.484V81.0798L46.6885 63.5142Z" fill="black"/>
<path d="M48.5293 104.981L50.3702 103.919V76.2264L48.5293 75.1642V104.981Z" fill="#C0CAEF"/>
<path opacity="0.6" d="M48.5293 104.981L50.3702 103.919V76.2264L48.5293 75.1642V104.981Z" fill="black"/>
<path d="M77.189 121.484L79.0298 120.422V90.6017L139.344 55.7841V85.6007L141.184 84.5386V44.1342L77.189 81.0799V121.484Z" fill="#C0CAEF"/>
<path opacity="0.4" d="M77.189 121.484L79.0298 120.422V90.6017L139.344 55.7841V85.6007L141.184 84.5386V44.1342L77.189 81.0799V121.484Z" fill="black"/>
<path d="M139.344 85.6007L137.503 84.5385V56.8462L139.344 55.7841V85.6007Z" fill="#C0CAEF"/>
<g opacity="0.6">
<path opacity="0.6" d="M139.344 85.6007L137.503 84.5385V56.8462L139.344 55.7841V85.6007Z" fill="black"/>
</g>
<g opacity="0.2">
<path opacity="0.2" d="M67.1075 57.3451L80.6588 65.1697C80.7763 65.228 80.9056 65.2583 81.0368 65.2583C81.1679 65.2583 81.2973 65.228 81.4148 65.1697L91.3864 59.4127C91.4323 59.3966 91.4719 59.3667 91.5 59.3271C91.5281 59.2875 91.5432 59.2402 91.5432 59.1916C91.5432 59.143 91.5281 59.0957 91.5 59.0561C91.4719 59.0165 91.4323 58.9866 91.3864 58.9705L77.8427 51.1459C77.7255 51.0867 77.596 51.0559 77.4647 51.0559C77.3334 51.0559 77.2039 51.0867 77.0867 51.1459L67.1113 56.9066C67.0649 56.9213 67.0243 56.9502 66.9954 56.9894C66.9664 57.0285 66.9506 57.0758 66.9502 57.1245C66.9498 57.1731 66.9648 57.2207 66.993 57.2603C67.0213 57.2999 67.0613 57.3296 67.1075 57.3451V57.3451Z" fill="black"/>
</g>
<path d="M67.1075 56.6383L80.6588 64.4629C80.7763 64.5212 80.9056 64.5515 81.0368 64.5515C81.1679 64.5515 81.2973 64.5212 81.4148 64.4629L91.394 58.7059C91.6057 58.585 91.6057 58.3884 91.394 58.2637L77.8427 50.4429C77.726 50.3819 77.5963 50.3501 77.4647 50.3501C77.3331 50.3501 77.2034 50.3819 77.0867 50.4429L67.1113 56.1998C67.0649 56.2145 67.0243 56.2434 66.9954 56.2826C66.9664 56.3217 66.9506 56.369 66.9502 56.4177C66.9498 56.4663 66.9648 56.5139 66.993 56.5535C67.0213 56.5931 67.0613 56.6228 67.1075 56.6383Z" fill="#EBEBEB"/>
<path d="M77.083 50.4429L67.6104 55.9088L80.6589 63.4423C80.7764 63.5006 80.9058 63.5309 81.0369 63.5309C81.1681 63.5309 81.2974 63.5006 81.4149 63.4423L90.8914 57.9764L77.8428 50.4429C77.7257 50.3813 77.5953 50.3491 77.4629 50.3491C77.3306 50.3491 77.2002 50.3813 77.083 50.4429V50.4429Z" fill="#E0E0E0"/>
<path d="M67.1079 55.2623L80.6592 63.0869C80.7766 63.1452 80.906 63.1755 81.0372 63.1755C81.1683 63.1755 81.2977 63.1452 81.4152 63.0869L91.3868 57.3262C91.4331 57.3111 91.4734 57.2818 91.502 57.2424C91.5306 57.203 91.546 57.1556 91.546 57.1069C91.546 57.0583 91.5306 57.0109 91.502 56.9715C91.4734 56.9321 91.4331 56.9028 91.3868 56.8877L77.8355 49.0631C77.7183 49.004 77.5888 48.9731 77.4575 48.9731C77.3262 48.9731 77.1967 49.004 77.0795 49.0631L67.1041 54.82C67.0584 54.8365 67.019 54.8668 66.9912 54.9066C66.9635 54.9465 66.9488 54.994 66.9492 55.0425C66.9496 55.0911 66.9651 55.1383 66.9935 55.1777C67.022 55.217 67.0619 55.2466 67.1079 55.2623V55.2623Z" fill="#FAFAFA"/>
<path opacity="0.2" d="M58.0814 60.7018L68.1248 66.5041L69.841 66.8518C69.8506 66.8535 69.8605 66.8525 69.8696 66.849C69.8788 66.8454 69.8867 66.8393 69.8926 66.8315C69.8985 66.8236 69.902 66.8143 69.9029 66.8046C69.9038 66.7948 69.902 66.785 69.8977 66.7762L69.3458 65.7896L59.2985 59.9873C58.9772 59.7908 57.8168 60.5468 58.0814 60.7018Z" fill="black"/>
<path d="M59.1849 59.016L59.2378 59.0348L59.1395 58.9819H59.1206H59.1017H59.0791H59.0526H59.0224C58.9485 58.9838 58.8765 59.006 58.8145 59.0462C58.681 59.133 58.57 59.2502 58.4905 59.3882C58.411 59.5262 58.3653 59.681 58.3571 59.84C58.353 59.8789 58.353 59.9182 58.3571 59.9572V59.9572C58.3571 59.9572 58.3571 59.9572 58.3571 59.9798C58.3666 60.0041 58.3793 60.027 58.3949 60.0479V60.0479H58.4138L58.5234 60.1121L58.4743 60.0743C58.5664 60.0887 58.6607 60.0685 58.7389 60.0176C58.8725 59.9297 58.9837 59.8119 59.0638 59.6734C59.1438 59.5349 59.1905 59.3797 59.2 59.2201C59.2151 59.152 59.2099 59.081 59.1849 59.016V59.016Z" fill="#C0CAEF"/>
<path d="M68.8317 64.5726L68.1815 65.7066L68.0719 65.6423L58.5954 60.1727L58.5463 60.1349C58.4869 60.0614 58.4573 59.9683 58.4631 59.874C58.4712 59.714 58.5172 59.5583 58.5974 59.4196C58.6776 59.2809 58.7896 59.1633 58.9243 59.0765C58.9859 59.0389 59.0563 59.0181 59.1284 59.016H59.1851L59.238 59.0349L68.8317 64.5726Z" fill="#F0F0F0"/>
<path d="M68.5028 64.6066C68.7598 64.4592 68.964 64.5764 68.964 64.8712C68.9559 65.0312 68.9099 65.187 68.8297 65.3257C68.7495 65.4644 68.6374 65.582 68.5028 65.6688C68.2495 65.8162 68.0454 65.6953 68.0454 65.4042C68.053 65.2445 68.0985 65.089 68.178 64.9503C68.2575 64.8116 68.3688 64.6938 68.5028 64.6066V64.6066Z" fill="#C0CAEF"/>
<path d="M69.4931 65.2907L68.9072 64.6443C68.8535 64.6014 68.7869 64.578 68.7182 64.578C68.6494 64.578 68.5828 64.6014 68.5292 64.6443C68.3952 64.7316 68.2839 64.8494 68.2044 64.988C68.1248 65.1267 68.0794 65.2823 68.0718 65.4419C68.0718 65.612 68.1398 65.7217 68.2494 65.7557H68.2835L69.134 65.9409C69.1852 65.9504 69.238 65.9395 69.2814 65.9107C69.3589 65.8612 69.4233 65.7938 69.4694 65.7142C69.5154 65.6346 69.5417 65.5451 69.546 65.4533C69.5497 65.424 69.5469 65.3942 69.5377 65.3661C69.5286 65.338 69.5133 65.3122 69.4931 65.2907V65.2907Z" fill="#E0E0E0"/>
<path d="M61.9707 61.0987H61.9518C61.9352 61.0909 61.9172 61.0869 61.8989 61.0869C61.8806 61.0869 61.8625 61.0909 61.8459 61.0987C61.7994 61.1308 61.7606 61.1729 61.7324 61.222C61.7043 61.271 61.6876 61.3258 61.6834 61.3822C61.6822 61.4003 61.6849 61.4185 61.6914 61.4355C61.698 61.4525 61.7081 61.4678 61.7212 61.4805L68.7142 65.5175L69.1754 65.2491L61.9707 61.0987Z" fill="#455A64"/>
<path d="M68.0869 65.1585L68.7333 65.5365L69.1945 65.2681L68.3137 64.754C68.2101 64.8711 68.1328 65.009 68.0869 65.1585V65.1585Z" fill="#37474F"/>
<path d="M69.7238 65.597L69.1908 65.0111V64.9922C69.1527 64.9634 69.1063 64.9478 69.0585 64.9478C69.0108 64.9478 68.9643 64.9634 68.9262 64.9922C68.8318 65.0541 68.7531 65.1373 68.6967 65.2351C68.6402 65.3329 68.6075 65.4426 68.6011 65.5554C68.5948 65.6011 68.6035 65.6476 68.6261 65.6878C68.6486 65.7281 68.6836 65.7599 68.7259 65.7784H68.7523L69.5348 65.9485C69.5639 65.9525 69.5934 65.9458 69.618 65.9296C69.6611 65.9015 69.697 65.8636 69.7226 65.8189C69.7483 65.7742 69.7629 65.724 69.7654 65.6726C69.7641 65.6578 69.7598 65.6434 69.7526 65.6303C69.7455 65.6173 69.7356 65.606 69.7238 65.597V65.597Z" fill="#C0CAEF"/>
<path opacity="0.1" d="M69.7238 65.597L69.1908 65.0111V64.9922C69.1527 64.9634 69.1063 64.9478 69.0585 64.9478C69.0108 64.9478 68.9643 64.9634 68.9262 64.9922C68.8318 65.0541 68.7531 65.1373 68.6967 65.2351C68.6402 65.3329 68.6075 65.4426 68.6011 65.5554C68.5948 65.6011 68.6035 65.6476 68.6261 65.6878C68.6486 65.7281 68.6836 65.7599 68.7259 65.7784H68.7523L69.5348 65.9485C69.5639 65.9525 69.5934 65.9458 69.618 65.9296C69.6611 65.9015 69.697 65.8636 69.7226 65.8189C69.7483 65.7742 69.7629 65.724 69.7654 65.6726C69.7641 65.6578 69.7598 65.6434 69.7526 65.6303C69.7455 65.6173 69.7356 65.606 69.7238 65.597V65.597Z" fill="black"/>
<path d="M69.7535 65.6801C69.751 65.7315 69.7364 65.7817 69.7107 65.8264C69.6851 65.8711 69.6492 65.909 69.6061 65.9371C69.5815 65.9533 69.552 65.96 69.5229 65.956L69.126 65.8691C69.0655 65.8691 69.0239 65.7973 69.0239 65.7028C69.0284 65.6207 69.0523 65.5409 69.0937 65.4699C69.1351 65.3989 69.1928 65.3388 69.2621 65.2945C69.2889 65.273 69.3222 65.2614 69.3566 65.2614C69.3909 65.2614 69.4243 65.273 69.4511 65.2945L69.7157 65.5856C69.7294 65.5969 69.7401 65.6115 69.7467 65.628C69.7533 65.6445 69.7556 65.6624 69.7535 65.6801Z" fill="#C0CAEF"/>
<path opacity="0.1" d="M69.6064 65.597C69.6896 65.5478 69.7538 65.597 69.7538 65.6801C69.7514 65.7316 69.7367 65.7817 69.7111 65.8264C69.6855 65.8711 69.6496 65.9091 69.6064 65.9372C69.5232 65.9825 69.459 65.9372 69.459 65.8502C69.4611 65.7992 69.4756 65.7495 69.5013 65.7053C69.527 65.6612 69.5631 65.624 69.6064 65.597V65.597Z" fill="black"/>
<path d="M60.2322 60.0932C60.2145 60.0825 60.1942 60.0769 60.1736 60.0769C60.1529 60.0769 60.1327 60.0825 60.115 60.0932C60.0684 60.1253 60.0296 60.1674 60.0015 60.2165C59.9734 60.2656 59.9566 60.3203 59.9524 60.3767C59.951 60.3971 59.9548 60.4174 59.9634 60.4359C59.972 60.4545 59.9851 60.4705 60.0016 60.4826V60.4826L61.7215 61.4729C61.7084 61.4603 61.6982 61.4449 61.6917 61.428C61.6852 61.411 61.6824 61.3928 61.6837 61.3746C61.6878 61.3182 61.7046 61.2635 61.7327 61.2144C61.7609 61.1653 61.7996 61.1232 61.8462 61.0911C61.8628 61.0834 61.8809 61.0793 61.8991 61.0793C61.9174 61.0793 61.9355 61.0834 61.9521 61.0911L60.2322 60.0932Z" fill="#FAFAFA"/>
<path d="M60.2738 60.218C60.2711 60.2742 60.2549 60.329 60.2266 60.3777C60.1983 60.4263 60.1588 60.4675 60.1113 60.4977C60.0943 60.5085 60.0746 60.5142 60.0546 60.5142C60.0345 60.5142 60.0148 60.5085 59.9979 60.4977C59.9812 60.4868 59.9678 60.4715 59.9591 60.4535C59.9504 60.4355 59.9469 60.4155 59.9487 60.3956C59.9529 60.3392 59.9696 60.2845 59.9978 60.2354C60.0259 60.1864 60.0647 60.1442 60.1113 60.1121C60.129 60.1015 60.1492 60.0958 60.1699 60.0958C60.1905 60.0958 60.2108 60.1015 60.2285 60.1121C60.2445 60.1244 60.2571 60.1406 60.265 60.1591C60.273 60.1776 60.276 60.1979 60.2738 60.218Z" fill="#F5F5F5"/>
<path d="M59.9144 59.4998L59.234 59.1218C59.1883 59.1037 59.1387 59.0973 59.0898 59.1032C59.041 59.1092 58.9944 59.1273 58.9543 59.1558C58.8333 59.2343 58.7325 59.3402 58.6603 59.4651C58.588 59.5899 58.5463 59.73 58.5385 59.874C58.5326 59.9255 58.5407 59.9776 58.562 60.0249C58.5833 60.0721 58.617 60.1127 58.6595 60.1424V60.1424L59.3474 60.5204C59.3938 60.5408 59.4447 60.5487 59.4951 60.5434C59.5455 60.5381 59.5936 60.5198 59.6347 60.4902C59.7557 60.4117 59.8565 60.3057 59.9287 60.1809C60.001 60.0561 60.0427 59.916 60.0505 59.772C60.0539 59.7186 60.0431 59.6653 60.0192 59.6175C59.9953 59.5697 59.9591 59.5291 59.9144 59.4998V59.4998Z" fill="#C0CAEF"/>
<path opacity="0.05" d="M59.9144 59.4998L59.234 59.1218C59.1883 59.1037 59.1387 59.0973 59.0898 59.1032C59.041 59.1092 58.9944 59.1273 58.9543 59.1558C58.8333 59.2343 58.7325 59.3402 58.6603 59.4651C58.588 59.5899 58.5463 59.73 58.5385 59.874C58.5326 59.9255 58.5407 59.9776 58.562 60.0249C58.5833 60.0721 58.617 60.1127 58.6595 60.1424V60.1424L59.3474 60.5204C59.3938 60.5408 59.4447 60.5487 59.4951 60.5434C59.5455 60.5381 59.5936 60.5198 59.6347 60.4902C59.7557 60.4117 59.8565 60.3057 59.9287 60.1809C60.001 60.0561 60.0427 59.916 60.0505 59.772C60.0539 59.7186 60.0431 59.6653 60.0192 59.6175C59.9953 59.5697 59.9591 59.5291 59.9144 59.4998V59.4998Z" fill="black"/>
<path opacity="0.1" d="M59.6122 59.5262C59.8428 59.3939 60.028 59.4997 60.028 59.7643C60.0202 59.9083 59.9785 60.0485 59.9063 60.1733C59.834 60.2981 59.7332 60.4041 59.6122 60.4825C59.3854 60.6148 59.2002 60.5052 59.2002 60.2406C59.2084 60.0977 59.25 59.9586 59.3215 59.8346C59.3931 59.7105 59.4926 59.6049 59.6122 59.5262Z" fill="black"/>
<path d="M69.9428 65.8427L69.6631 65.6725C69.6546 65.6672 69.6447 65.6643 69.6347 65.6643C69.6247 65.6643 69.6148 65.6672 69.6064 65.6725C69.5846 65.6866 69.5665 65.7055 69.5533 65.7279C69.5402 65.7502 69.5325 65.7752 69.5308 65.8011C69.5308 65.8275 69.5308 65.8426 69.5534 65.8502L69.8332 66.0203C69.8506 66.0241 69.8686 66.0241 69.8861 66.0203C69.9145 66.0193 69.9414 66.0073 69.9612 65.9869C69.9809 65.9664 69.9919 65.9391 69.9919 65.9107C69.9888 65.8966 69.9828 65.8833 69.9744 65.8716C69.9659 65.8599 69.9552 65.85 69.9428 65.8427V65.8427Z" fill="#455A64"/>
<path d="M69.958 65.854C69.9503 65.8505 69.9419 65.8488 69.9335 65.8488C69.925 65.8488 69.9166 65.8505 69.9089 65.854C69.8871 65.8688 69.8689 65.8885 69.8558 65.9114C69.8427 65.9343 69.835 65.9599 69.8333 65.9863C69.8323 65.9958 69.8339 66.0053 69.8379 66.014C69.8419 66.0226 69.8481 66.03 69.856 66.0354V66.0354H69.89C69.9184 66.0344 69.9453 66.0225 69.9651 66.002C69.9848 65.9815 69.9959 65.9542 69.9958 65.9258C69.9948 65.9119 69.9909 65.8983 69.9844 65.886C69.9779 65.8736 69.9689 65.8627 69.958 65.854V65.854Z" fill="#263238"/>
<g opacity="0.2">
<path opacity="0.2" d="M80.0244 72.7562C81.6045 73.6672 81.6045 75.1489 80.0244 76.0637C79.1361 76.5128 78.1546 76.7468 77.1592 76.7468C76.1637 76.7468 75.1823 76.5128 74.2939 76.0637C72.7139 75.1489 72.7139 73.6672 74.2939 72.7562C75.1817 72.3053 76.1634 72.0703 77.1592 72.0703C78.1549 72.0703 79.1366 72.3053 80.0244 72.7562V72.7562Z" fill="black"/>
</g>
<path d="M79.4687 74.5403C80.7464 73.2362 81.4948 69.9816 80.2512 68.9497H73.9083C72.6647 69.9816 73.4132 73.2362 74.6908 74.5403L74.7248 74.5743L74.7702 74.6197L74.8836 74.7218L74.9176 74.7444L75.0121 74.8163C75.0644 74.8563 75.12 74.8917 75.1784 74.9221C75.7673 75.2221 76.4188 75.3786 77.0798 75.3786C77.7407 75.3786 78.3922 75.2221 78.9811 74.9221V74.9221C79.0387 74.8904 79.0943 74.8551 79.1474 74.8163L79.2381 74.7482L79.2759 74.718C79.3155 74.6873 79.3533 74.6545 79.3893 74.6197L79.4385 74.5706L79.4687 74.5403Z" fill="#EBEBEB"/>
<path d="M74.4603 68.5339C73.0126 69.3693 73.0126 70.7226 74.4603 71.558C75.2721 71.9697 76.1696 72.1843 77.0799 72.1843C77.9901 72.1843 78.8876 71.9697 79.6994 71.558C81.1471 70.7226 81.1471 69.3693 79.6994 68.5339C78.8876 68.1222 77.9901 67.9076 77.0799 67.9076C76.1696 67.9076 75.2721 68.1222 74.4603 68.5339Z" fill="#FAFAFA"/>
<path d="M75.4844 69.1236C74.6074 69.6339 74.6074 70.458 75.4844 70.9645C75.979 71.2143 76.5254 71.3445 77.0795 71.3445C77.6337 71.3445 78.1801 71.2143 78.6747 70.9645C79.5517 70.458 79.5517 69.6339 78.6747 69.1236C78.1801 68.8738 77.6337 68.7437 77.0795 68.7437C76.5254 68.7437 75.979 68.8738 75.4844 69.1236Z" fill="#EBEBEB"/>
<path d="M78.6747 69.9968C78.1801 69.747 77.6337 69.6168 77.0796 69.6168C76.5254 69.6168 75.979 69.747 75.4844 69.9968C75.2731 70.1138 75.093 70.2797 74.959 70.4807C75.0915 70.6829 75.272 70.8491 75.4844 70.9645C75.979 71.2143 76.5254 71.3445 77.0796 71.3445C77.6337 71.3445 78.1801 71.2143 78.6747 70.9645C78.8872 70.8491 79.0677 70.6829 79.2001 70.4807C79.0662 70.2797 78.886 70.1138 78.6747 69.9968Z" fill="#455A64"/>
<path d="M80.1302 66.8632C80.13 66.3245 79.9872 65.7956 79.7163 65.33C79.4454 64.8645 79.056 64.4789 78.5878 64.2127C78.1196 63.9464 77.5892 63.8088 77.0506 63.814C76.512 63.8191 75.9843 63.9668 75.5213 64.242C75.0583 64.5172 74.6764 64.91 74.4144 65.3807C74.1524 65.8513 74.0197 66.3829 74.0298 66.9215C74.0399 67.46 74.1924 67.9863 74.4719 68.4468C74.7513 68.9072 75.1477 69.2855 75.6207 69.5432C75.7537 69.6196 75.8643 69.7297 75.9413 69.8624C76.0183 69.9951 76.0589 70.1458 76.0592 70.2992V70.3521C76.4636 70.5789 77.8509 70.56 78.1004 70.3521V70.2954C78.103 70.1325 78.1493 69.9733 78.2344 69.8343C78.3195 69.6953 78.4403 69.5818 78.5842 69.5054C79.0513 69.2397 79.4402 68.8555 79.7116 68.3917C79.983 67.9278 80.1274 67.4006 80.1302 66.8632Z" fill="#C0CAEF"/>
<path d="M77.2159 64.2021C77.204 64.2024 77.1921 64.2001 77.181 64.1956C77.17 64.191 77.16 64.1842 77.1517 64.1757C77.1108 64.1319 77.0666 64.0915 77.0194 64.0547C77.0103 64.0462 77.0031 64.036 76.9982 64.0246C76.9933 64.0132 76.9907 64.0009 76.9907 63.9885C76.9907 63.9762 76.9933 63.9639 76.9982 63.9525C77.0031 63.9411 77.0103 63.9309 77.0194 63.9224C77.037 63.9051 77.0608 63.8954 77.0855 63.8954C77.1102 63.8954 77.134 63.9051 77.1517 63.9224C77.1517 63.9224 77.2084 63.9715 77.2953 64.0585C77.3077 64.0719 77.316 64.0886 77.3191 64.1066C77.3223 64.1246 77.3201 64.1432 77.3129 64.16C77.3057 64.1768 77.2938 64.1911 77.2786 64.2013C77.2634 64.2115 77.2455 64.217 77.2273 64.2172L77.2159 64.2021Z" fill="#FAFAFA"/>
<path d="M77.7375 69.6415C77.7238 69.6448 77.7096 69.6448 77.6959 69.6415C77.6741 69.6301 77.6576 69.6108 77.6499 69.5875C77.6421 69.5642 77.6437 69.5389 77.6543 69.5167C77.711 69.3996 77.7791 69.2786 77.8509 69.1614C77.8654 69.141 77.8872 69.1268 77.9118 69.1219C77.9364 69.117 77.9619 69.1216 77.9832 69.1349C78.004 69.1482 78.0188 69.169 78.0245 69.1931C78.0301 69.2171 78.0262 69.2423 78.0134 69.2635C77.9416 69.3769 77.8774 69.4903 77.8207 69.5999C77.8118 69.6137 77.7994 69.6248 77.7848 69.6321C77.7702 69.6395 77.7538 69.6427 77.7375 69.6415V69.6415ZM78.2818 68.5869H78.2516C78.2279 68.5783 78.2085 68.5609 78.1972 68.5384C78.186 68.5159 78.1838 68.49 78.1911 68.4659C78.2289 68.3487 78.2629 68.224 78.2932 68.0879C78.2958 68.0757 78.3009 68.0642 78.3081 68.0539C78.3152 68.0437 78.3243 68.035 78.3349 68.0283C78.3454 68.0217 78.3572 68.0172 78.3695 68.015C78.3818 68.0129 78.3944 68.0133 78.4066 68.0161C78.4187 68.0188 78.4303 68.0238 78.4405 68.031C78.4507 68.0381 78.4594 68.0473 78.4661 68.0578C78.4728 68.0684 78.4773 68.0801 78.4794 68.0924C78.4815 68.1047 78.4812 68.1173 78.4784 68.1295C78.4481 68.2618 78.4103 68.3941 78.3688 68.5075C78.3669 68.5292 78.3569 68.5494 78.3408 68.5641C78.3247 68.5788 78.3036 68.5869 78.2818 68.5869ZM78.4822 67.4226C78.4697 67.4221 78.4575 67.4192 78.4463 67.414C78.435 67.4088 78.4248 67.4014 78.4164 67.3923C78.408 67.3832 78.4014 67.3725 78.3972 67.3608C78.3929 67.3491 78.3909 67.3367 78.3914 67.3243C78.3914 67.2676 78.3914 67.2147 78.3914 67.1618C78.3914 67.1089 78.3914 67.0106 78.3914 66.935C78.3909 66.9226 78.3929 66.9102 78.3972 66.8985C78.4014 66.8869 78.408 66.8762 78.4164 66.867C78.4248 66.8579 78.435 66.8505 78.4463 66.8453C78.4575 66.8401 78.4697 66.8372 78.4822 66.8367C78.4948 66.835 78.5077 66.8362 78.5199 66.84C78.532 66.8439 78.5432 66.8504 78.5526 66.859C78.562 66.8677 78.5693 66.8783 78.5741 66.8901C78.579 66.9019 78.5811 66.9147 78.5804 66.9274C78.5804 67.003 78.5804 67.0824 78.5804 67.1618C78.5804 67.2412 78.5804 67.2752 78.5804 67.3281C78.5795 67.3535 78.5687 67.3776 78.5503 67.3952C78.532 67.4128 78.5076 67.4226 78.4822 67.4226V67.4226ZM78.3763 66.2395C78.3549 66.2394 78.3341 66.2324 78.317 66.2194C78.2999 66.2065 78.2876 66.1883 78.2818 66.1677C78.256 66.0396 78.2219 65.9133 78.1798 65.7897C78.1726 65.7661 78.1749 65.7407 78.1862 65.7188C78.1975 65.6969 78.2169 65.6803 78.2402 65.6725C78.2521 65.6678 78.2648 65.6656 78.2776 65.6662C78.2903 65.6667 78.3028 65.67 78.3142 65.6757C78.3257 65.6814 78.3357 65.6894 78.3438 65.6993C78.3519 65.7092 78.3578 65.7206 78.3612 65.733C78.4032 65.857 78.4386 65.9831 78.467 66.111C78.4698 66.1231 78.4702 66.1357 78.4681 66.148C78.466 66.1603 78.4614 66.1721 78.4548 66.1826C78.4481 66.1932 78.4394 66.2023 78.4292 66.2094C78.4189 66.2166 78.4074 66.2217 78.3952 66.2244L78.3763 66.2395ZM77.9454 65.1319C77.9288 65.1324 77.9123 65.1284 77.8977 65.1204C77.8831 65.1125 77.8709 65.1008 77.8622 65.0866C77.8013 64.9723 77.7344 64.8613 77.6619 64.7539C77.6484 64.7337 77.6433 64.7091 77.6475 64.6851C77.6517 64.6612 77.665 64.6398 77.6846 64.6254C77.6945 64.6176 77.706 64.612 77.7183 64.6089C77.7305 64.6059 77.7433 64.6054 77.7557 64.6075C77.7682 64.6096 77.7801 64.6144 77.7906 64.6213C77.8011 64.6283 77.8101 64.6374 77.8169 64.6481C77.8961 64.7561 77.9693 64.8684 78.0361 64.9845C78.0487 65.0067 78.0522 65.0329 78.0458 65.0575C78.0395 65.0822 78.0238 65.1035 78.0021 65.1168L77.9454 65.1319Z" fill="#FAFAFA"/>
<path d="M77.4994 70.5865C77.4772 70.5867 77.4557 70.5787 77.4389 70.5641C77.4222 70.5494 77.4115 70.5292 77.4087 70.5071C77.397 70.437 77.397 70.3655 77.4087 70.2954C77.4115 70.271 77.4238 70.2487 77.4428 70.2332C77.4619 70.2176 77.4863 70.2101 77.5107 70.2123C77.5232 70.2132 77.5353 70.2166 77.5464 70.2223C77.5575 70.2279 77.5674 70.2357 77.5754 70.2452C77.5835 70.2547 77.5896 70.2657 77.5935 70.2776C77.5973 70.2894 77.5987 70.3019 77.5977 70.3143C77.5919 70.3696 77.5919 70.4254 77.5977 70.4807C77.6009 70.5052 77.5944 70.53 77.5796 70.5498C77.5648 70.5696 77.5427 70.5827 77.5183 70.5865H77.4994Z" fill="#FAFAFA"/>
<path d="M77.0794 70.5865C77.0543 70.5865 77.0303 70.5765 77.0125 70.5588C76.9948 70.5411 76.9849 70.5171 76.9849 70.492V70.303C76.9849 70.2779 76.9948 70.2539 77.0125 70.2362C77.0303 70.2185 77.0543 70.2085 77.0794 70.2085C77.1044 70.2085 77.1285 70.2185 77.1462 70.2362C77.1639 70.2539 77.1739 70.2779 77.1739 70.303V70.492C77.1739 70.5171 77.1639 70.5411 77.1462 70.5588C77.1285 70.5765 77.1044 70.5865 77.0794 70.5865Z" fill="#FAFAFA"/>
<path d="M77.0794 69.6678C77.0543 69.6678 77.0303 69.6579 77.0125 69.6401C76.9948 69.6224 76.9849 69.5984 76.9849 69.5733V69.2142C76.9849 69.1892 76.9948 69.1651 77.0125 69.1474C77.0303 69.1297 77.0543 69.1197 77.0794 69.1197C77.1044 69.1197 77.1285 69.1297 77.1462 69.1474C77.1639 69.1651 77.1739 69.1892 77.1739 69.2142V69.5733C77.1739 69.5984 77.1639 69.6224 77.1462 69.6401C77.1285 69.6579 77.1044 69.6678 77.0794 69.6678ZM77.0794 68.5867C77.0543 68.5867 77.0303 68.5768 77.0125 68.5591C76.9948 68.5413 76.9849 68.5173 76.9849 68.4922V68.1142C76.9849 68.0892 76.9948 68.0651 77.0125 68.0474C77.0303 68.0297 77.0543 68.0197 77.0794 68.0197C77.1044 68.0197 77.1285 68.0297 77.1462 68.0474C77.1639 68.0651 77.1739 68.0892 77.1739 68.1142V68.4922C77.1749 68.5053 77.1732 68.5184 77.169 68.5307C77.1647 68.5431 77.1579 68.5544 77.149 68.564C77.1401 68.5736 77.1294 68.5812 77.1174 68.5865C77.1054 68.5917 77.0924 68.5943 77.0794 68.5943V68.5867ZM77.0794 67.5057C77.0543 67.5057 77.0303 67.4957 77.0125 67.478C76.9948 67.4603 76.9849 67.4362 76.9849 67.4112V67.0332C76.9849 67.0081 76.9948 66.9841 77.0125 66.9663C77.0303 66.9486 77.0543 66.9387 77.0794 66.9387C77.1044 66.9387 77.1285 66.9486 77.1462 66.9663C77.1639 66.9841 77.1739 67.0081 77.1739 67.0332V67.4112C77.1749 67.4242 77.1732 67.4373 77.169 67.4497C77.1647 67.462 77.1579 67.4733 77.149 67.4829C77.1401 67.4925 77.1294 67.5002 77.1174 67.5054C77.1054 67.5106 77.0924 67.5133 77.0794 67.5132V67.5057ZM77.0794 66.4208C77.0543 66.4208 77.0303 66.4108 77.0125 66.3931C76.9948 66.3754 76.9849 66.3514 76.9849 66.3263V65.9672C76.9849 65.9421 76.9948 65.9181 77.0125 65.9004C77.0303 65.8827 77.0543 65.8727 77.0794 65.8727C77.1044 65.8727 77.1285 65.8827 77.1462 65.9004C77.1639 65.9181 77.1739 65.9421 77.1739 65.9672V66.3263C77.1749 66.3393 77.1732 66.3524 77.169 66.3648C77.1647 66.3771 77.1579 66.3885 77.149 66.3981C77.1401 66.4077 77.1294 66.4153 77.1174 66.4205C77.1054 66.4257 77.0924 66.4284 77.0794 66.4284V66.4208ZM77.0794 65.3397C77.0543 65.3397 77.0303 65.3298 77.0125 65.312C76.9948 65.2943 76.9849 65.2703 76.9849 65.2452V64.8861C76.9849 64.8611 76.9948 64.837 77.0125 64.8193C77.0303 64.8016 77.0543 64.7916 77.0794 64.7916C77.1044 64.7916 77.1285 64.8016 77.1462 64.8193C77.1639 64.837 77.1739 64.8611 77.1739 64.8861V65.2452C77.1749 65.2582 77.1732 65.2714 77.169 65.2837C77.1647 65.2961 77.1579 65.3074 77.149 65.317C77.1401 65.3266 77.1294 65.3342 77.1174 65.3394C77.1054 65.3447 77.0924 65.3473 77.0794 65.3473V65.3397Z" fill="#FAFAFA"/>
<path d="M77.0794 64.2663C77.0543 64.2663 77.0303 64.2564 77.0125 64.2386C76.9948 64.2209 76.9849 64.1969 76.9849 64.1718V63.9979C76.9849 63.9729 76.9948 63.9488 77.0125 63.9311C77.0303 63.9134 77.0543 63.9034 77.0794 63.9034C77.1044 63.9034 77.1285 63.9134 77.1462 63.9311C77.1639 63.9488 77.1739 63.9729 77.1739 63.9979V64.1869C77.1702 64.2093 77.1587 64.2296 77.1414 64.2442C77.124 64.2588 77.102 64.2666 77.0794 64.2663V64.2663Z" fill="#FAFAFA"/>
<path d="M78.4859 69.6679C78.4639 69.6757 78.4399 69.6757 78.4179 69.6679C78.4003 69.6496 78.3905 69.6252 78.3905 69.5999C78.3905 69.5745 78.4003 69.5501 78.4179 69.5318C78.4935 69.4449 78.5653 69.3542 78.6371 69.2597C78.6443 69.2495 78.6534 69.2407 78.6639 69.2341C78.6745 69.2274 78.6862 69.2229 78.6985 69.2208C78.7108 69.2186 78.7234 69.219 78.7356 69.2218C78.7478 69.2246 78.7592 69.2297 78.7694 69.237C78.7793 69.2444 78.7877 69.2538 78.794 69.2644C78.8003 69.2751 78.8045 69.2869 78.8063 69.2992C78.808 69.3115 78.8073 69.324 78.8042 69.336C78.8012 69.3481 78.7957 69.3594 78.7883 69.3693C78.7166 69.469 78.6396 69.5649 78.5577 69.6566C78.5473 69.6635 78.5355 69.6682 78.5231 69.6701C78.5107 69.6721 78.498 69.6713 78.4859 69.6679ZM79.102 68.7418C79.0885 68.7457 79.0741 68.7457 79.0605 68.7418C79.0489 68.7365 79.0385 68.729 79.0299 68.7196C79.0213 68.7102 79.0146 68.6992 79.0104 68.6872C79.0062 68.6752 79.0044 68.6625 79.0052 68.6498C79.006 68.6371 79.0094 68.6247 79.0151 68.6133C79.0718 68.5037 79.1209 68.3903 79.1663 68.2769C79.1753 68.2533 79.1933 68.2343 79.2164 68.224C79.2394 68.2137 79.2656 68.213 79.2892 68.2221C79.3127 68.2311 79.3317 68.2491 79.342 68.2721C79.3523 68.2952 79.353 68.3213 79.344 68.3449C79.2948 68.4659 79.2419 68.583 79.1852 68.7002C79.1779 68.7161 79.1662 68.7296 79.1514 68.739C79.1367 68.7484 79.1195 68.7533 79.102 68.7531V68.7418ZM79.48 67.6721H79.4611C79.4491 67.6698 79.4376 67.6652 79.4275 67.6584C79.4173 67.6516 79.4085 67.6428 79.4018 67.6326C79.3951 67.6224 79.3906 67.6109 79.3884 67.5988C79.3863 67.5867 79.3866 67.5744 79.3893 67.5624C79.412 67.4415 79.4309 67.3205 79.446 67.1844C79.4489 67.16 79.4611 67.1377 79.4802 67.1222C79.4992 67.1067 79.5236 67.0992 79.5481 67.1013C79.5605 67.1027 79.5726 67.1066 79.5835 67.1127C79.5945 67.1187 79.6041 67.127 79.6118 67.1368C79.6195 67.1467 79.6253 67.1579 79.6286 67.17C79.6319 67.1821 79.6328 67.1947 79.6312 67.2071C79.6312 67.3319 79.5972 67.4604 79.5745 67.5851C79.5746 67.5987 79.5718 67.6121 79.5664 67.6246C79.561 67.637 79.5531 67.6482 79.5431 67.6574C79.5332 67.6667 79.5215 67.6737 79.5086 67.6782C79.4958 67.6827 79.4822 67.6845 79.4687 67.6834L79.48 67.6721ZM79.5481 66.5381C79.5243 66.5381 79.5013 66.5292 79.4838 66.5131C79.4663 66.497 79.4555 66.4749 79.4536 66.4511C79.4439 66.3314 79.425 66.2126 79.3969 66.0958C79.391 66.0713 79.3948 66.0454 79.4075 66.0236C79.4202 66.0018 79.4407 65.9857 79.4649 65.9786C79.4899 65.9739 79.5157 65.9786 79.5374 65.9919C79.5591 66.0051 79.575 66.026 79.5821 66.0504C79.6114 66.1748 79.6316 66.3012 79.6426 66.4284C79.6436 66.4409 79.6422 66.4534 79.6384 66.4652C79.6346 66.4771 79.6284 66.4881 79.6203 66.4976C79.6123 66.5071 79.6024 66.5148 79.5913 66.5205C79.5802 66.5262 79.5681 66.5296 79.5556 66.5305L79.5481 66.5381ZM79.2079 65.4683C79.191 65.468 79.1744 65.4633 79.1598 65.4547C79.1453 65.4461 79.1332 65.4339 79.1247 65.4192C79.0628 65.3144 78.9947 65.2134 78.9206 65.1168C78.9056 65.0967 78.8991 65.0715 78.9027 65.0467C78.9062 65.0219 78.9195 64.9995 78.9395 64.9845C78.9596 64.9695 78.9848 64.963 79.0096 64.9665C79.0344 64.9701 79.0568 64.9833 79.0718 65.0034C79.1505 65.1057 79.2225 65.213 79.2873 65.3247C79.2999 65.3469 79.3033 65.373 79.297 65.3977C79.2906 65.4224 79.275 65.4437 79.2532 65.457C79.2376 65.4715 79.2177 65.4808 79.1965 65.4835L79.2079 65.4683ZM78.4708 64.6141C78.4492 64.6136 78.4283 64.6071 78.4103 64.5951C78.3151 64.5187 78.2153 64.448 78.1117 64.3835C78.0991 64.3782 78.0878 64.3702 78.0786 64.3601C78.0694 64.3501 78.0625 64.3381 78.0583 64.3251C78.0542 64.3121 78.0529 64.2984 78.0546 64.2848C78.0563 64.2713 78.0608 64.2583 78.068 64.2466C78.0752 64.235 78.0848 64.2251 78.0962 64.2176C78.1076 64.2101 78.1205 64.2051 78.1339 64.203C78.1474 64.2009 78.1612 64.2018 78.1743 64.2055C78.1875 64.2093 78.1996 64.2158 78.21 64.2247C78.3213 64.2908 78.4275 64.3654 78.5275 64.4477C78.5365 64.4562 78.5437 64.4665 78.5487 64.4778C78.5536 64.4892 78.5561 64.5015 78.5561 64.5139C78.5561 64.5263 78.5536 64.5386 78.5487 64.5499C78.5437 64.5613 78.5365 64.5716 78.5275 64.58C78.5207 64.5929 78.511 64.604 78.4992 64.6126C78.4874 64.6211 78.4738 64.6268 78.4594 64.6292L78.4708 64.6141ZM77.4653 64.1075H77.4426C77.3273 64.0811 77.2094 64.0672 77.0911 64.066C77.066 64.066 77.042 64.056 77.0243 64.0383C77.0065 64.0206 76.9966 63.9965 76.9966 63.9715C76.9966 63.9464 77.0065 63.9224 77.0243 63.9046C77.042 63.8869 77.066 63.877 77.0911 63.877C77.2183 63.8789 77.345 63.8941 77.4691 63.9223C77.493 63.9286 77.5135 63.9439 77.5262 63.9651C77.539 63.9863 77.5429 64.0117 77.5371 64.0357C77.5355 64.0576 77.5263 64.0783 77.5112 64.0941C77.496 64.11 77.4758 64.1201 77.454 64.1227L77.4653 64.1075Z" fill="#FAFAFA"/>
<path d="M76.9438 64.202C76.9256 64.2017 76.9077 64.1962 76.8925 64.186C76.8774 64.1759 76.8654 64.1615 76.8582 64.1447C76.851 64.1279 76.8489 64.1094 76.852 64.0914C76.8551 64.0733 76.8634 64.0566 76.8758 64.0432C76.9627 63.9563 77.0194 63.9071 77.0194 63.9071C77.0371 63.8898 77.0609 63.8801 77.0856 63.8801C77.1103 63.8801 77.1341 63.8898 77.1517 63.9071C77.1608 63.9156 77.168 63.9259 77.1729 63.9373C77.1778 63.9486 77.1804 63.9609 77.1804 63.9733C77.1804 63.9857 77.1778 63.9979 77.1729 64.0093C77.168 64.0207 77.1608 64.0309 77.1517 64.0394C77.1055 64.0773 77.0613 64.1177 77.0194 64.1604C77.0116 64.1733 77.0004 64.1839 76.9872 64.1912C76.9739 64.1985 76.959 64.2022 76.9438 64.202V64.202Z" fill="#FAFAFA"/>
<path d="M76.4217 69.6415C76.4042 69.6416 76.387 69.6367 76.3723 69.6273C76.3575 69.6179 76.3458 69.6045 76.3385 69.5886C76.2818 69.479 76.2176 69.3655 76.1457 69.2521C76.133 69.231 76.129 69.2057 76.1347 69.1817C76.1403 69.1577 76.1552 69.1369 76.176 69.1236C76.1972 69.1103 76.2228 69.1056 76.2474 69.1106C76.272 69.1155 76.2938 69.1296 76.3083 69.1501C76.3801 69.2673 76.4481 69.3882 76.5048 69.5054C76.5106 69.5163 76.5141 69.5282 76.5151 69.5404C76.5162 69.5527 76.5147 69.565 76.5108 69.5767C76.5069 69.5884 76.5007 69.5991 76.4925 69.6083C76.4844 69.6175 76.4744 69.6249 76.4633 69.6301C76.4506 69.6374 76.4363 69.6413 76.4217 69.6415V69.6415ZM75.8774 68.5869C75.8577 68.5875 75.8385 68.5816 75.8227 68.5699C75.8069 68.5582 75.7955 68.5416 75.7904 68.5226C75.7488 68.3979 75.711 68.2656 75.6808 68.1446C75.678 68.1324 75.6777 68.1198 75.6798 68.1075C75.6819 68.0952 75.6864 68.0835 75.6931 68.0729C75.6998 68.0624 75.7085 68.0533 75.7187 68.0461C75.7289 68.0389 75.7404 68.0339 75.7526 68.0312C75.7648 68.0284 75.7774 68.0281 75.7897 68.0302C75.802 68.0323 75.8137 68.0368 75.8243 68.0435C75.8348 68.0502 75.8439 68.0589 75.8511 68.0691C75.8583 68.0793 75.8633 68.0908 75.866 68.103C75.8963 68.2315 75.9303 68.3563 75.9681 68.481C75.9754 68.5051 75.9732 68.5311 75.962 68.5536C75.9507 68.5761 75.9312 68.5934 75.9076 68.602L75.8774 68.5869ZM75.677 67.4226C75.6523 67.4217 75.6288 67.4114 75.6112 67.3939C75.5937 67.3764 75.5835 67.3529 75.5825 67.3281V67.1618C75.5825 67.0824 75.5825 67.003 75.5825 66.9274C75.5825 66.9149 75.585 66.9024 75.5901 66.8909C75.5951 66.8794 75.6025 66.869 75.6117 66.8605C75.6209 66.8519 75.6319 66.8454 75.6438 66.8413C75.6557 66.8372 75.6683 66.8357 75.6808 66.8367C75.6932 66.8372 75.7054 66.8401 75.7167 66.8453C75.728 66.8505 75.7381 66.8579 75.7465 66.8671C75.755 66.8762 75.7615 66.8869 75.7658 66.8985C75.7701 66.9102 75.772 66.9226 75.7715 66.935C75.7715 67.0106 75.7715 67.0862 75.7715 67.1618V67.3243C75.772 67.3367 75.7701 67.3491 75.7658 67.3608C75.7615 67.3725 75.755 67.3832 75.7465 67.3923C75.7381 67.4014 75.728 67.4088 75.7167 67.414C75.7054 67.4192 75.6932 67.4221 75.6808 67.4226H75.677ZM75.7829 66.2395H75.7715C75.7474 66.2332 75.7266 66.218 75.7132 66.1969C75.6999 66.1759 75.6951 66.1506 75.6997 66.1261C75.7282 65.9983 75.7635 65.8721 75.8055 65.7481C75.8089 65.7358 75.8148 65.7243 75.8229 65.7144C75.831 65.7045 75.8411 65.6965 75.8525 65.6908C75.8639 65.6851 75.8764 65.6818 75.8892 65.6813C75.9019 65.6807 75.9146 65.6829 75.9265 65.6876C75.9499 65.6954 75.9693 65.712 75.9806 65.7339C75.9919 65.7558 75.9942 65.7812 75.987 65.8048C75.9448 65.9284 75.9107 66.0547 75.8849 66.1828C75.8758 66.2041 75.8593 66.2215 75.8386 66.2319C75.8178 66.2422 75.7941 66.2449 75.7715 66.2395H75.7829ZM76.2176 65.1395C76.2014 65.1433 76.1846 65.1433 76.1684 65.1395C76.1467 65.1262 76.131 65.1049 76.1247 65.0802C76.1183 65.0555 76.1218 65.0294 76.1344 65.0072C76.2024 64.8938 76.2743 64.7804 76.3536 64.6708C76.3688 64.6534 76.3899 64.6421 76.4129 64.6392C76.4358 64.6363 76.459 64.6418 76.4781 64.6549C76.4972 64.6679 76.5109 64.6875 76.5165 64.71C76.5221 64.7324 76.5193 64.7561 76.5086 64.7766C76.4324 64.8825 76.3617 64.9922 76.2969 65.1055C76.2866 65.1157 76.2741 65.1234 76.2603 65.128C76.2466 65.1326 76.2319 65.1339 76.2176 65.1319V65.1395Z" fill="#FAFAFA"/>
<path d="M76.6598 70.5865C76.6353 70.5827 76.6133 70.5696 76.5985 70.5498C76.5837 70.53 76.5772 70.5052 76.5804 70.4807C76.5862 70.4254 76.5862 70.3696 76.5804 70.3143C76.5794 70.3019 76.5808 70.2894 76.5846 70.2776C76.5884 70.2657 76.5946 70.2547 76.6026 70.2452C76.6107 70.2357 76.6206 70.2279 76.6317 70.2223C76.6428 70.2166 76.6549 70.2132 76.6674 70.2123C76.6918 70.2101 76.7162 70.2176 76.7352 70.2332C76.7543 70.2487 76.7666 70.271 76.7694 70.2954C76.7774 70.3658 76.7774 70.4368 76.7694 70.5071C76.7648 70.5319 76.7508 70.5539 76.7304 70.5687C76.7101 70.5835 76.6848 70.5898 76.6598 70.5865V70.5865Z" fill="#FAFAFA"/>
<path d="M75.6776 69.6679C75.6639 69.6678 75.6504 69.6647 75.638 69.6588C75.6256 69.653 75.6146 69.6445 75.6058 69.6339C75.5239 69.5423 75.447 69.4464 75.3752 69.3466C75.3678 69.3367 75.3624 69.3254 75.3593 69.3134C75.3562 69.3014 75.3555 69.2888 75.3573 69.2766C75.359 69.2643 75.3632 69.2525 75.3695 69.2418C75.3758 69.2311 75.3842 69.2218 75.3941 69.2143C75.4043 69.2071 75.4158 69.2019 75.428 69.1991C75.4401 69.1963 75.4527 69.196 75.465 69.1981C75.4773 69.2002 75.4891 69.2047 75.4996 69.2114C75.5102 69.2181 75.5193 69.2268 75.5264 69.237C75.5983 69.3315 75.6701 69.4222 75.7457 69.5092C75.763 69.5268 75.7727 69.5506 75.7727 69.5753C75.7727 69.6001 75.763 69.6238 75.7457 69.6415C75.7369 69.6505 75.7263 69.6576 75.7146 69.6622C75.7028 69.6668 75.6902 69.6687 75.6776 69.6679ZM75.0577 68.7418C75.0402 68.742 75.0231 68.737 75.0083 68.7276C74.9936 68.7183 74.9818 68.7048 74.9746 68.6889C74.9179 68.5717 74.8649 68.4545 74.8196 68.3336C74.8147 68.3222 74.8123 68.31 74.8123 68.2976C74.8124 68.2852 74.815 68.273 74.8199 68.2617C74.8249 68.2504 74.8321 68.2402 74.8412 68.2317C74.8502 68.2233 74.8609 68.2168 74.8725 68.2126C74.8956 68.2039 74.9212 68.2046 74.9438 68.2145C74.9664 68.2243 74.9842 68.2427 74.9935 68.2655C75.0388 68.3789 75.088 68.4923 75.1447 68.6057C75.1553 68.6279 75.1569 68.6532 75.1491 68.6765C75.1414 68.6998 75.1249 68.7192 75.1031 68.7305L75.0577 68.7418ZM74.6797 67.6721C74.6581 67.6724 74.637 67.6649 74.6204 67.6511C74.6037 67.6372 74.5926 67.6178 74.589 67.5965C74.5619 67.4717 74.5417 67.3455 74.5285 67.2185C74.5269 67.2061 74.5278 67.1934 74.5312 67.1814C74.5345 67.1693 74.5402 67.158 74.548 67.1482C74.5557 67.1383 74.5653 67.1301 74.5763 67.124C74.5872 67.1179 74.5992 67.114 74.6117 67.1126C74.6366 67.1104 74.6614 67.1178 74.6811 67.1333C74.7007 67.1487 74.7138 67.1711 74.7175 67.1958C74.7286 67.3229 74.7475 67.4491 74.7742 67.5738C74.7777 67.5982 74.7718 67.6231 74.7578 67.6434C74.7438 67.6637 74.7227 67.678 74.6986 67.6834L74.6797 67.6721ZM74.6117 66.5381C74.5993 66.5371 74.5871 66.5337 74.576 66.5281C74.5649 66.5224 74.5551 66.5146 74.547 66.5051C74.5389 66.4956 74.5328 66.4847 74.529 66.4728C74.5251 66.4609 74.5237 66.4484 74.5247 66.436C74.5355 66.3084 74.5569 66.182 74.589 66.058C74.5917 66.0458 74.5967 66.0343 74.6039 66.0241C74.6111 66.0138 74.6202 66.0051 74.6307 65.9985C74.6413 65.9918 74.653 65.9873 74.6653 65.9852C74.6776 65.9831 74.6902 65.9834 74.7024 65.9862C74.7266 65.9933 74.7472 66.0094 74.7598 66.0312C74.7725 66.053 74.7763 66.0788 74.7704 66.1034C74.7424 66.2202 74.7234 66.339 74.7137 66.4587C74.7142 66.4808 74.7069 66.5024 74.6931 66.5196C74.6792 66.5369 74.6598 66.5488 74.6381 66.5532L74.6117 66.5381ZM74.9519 65.4683C74.937 65.4717 74.9215 65.4717 74.9065 65.4683C74.8848 65.455 74.8691 65.4337 74.8628 65.4091C74.8564 65.3844 74.8599 65.3582 74.8725 65.336C74.9373 65.2244 75.0093 65.117 75.088 65.0147C75.0951 65.0044 75.1042 64.9956 75.1149 64.989C75.1256 64.9823 75.1375 64.978 75.15 64.9762C75.1624 64.9744 75.1751 64.9753 75.1872 64.9786C75.1993 64.982 75.2105 64.9879 75.2203 64.9958C75.2302 65.0033 75.2386 65.0126 75.2449 65.0233C75.2512 65.034 75.2554 65.0458 75.2571 65.0581C75.2589 65.0704 75.2582 65.0829 75.2551 65.0949C75.252 65.1069 75.2466 65.1182 75.2392 65.1281C75.1651 65.2247 75.0969 65.3257 75.035 65.4305C75.0284 65.4446 75.0183 65.4568 75.0058 65.466C74.9932 65.4752 74.9786 65.4812 74.9632 65.4834L74.9519 65.4683ZM75.689 64.614C75.6753 64.6139 75.6617 64.6108 75.6493 64.605C75.6369 64.5991 75.6259 64.5906 75.6172 64.58C75.6081 64.5715 75.6009 64.5613 75.596 64.5499C75.5911 64.5385 75.5885 64.5263 75.5885 64.5139C75.5885 64.5015 75.5911 64.4892 75.596 64.4778C75.6009 64.4665 75.6081 64.4562 75.6172 64.4477C75.7172 64.3654 75.8233 64.2908 75.9347 64.2247C75.945 64.2158 75.9572 64.2093 75.9703 64.2055C75.9834 64.2018 75.9972 64.2009 76.0107 64.203C76.0242 64.2051 76.0371 64.2101 76.0484 64.2176C76.0598 64.2251 76.0694 64.235 76.0766 64.2466C76.0838 64.2582 76.0884 64.2713 76.0901 64.2848C76.0917 64.2984 76.0904 64.3121 76.0863 64.3251C76.0822 64.3381 76.0752 64.3501 76.066 64.3601C76.0568 64.3702 76.0455 64.3782 76.033 64.3835C75.9293 64.448 75.8296 64.5187 75.7343 64.5951C75.7256 64.6088 75.714 64.6204 75.7003 64.6292L75.689 64.614ZM76.6945 64.1075C76.673 64.1071 76.6523 64.0994 76.6358 64.0856C76.6194 64.0719 76.608 64.053 76.6037 64.0319C76.5989 64.0079 76.6033 63.983 76.6158 63.9621C76.6284 63.9411 76.6484 63.9256 76.6718 63.9185C76.802 63.8889 76.9351 63.8737 77.0687 63.8732C77.0937 63.8732 77.1178 63.8831 77.1355 63.9008C77.1532 63.9186 77.1632 63.9426 77.1632 63.9677C77.1632 63.9927 77.1532 64.0168 77.1355 64.0345C77.1178 64.0522 77.0937 64.0622 77.0687 64.0622C76.9504 64.0634 76.8325 64.0773 76.7171 64.1037L76.6945 64.1075Z" fill="#FAFAFA"/>
<path opacity="0.2" d="M66.1628 67.8763C66.0418 68.2127 65.679 68.4244 65.0779 68.5L56.5125 63.4839L55.3785 62.3499C55.3643 62.336 55.3554 62.3177 55.3531 62.2979C55.3508 62.2782 55.3554 62.2583 55.366 62.2416C55.3766 62.2248 55.3926 62.2121 55.4114 62.2057C55.4301 62.1993 55.4505 62.1995 55.4692 62.2063L57.5179 62.8867L66.1628 67.8763Z" fill="black"/>
<path d="M57.4572 62.1307L55.6315 61.7716C55.6197 61.7691 55.6073 61.7705 55.5963 61.7754C55.5853 61.7804 55.5761 61.7888 55.5702 61.7994C55.5643 61.8099 55.5619 61.8221 55.5634 61.8341C55.5649 61.8461 55.5702 61.8573 55.5786 61.8661L56.8184 63.2685L57.4572 62.1307Z" fill="#FFA8A7"/>
<path d="M55.5786 61.8661C55.5702 61.8574 55.5649 61.8461 55.5634 61.8341C55.5619 61.8221 55.5643 61.8099 55.5702 61.7994C55.5761 61.7888 55.5853 61.7804 55.5963 61.7754C55.6073 61.7705 55.6197 61.7691 55.6315 61.7716L56.0095 61.8434C55.9597 61.8728 55.9193 61.9158 55.8932 61.9674C55.867 62.019 55.8562 62.077 55.8621 62.1345V62.1648L55.5786 61.8661Z" fill="#263238"/>
<path d="M63.6229 67.1695L63.4755 67.0863L63.2941 66.9843L56.8189 63.2685C56.7593 63.0679 56.7768 62.8521 56.8681 62.6637C56.9158 62.5337 56.9944 62.4173 57.0972 62.3245C57.1999 62.2316 57.3236 62.1651 57.4578 62.1307L63.9291 65.8427L64.2731 66.0393C64.0539 65.9259 63.3961 67.0523 63.6229 67.1695Z" fill="#455A64"/>
<path d="M63.0557 66.8482L62.7192 66.6554C62.621 66.6025 62.6777 66.3605 62.7948 66.1111C62.946 65.7784 63.2447 65.4571 63.377 65.5252L63.6227 65.6688L63.7096 65.7179C63.5773 65.6499 63.2787 65.9712 63.1275 66.3039C63.0179 66.542 62.9612 66.7763 63.0443 66.8406L63.0557 66.8482Z" fill="#EBEBEB"/>
<path d="M62.9723 66.799C62.7418 66.678 63.3957 65.5478 63.6263 65.665L63.9589 65.8578C63.7321 65.7368 63.0782 66.8632 63.305 66.9918L62.9723 66.799Z" fill="#C0CAEF"/>
<path d="M63.6224 67.1695L63.2936 66.9843C63.0668 66.8633 63.6716 65.7709 63.9286 65.8503L64.2575 66.0393C64.0534 65.9259 63.3956 67.0524 63.6224 67.1695Z" fill="#EBEBEB"/>
<path opacity="0.15" d="M55.5709 61.8056L55.6314 61.7716L56.9582 62.4974L63.8038 66.4248C63.8038 66.4059 63.8265 66.4059 63.8378 66.4248C63.6413 66.731 63.4938 67.1127 63.6224 67.1808L63.4749 67.0976L63.2935 66.9956L56.8183 63.2798L55.5785 61.8775C55.5697 61.8679 55.5642 61.8557 55.5628 61.8428C55.5615 61.8299 55.5643 61.8168 55.5709 61.8056V61.8056Z" fill="black"/>
<path d="M65.0213 67.9708L63.6227 67.1694C63.5245 67.1203 63.5812 66.8821 63.6946 66.6327C63.8458 66.3 64.1406 65.9749 64.2729 66.0392L65.6753 66.8406C65.955 67.0031 65.698 67.5966 65.388 67.8763C65.3431 67.9266 65.2843 67.9624 65.219 67.9793C65.1537 67.9961 65.0849 67.9931 65.0213 67.9708V67.9708Z" fill="#F28F8F"/>
<path opacity="0.1" d="M64.938 67.5362C64.9742 67.3855 65.0444 67.2451 65.1434 67.1258C65.2424 67.0066 65.3674 66.9116 65.5088 66.8482C65.5435 66.8346 65.581 66.8299 65.618 66.8345C65.655 66.8391 65.6902 66.8529 65.7205 66.8747C65.9284 67.0712 65.6864 67.6307 65.3916 67.8801C65.3462 67.9332 65.2854 67.9708 65.2177 67.9877C65.1499 68.0046 65.0786 68.0001 65.0136 67.9746C64.9267 67.9142 64.8851 67.7516 64.938 67.5362Z" fill="black"/>
<path opacity="0.1" d="M94.6111 61.7035C93.1407 62.5162 93.1407 63.8355 94.6111 64.6482C95.4395 65.0493 96.348 65.2577 97.2685 65.2577C98.1889 65.2577 99.0974 65.0493 99.9258 64.6482C101.396 63.8355 101.396 62.5162 99.9258 61.7035C99.0974 61.3024 98.1889 61.094 97.2685 61.094C96.348 61.094 95.4395 61.3024 94.6111 61.7035V61.7035Z" fill="black"/>
<path d="M99.5482 56.8954C98.0134 56.4503 96.3783 56.4926 94.8686 57.0163C93.6136 57.5304 93.6325 58.3166 94.9139 58.7665C96.4486 59.2123 98.0839 59.17 99.5935 58.6455C100.894 58.1276 100.875 57.3452 99.5482 56.8954Z" fill="#263238"/>
<path d="M100.553 55.2737L93.8135 55.4551L94.5317 63.3931C94.5733 63.6804 94.8492 63.9601 95.3708 64.1491C96.6884 64.588 98.118 64.5519 99.4117 64.047C99.9409 63.8127 100.213 63.5178 100.239 63.2306L100.553 55.2737Z" fill="#FAFAFA"/>
<path d="M93.8135 55.4551L93.9609 57.0654C94.1394 57.1829 94.331 57.2793 94.5317 57.3527C96.2852 57.9128 98.1764 57.8649 99.8993 57.2166L100.077 57.1296C100.221 57.0552 100.359 56.9719 100.493 56.8802L100.553 55.2737L93.8135 55.4551Z" fill="#EBEBEB"/>
<path d="M100.988 55.5006L100.954 54.2834L100.168 54.3061C100.062 54.2532 99.9488 54.204 99.8203 54.1549C98.0662 53.5965 96.1752 53.6458 94.4527 54.2947C94.3413 54.344 94.2327 54.3996 94.1276 54.4611L93.3716 54.48L93.4018 55.6971C93.4018 56.0751 93.7798 56.4758 94.5358 56.7593C96.2897 57.3183 98.181 57.269 99.9034 56.6194C100.629 56.2981 100.996 55.8937 100.988 55.5006Z" fill="#37474F"/>
<path d="M99.7975 53.2212C98.0422 52.6628 96.15 52.7121 94.4261 53.361C92.986 53.9998 93.0124 54.9789 94.4828 55.5459C96.2381 56.1048 98.1305 56.0555 99.8542 55.406C101.344 54.7634 101.321 53.7919 99.7975 53.2212Z" fill="#455A64"/>
<path d="M100.251 54.0112L99.9829 53.0171L98.0551 53.0662C97.4166 53.0051 96.7731 53.0216 96.1386 53.1154L94.2675 53.1645L94.0483 54.17C93.9349 54.548 94.2335 54.926 94.9442 55.1717C96.3932 55.6127 97.946 55.5729 99.3705 55.0583C100.096 54.7597 100.384 54.3703 100.251 54.0112Z" fill="#37474F"/>
<path d="M99.1289 52.3971C97.794 52.0167 96.3748 52.0537 95.0616 52.503C93.9692 52.9452 93.9881 53.637 95.1032 54.015C96.4368 54.3946 97.8546 54.3576 99.1667 53.9091C100.297 53.4555 100.278 52.7827 99.1289 52.3971Z" fill="#455A64"/>
<path d="M99.6087 53.1379C99.5817 53.1978 99.5385 53.2488 99.4839 53.2854C99.3425 53.3895 99.1873 53.4735 99.0228 53.5348C98.4149 53.7476 97.7767 53.8612 97.1328 53.8713C96.4938 53.9004 95.8545 53.8199 95.2428 53.6331C95.0785 53.5812 94.923 53.5047 94.7816 53.4063C94.6871 53.3345 94.6606 53.2778 94.6606 53.2665C94.6606 53.2551 94.7551 53.0586 95.2201 52.8696C95.8266 52.6517 96.4656 52.5379 97.1101 52.5332C97.7589 52.5062 98.4077 52.5866 99.0303 52.7713C99.4801 52.9338 99.6049 53.1039 99.6087 53.1379Z" fill="#263238"/>
<path d="M99.4841 53.2855C99.3427 53.3896 99.1875 53.4736 99.0229 53.5349C98.415 53.7477 97.7769 53.8613 97.1329 53.8713C96.4939 53.9005 95.8547 53.82 95.2429 53.6332C95.0786 53.5813 94.9231 53.5048 94.7817 53.4064C94.9173 53.3017 95.0676 53.2177 95.2278 53.1569C95.8338 52.9372 96.4731 52.8234 97.1178 52.8205C97.7666 52.7935 98.4154 52.874 99.038 53.0587C99.1967 53.1127 99.3469 53.1891 99.4841 53.2855V53.2855Z" fill="#37474F"/>
<g opacity="0.5">
<path opacity="0.5" d="M98.3426 53.3384C98.4069 53.2923 98.4801 53.2602 98.5575 53.2439C98.635 53.2276 98.7149 53.2276 98.7924 53.2439C98.8755 53.2855 98.7924 53.4027 98.645 53.5047C98.5814 53.5509 98.5089 53.5835 98.4322 53.6004C98.3554 53.6173 98.276 53.6182 98.1989 53.603C98.112 53.5539 98.1762 53.4367 98.3426 53.3384Z" fill="black"/>
</g>
<path d="M94.2069 60.8265C94.2069 61.1252 94.5206 61.4162 95.1254 61.6279C96.571 62.0461 98.1107 62.0065 99.5329 61.5145C100.145 61.2688 100.448 60.9626 100.44 60.664L100.557 57.7458C100.557 58.0634 100.244 58.3885 99.5934 58.6455C98.0837 59.17 96.4484 59.2123 94.9137 58.7665C94.2749 58.5434 93.946 58.2335 93.9385 57.916L94.2069 60.8265Z" fill="#455A64"/>
<path d="M96.2674 60.9437C96.1659 60.7868 96.0738 60.6239 95.9915 60.4561C95.8191 60.1523 95.5425 59.9214 95.2128 59.8059C95.2022 59.801 95.1906 59.7982 95.1789 59.7978C95.1672 59.7974 95.1555 59.7994 95.1445 59.8036C95.1336 59.8078 95.1236 59.8142 95.1152 59.8224C95.1068 59.8306 95.1001 59.8405 95.0956 59.8513C95.0342 60.0518 95.0296 60.2654 95.0823 60.4684C95.135 60.6713 95.2429 60.8557 95.3941 61.001C95.5453 61.1463 95.7338 61.2469 95.9387 61.2915C96.1436 61.3361 96.3568 61.323 96.5547 61.2537C96.5736 61.2537 96.5812 61.2046 96.5547 61.197C96.4432 61.1324 96.3455 61.0463 96.2674 60.9437Z" fill="#C0CAEF"/>
<path d="M95.3939 59.7076C95.571 59.7743 95.7358 59.8701 95.8815 59.9911C96.0388 60.1178 96.1676 60.2762 96.2595 60.456C96.3595 60.6819 96.5157 60.8784 96.7131 61.0268C96.7232 61.0341 96.7347 61.0392 96.7469 61.042C96.7591 61.0448 96.7716 61.0451 96.7839 61.043C96.7963 61.0409 96.808 61.0364 96.8186 61.0297C96.8291 61.023 96.8382 61.0143 96.8454 61.0041C96.946 60.7998 96.9742 60.5673 96.9254 60.3448C96.8767 60.1223 96.7538 59.923 96.577 59.7794C96.4294 59.621 96.2359 59.5129 96.0237 59.4702C95.8115 59.4275 95.5912 59.4523 95.3939 59.5413C95.3789 59.5494 95.3663 59.5614 95.3576 59.576C95.3489 59.5906 95.3442 59.6074 95.3442 59.6244C95.3442 59.6415 95.3489 59.6582 95.3576 59.6728C95.3663 59.6875 95.3789 59.6995 95.3939 59.7076V59.7076Z" fill="#C0CAEF"/>
<path opacity="0.2" d="M105.059 57.451L130.094 42.9963C130.248 42.9197 130.418 42.8799 130.589 42.8799C130.761 42.8799 130.931 42.9197 131.085 42.9963L131.95 43.499C132.226 43.6578 132.226 43.9148 131.95 44.0698L106.919 58.5245C106.766 58.6028 106.596 58.6437 106.424 58.6437C106.252 58.6437 106.082 58.6028 105.929 58.5245L105.059 58.0218C105 58.0011 104.949 57.9625 104.913 57.9113C104.876 57.8602 104.857 57.7991 104.857 57.7364C104.857 57.6737 104.876 57.6126 104.913 57.5615C104.949 57.5103 105 57.4717 105.059 57.451V57.451Z" fill="black"/>
<path d="M86.3291 45.9636V45.7973C86.3372 45.651 86.3797 45.5086 86.4533 45.3818C86.5269 45.255 86.6294 45.1474 86.7525 45.0678L111.598 30.734C111.729 30.667 111.873 30.6321 112.02 30.6321C112.166 30.6321 112.311 30.667 112.441 30.734L117.525 33.6711C117.649 33.7505 117.751 33.858 117.825 33.9848C117.899 34.1117 117.941 34.2542 117.949 34.4006V34.5669C117.941 34.7134 117.899 34.8559 117.825 34.9827C117.751 35.1095 117.649 35.2171 117.525 35.2965L92.6795 49.6605C92.5491 49.7275 92.4046 49.7624 92.258 49.7624C92.1114 49.7624 91.967 49.7275 91.8366 49.6605L86.7525 46.7234C86.6251 46.6411 86.5199 46.5288 86.446 46.3963C86.3722 46.2638 86.3321 46.1153 86.3291 45.9636V45.9636Z" fill="#C0CAEF"/>
<g opacity="0.5">
<path opacity="0.5" d="M86.3291 45.9636V45.7973C86.3372 45.651 86.3797 45.5086 86.4533 45.3818C86.5269 45.255 86.6294 45.1474 86.7525 45.0678L111.598 30.734C111.729 30.667 111.873 30.6321 112.02 30.6321C112.166 30.6321 112.311 30.667 112.441 30.734L117.525 33.6711C117.649 33.7505 117.751 33.858 117.825 33.9848C117.899 34.1117 117.941 34.2542 117.949 34.4006V34.5669C117.941 34.7134 117.899 34.8559 117.825 34.9827C117.751 35.1095 117.649 35.2171 117.525 35.2965L92.6795 49.6605C92.5491 49.7275 92.4046 49.7624 92.258 49.7624C92.1114 49.7624 91.967 49.7275 91.8366 49.6605L86.7525 46.7234C86.6251 46.6411 86.5199 46.5288 86.446 46.3963C86.3722 46.2638 86.3321 46.1153 86.3291 45.9636V45.9636Z" fill="white"/>
</g>
<path d="M86.7525 45.5554L91.8366 48.5C91.967 48.567 92.1115 48.6019 92.2581 48.6019C92.4047 48.6019 92.5492 48.567 92.6796 48.5L117.526 34.136C117.577 34.12 117.622 34.0879 117.654 34.0444C117.687 34.0008 117.704 33.9482 117.704 33.8941C117.704 33.84 117.687 33.7874 117.654 33.7438C117.622 33.7003 117.577 33.6682 117.526 33.6522L112.438 30.734C112.307 30.667 112.163 30.6321 112.016 30.6321C111.87 30.6321 111.725 30.667 111.595 30.734L86.7488 45.0791C86.7015 45.0987 86.6612 45.132 86.633 45.1746C86.6048 45.2173 86.5899 45.2674 86.5903 45.3185C86.5907 45.3697 86.6064 45.4195 86.6353 45.4617C86.6642 45.5039 86.705 45.5365 86.7525 45.5554V45.5554Z" fill="#C0CAEF"/>
<g opacity="0.8">
<path opacity="0.8" d="M86.7525 45.5554L91.8366 48.5C91.967 48.567 92.1115 48.6019 92.2581 48.6019C92.4047 48.6019 92.5492 48.567 92.6796 48.5L117.526 34.136C117.577 34.12 117.622 34.0879 117.654 34.0444C117.687 34.0008 117.704 33.9482 117.704 33.8941C117.704 33.84 117.687 33.7874 117.654 33.7438C117.622 33.7003 117.577 33.6682 117.526 33.6522L112.438 30.734C112.307 30.667 112.163 30.6321 112.016 30.6321C111.87 30.6321 111.725 30.667 111.595 30.734L86.7488 45.0791C86.7015 45.0987 86.6612 45.132 86.633 45.1746C86.6048 45.2173 86.5899 45.2674 86.5903 45.3185C86.5907 45.3697 86.6064 45.4195 86.6353 45.4617C86.6642 45.5039 86.705 45.5365 86.7525 45.5554V45.5554Z" fill="white"/>
</g>
<path d="M130.291 38.2562L132.094 16.4645C132.111 16.1119 132.038 15.7608 131.88 15.4449C131.723 15.1291 131.486 14.8592 131.194 14.6614C130.872 14.504 130.516 14.4253 130.158 14.4319C129.799 14.4385 129.447 14.5301 129.13 14.6992L105.256 28.466C104.942 28.6726 104.676 28.9436 104.475 29.261C104.275 29.5784 104.144 29.9349 104.091 30.3068L102.292 52.0985C102.274 52.451 102.348 52.8022 102.505 53.118C102.663 53.4339 102.899 53.7038 103.192 53.9016C103.514 54.059 103.869 54.1377 104.228 54.1311C104.587 54.1245 104.939 54.0329 105.256 53.8638L129.123 40.0857C129.436 39.8807 129.701 39.6116 129.903 39.2962C130.104 38.9808 130.236 38.6264 130.291 38.2562Z" fill="#C0CAEF"/>
<path opacity="0.5" d="M130.291 38.2562L132.094 16.4645C132.111 16.1119 132.038 15.7608 131.88 15.4449C131.723 15.1291 131.486 14.8592 131.194 14.6614C130.872 14.504 130.516 14.4253 130.158 14.4319C129.799 14.4385 129.447 14.5301 129.13 14.6992L105.256 28.466C104.942 28.6726 104.676 28.9436 104.475 29.261C104.275 29.5784 104.144 29.9349 104.091 30.3068L102.292 52.0985C102.274 52.451 102.348 52.8022 102.505 53.118C102.663 53.4339 102.899 53.7038 103.192 53.9016C103.514 54.059 103.869 54.1377 104.228 54.1311C104.587 54.1245 104.939 54.0329 105.256 53.8638L129.123 40.0857C129.436 39.8807 129.701 39.6116 129.903 39.2962C130.104 38.9808 130.236 38.6264 130.291 38.2562Z" fill="white"/>
<path d="M130.29 38.2562L132.094 16.4645C132.111 16.1119 132.038 15.7608 131.88 15.4449C131.723 15.1291 131.486 14.8592 131.194 14.6614C130.871 14.504 130.516 14.4253 130.157 14.4319C129.799 14.4385 129.446 14.5301 129.13 14.6992L105.256 28.466C104.946 28.6686 104.687 28.9403 104.5 29.2598L108.208 31.3993V52.1893L129.141 40.0933C129.452 39.8855 129.715 39.6144 129.913 39.2977C130.111 38.9811 130.239 38.6261 130.29 38.2562V38.2562Z" fill="#C0CAEF"/>
<path opacity="0.8" d="M130.29 38.2562L132.094 16.4645C132.111 16.1119 132.038 15.7608 131.88 15.4449C131.723 15.1291 131.486 14.8592 131.194 14.6614C130.871 14.504 130.516 14.4253 130.157 14.4319C129.799 14.4385 129.446 14.5301 129.13 14.6992L105.256 28.466C104.946 28.6686 104.687 28.9403 104.5 29.2598L108.208 31.3993V52.1893L129.141 40.0933C129.452 39.8855 129.715 39.6144 129.913 39.2977C130.111 38.9811 130.239 38.6261 130.29 38.2562V38.2562Z" fill="white"/>
<path d="M104.292 53.2665L106.091 31.49C106.143 31.1181 106.274 30.7616 106.475 30.4442C106.676 30.1268 106.942 29.8558 107.255 29.6491L131.122 15.871C131.712 15.5308 132.143 15.8067 132.086 16.4834L130.29 38.2751C130.238 38.6473 130.106 39.004 129.905 39.3214C129.703 39.6388 129.437 39.9097 129.122 40.1159L105.255 53.8751C104.67 54.2153 104.235 53.9432 104.292 53.2665Z" fill="#C0CAEF"/>
<path opacity="0.65" d="M104.292 53.2665L106.091 31.49C106.143 31.1181 106.274 30.7616 106.475 30.4442C106.676 30.1268 106.942 29.8558 107.255 29.6491L131.122 15.871C131.712 15.5308 132.143 15.8067 132.086 16.4834L130.29 38.2751C130.238 38.6473 130.106 39.004 129.905 39.3214C129.703 39.6388 129.437 39.9097 129.122 40.1159L105.255 53.8751C104.67 54.2153 104.235 53.9432 104.292 53.2665Z" fill="white"/>
<path d="M116.595 35.7802C116.662 35.1949 116.852 34.6303 117.153 34.124C117.454 33.6176 117.859 33.1811 118.341 32.8431C119.215 32.3404 119.853 32.8431 119.755 33.9507C119.688 34.5357 119.497 35.0996 119.195 35.6053C118.893 36.111 118.488 36.5468 118.005 36.884C117.151 37.3905 116.516 36.8953 116.595 35.7802Z" fill="#C0CAEF"/>
<path d="M117.17 42.3689L123.037 38.9593L122.039 38.381L116.176 41.7943L117.17 42.3689Z" fill="#C0CAEF"/>
<g opacity="0.85">
<path opacity="0.85" d="M117.17 42.3689L123.037 38.9593L122.039 38.381L116.176 41.7943L117.17 42.3689Z" fill="white"/>
</g>
<path d="M125.758 48.9649L118.618 53.0889C118.476 53.1637 118.317 53.199 118.157 53.1909C118.025 53.1877 117.896 53.154 117.779 53.0927V53.0927L114.634 51.2745C114.513 51.1934 114.414 51.0851 114.343 50.9584C114.272 50.8317 114.232 50.69 114.226 50.5449V50.3786C114.226 50.1065 114.411 50.0006 114.649 50.1329L116.539 51.2253L116.962 51.471L116.872 50.9872L116.203 41.8056L117.197 42.3801L123.067 38.9781L126.121 48.2505C126.134 48.3916 126.106 48.5334 126.042 48.6597C125.978 48.786 125.88 48.8918 125.758 48.9649Z" fill="#C0CAEF"/>
<g opacity="0.5">
<path opacity="0.5" d="M125.758 48.9649L118.618 53.0889C118.476 53.1637 118.317 53.199 118.157 53.1909C118.025 53.1877 117.896 53.154 117.779 53.0927V53.0927L114.634 51.2745C114.513 51.1934 114.414 51.0851 114.343 50.9584C114.272 50.8317 114.232 50.69 114.226 50.5449V50.3786C114.226 50.1065 114.411 50.0006 114.649 50.1329L116.539 51.2253L116.962 51.471L116.872 50.9872L116.203 41.8056L117.197 42.3801L123.067 38.9781L126.121 48.2505C126.134 48.3916 126.106 48.5334 126.042 48.6597C125.978 48.786 125.88 48.8918 125.758 48.9649Z" fill="white"/>
</g>
<path d="M114.324 50.0838L116.759 48.6776L117.254 51.9587L114.324 50.0838Z" fill="#C0CAEF"/>
<g opacity="0.25">
<path opacity="0.25" d="M114.324 50.0838L116.759 48.6776L117.254 51.9587L114.324 50.0838Z" fill="black"/>
</g>
<path d="M117.17 42.3688L116.176 41.7942L116.845 50.9758C116.898 51.2442 116.746 51.3538 116.512 51.2139L114.622 50.1215C114.384 49.9817 114.199 50.0951 114.199 50.3672V50.5335C114.205 50.6786 114.245 50.8203 114.316 50.947C114.387 51.0737 114.486 51.182 114.607 51.2631V51.2631L117.752 53.0813C117.869 53.1426 117.998 53.1763 118.13 53.1795L117.17 42.3688Z" fill="#C0CAEF"/>
<g opacity="0.25">
<path opacity="0.25" d="M117.17 42.3688L116.176 41.7942L116.845 50.9758C116.898 51.2442 116.746 51.3538 116.512 51.2139L114.622 50.1215C114.384 49.9817 114.199 50.0951 114.199 50.3672V50.5335C114.205 50.6786 114.245 50.8203 114.316 50.947C114.387 51.0737 114.486 51.182 114.607 51.2631V51.2631L117.752 53.0813C117.869 53.1426 117.998 53.1763 118.13 53.1795L117.17 42.3688Z" fill="white"/>
</g>
<path d="M57.2089 109.407C57.2516 109.388 57.2885 109.358 57.3158 109.321C57.3431 109.283 57.3596 109.238 57.3638 109.192V108.859L41.2761 99.787C41.1595 99.726 41.0298 99.6942 40.8981 99.6942C40.7665 99.6942 40.6368 99.726 40.5201 99.787L26.0654 108.122L42.7541 117.753L57.2089 109.407Z" fill="#C0CAEF"/>
<path opacity="0.2" d="M57.2089 109.407C57.2516 109.388 57.2885 109.358 57.3158 109.321C57.3431 109.283 57.3596 109.238 57.3638 109.192V108.859L41.2761 99.787C41.1595 99.726 41.0298 99.6942 40.8981 99.6942C40.7665 99.6942 40.6368 99.726 40.5201 99.787L26.0654 108.122L42.7541 117.753L57.2089 109.407Z" fill="black"/>
<path d="M57.2089 109.082C57.4168 108.961 57.4168 108.768 57.2089 108.651L41.2762 99.4507C41.1595 99.3897 41.0298 99.3579 40.8982 99.3579C40.7665 99.3579 40.6368 99.3897 40.5202 99.4507L26.0654 107.801L42.7541 117.428L57.2089 109.082Z" fill="#C0CAEF"/>
<path opacity="0.5" d="M57.2089 109.082C57.4168 108.961 57.4168 108.768 57.2089 108.651L41.2762 99.4507C41.1595 99.3897 41.0298 99.3579 40.8982 99.3579C40.7665 99.3579 40.6368 99.3897 40.5202 99.4507L26.0654 107.801L42.7541 117.428L57.2089 109.082Z" fill="black"/>
<path d="M29.3956 105.616L40.1006 99.4393C40.2172 99.3784 40.3469 99.3466 40.4786 99.3466C40.6102 99.3466 40.7399 99.3784 40.8566 99.4393L55.5532 107.925L56.948 107.113V108.761H56.9216C56.9326 108.789 56.938 108.818 56.9375 108.848C56.937 108.878 56.9306 108.908 56.9186 108.935C56.9067 108.962 56.8894 108.987 56.8679 109.008C56.8463 109.029 56.8209 109.045 56.793 109.056L44.5232 116.162L27.8345 106.519V104.716L29.3956 105.616Z" fill="#EBEBEB"/>
<path d="M56.7855 107.268C56.8309 107.253 56.8704 107.224 56.8984 107.185C56.9264 107.146 56.9415 107.1 56.9415 107.052C56.9415 107.004 56.9264 106.958 56.8984 106.919C56.8704 106.881 56.8309 106.852 56.7855 106.837L40.849 97.64C40.7318 97.5809 40.6023 97.55 40.471 97.55C40.3397 97.55 40.2102 97.5809 40.093 97.64L27.8345 104.716L44.5232 114.344L56.7855 107.268Z" fill="#FAFAFA"/>
<path d="M44.523 114.344V116.147L27.8306 106.519V104.716L44.523 114.344Z" fill="#E6E6E6"/>
<path d="M44.3227 113.641C44.3662 113.665 44.4135 113.682 44.4626 113.69C44.5346 113.707 44.6097 113.707 44.6818 113.69C44.707 113.685 44.7313 113.676 44.7536 113.663C44.8632 113.603 44.8519 113.49 44.7234 113.418C44.6625 113.385 44.5956 113.366 44.5268 113.361C44.4467 113.348 44.3645 113.361 44.2925 113.399C44.2904 113.405 44.2904 113.412 44.2925 113.418C44.1866 113.478 44.2017 113.573 44.3227 113.641Z" fill="#263238"/>
<path d="M42.4366 115.051C42.4262 115.274 42.4929 115.494 42.6256 115.674C42.6897 115.755 42.7715 115.819 42.8645 115.863C42.9576 115.907 43.0595 115.929 43.1624 115.928V115.928C43.3458 115.924 43.5247 115.87 43.6802 115.773C43.7133 115.757 43.745 115.738 43.7747 115.716L43.563 115.595C43.0527 115.882 42.6483 115.64 42.6483 115.051C42.6663 114.73 42.7595 114.417 42.9204 114.139C43.0813 113.861 43.3053 113.624 43.5744 113.448C43.6727 113.371 43.7923 113.327 43.9168 113.321C44.0413 113.315 44.1646 113.347 44.2699 113.414C44.3637 113.481 44.4307 113.578 44.4589 113.69C44.531 113.707 44.6061 113.707 44.6781 113.69C44.654 113.569 44.6008 113.456 44.5232 113.361C44.4596 113.28 44.378 113.215 44.2848 113.171C44.1916 113.127 44.0894 113.105 43.9864 113.108C43.8015 113.113 43.6213 113.168 43.4648 113.266C43.1648 113.462 42.9152 113.725 42.7365 114.035C42.5578 114.345 42.455 114.693 42.4366 115.051V115.051Z" fill="#263238"/>
<path d="M42.9731 113.35L57.3636 106.334V106.568C57.3603 106.633 57.3418 106.696 57.3096 106.753C57.2775 106.809 57.2325 106.857 57.1784 106.893L42.9731 113.697V113.35Z" fill="#C0CAEF"/>
<path opacity="0.2" d="M42.9731 113.35L57.3636 106.334V106.568C57.3603 106.633 57.3418 106.696 57.3096 106.753C57.2775 106.809 57.2325 106.857 57.1784 106.893L42.9731 113.697V113.35Z" fill="black"/>
<path d="M57.2088 106.531C57.2538 106.515 57.2927 106.485 57.3202 106.446C57.3477 106.407 57.3624 106.361 57.3624 106.313C57.3624 106.266 57.3477 106.219 57.3202 106.18C57.2927 106.141 57.2538 106.112 57.2088 106.096L41.2761 96.884C41.1595 96.8231 41.0298 96.7913 40.8981 96.7913C40.7665 96.7913 40.6368 96.8231 40.5201 96.884L26.0654 103.839L42.7541 113.471L57.2088 106.531Z" fill="#C0CAEF"/>
<path d="M42.7541 117.753L26.0654 108.126V103.835L42.7541 113.471V117.753Z" fill="#C0CAEF"/>
<path opacity="0.1" d="M42.7541 117.753L26.0654 108.126V103.835L42.7541 113.471V117.753Z" fill="black"/>
<path d="M39.4617 115.001C39.565 115.003 39.6674 114.981 39.761 114.937C39.8546 114.893 39.9371 114.829 40.0022 114.748C40.1335 114.567 40.2001 114.348 40.1912 114.125C40.1737 113.764 40.0706 113.414 39.8905 113.102C39.7103 112.789 39.4584 112.524 39.1555 112.329C38.9981 112.233 38.8183 112.179 38.6338 112.174C38.1991 112.174 37.9043 112.529 37.9043 113.055C37.9224 113.414 38.0258 113.764 38.2059 114.076C38.386 114.387 38.6376 114.651 38.94 114.847C39.0974 114.943 39.2772 114.996 39.4617 115.001V115.001Z" fill="#455A64"/>
<path d="M39.9761 114.125C39.9761 114.714 39.5603 114.952 39.05 114.658C38.7796 114.483 38.5543 114.246 38.3927 113.968C38.2311 113.689 38.1377 113.376 38.1201 113.055C38.1201 112.461 38.5359 112.223 39.0462 112.518C39.3169 112.694 39.5423 112.931 39.7039 113.21C39.8655 113.489 39.9588 113.802 39.9761 114.125V114.125Z" fill="#F5F5F5"/>
<path d="M36.6118 111.97V112.295C36.6118 112.945 36.1544 113.21 35.5912 112.885L28.3601 108.708C28.0647 108.513 27.8189 108.252 27.6423 107.946C27.4658 107.639 27.3634 107.296 27.3433 106.943V106.621C27.3433 105.971 27.7969 105.707 28.3601 106.032L35.5912 110.208C35.8868 110.402 36.1331 110.662 36.3103 110.968C36.4875 111.274 36.5907 111.617 36.6118 111.97V111.97Z" fill="#F5F5F5"/>
<path d="M42.9769 117.625V113.361L42.7539 113.471V117.753L42.9769 117.625Z" fill="#C0CAEF"/>
<path opacity="0.2" d="M42.9769 117.625V113.361L42.7539 113.471V117.753L42.9769 117.625Z" fill="black"/>
<path d="M26.2202 103.17C26.2252 103.223 26.2425 103.273 26.2708 103.318C26.299 103.363 26.3374 103.4 26.3828 103.427L42.7464 112.877C42.7966 112.903 42.8523 112.917 42.9089 112.917C42.9655 112.917 43.0213 112.903 43.0715 112.877L57.7379 105.461V105.136L41.0567 95.4893L26.3828 102.932C26.3394 102.957 26.3022 102.991 26.274 103.032C26.2458 103.074 26.2274 103.121 26.2202 103.17V103.17Z" fill="#C0CAEF"/>
<path opacity="0.1" d="M42.9089 112.579V112.904C42.8526 112.903 42.7971 112.89 42.7464 112.866L26.3828 103.416C26.338 103.388 26.3001 103.351 26.2719 103.306C26.2437 103.261 26.2261 103.211 26.2202 103.159C26.2258 103.106 26.2433 103.055 26.2715 103.01C26.2996 102.964 26.3377 102.926 26.3828 102.898C26.364 102.906 26.3479 102.919 26.3366 102.936C26.3253 102.952 26.3192 102.972 26.3192 102.992C26.3192 103.013 26.3253 103.033 26.3366 103.049C26.3479 103.066 26.364 103.079 26.3828 103.087L42.7464 112.537C42.7952 112.567 42.8518 112.581 42.9089 112.579V112.579Z" fill="black"/>
<path opacity="0.5" d="M57.738 105.124L43.0753 112.541C43.0244 112.568 42.9669 112.581 42.909 112.578C42.8523 112.582 42.7957 112.569 42.7465 112.541L26.3828 103.091C26.3641 103.083 26.348 103.07 26.3367 103.053C26.3254 103.036 26.3193 103.016 26.3193 102.996C26.3193 102.976 26.3254 102.956 26.3367 102.939C26.348 102.922 26.3641 102.909 26.3828 102.902L41.0568 95.4816L57.738 105.124Z" fill="black"/>
<path opacity="0.2" d="M57.7381 105.124V105.449L43.0755 112.866C43.0245 112.893 42.967 112.906 42.9092 112.904V112.579C42.967 112.581 43.0245 112.568 43.0755 112.541L57.7381 105.124Z" fill="black"/>
<path d="M57.5153 105.253L40.8267 95.6253V91.335L57.5153 101.016V105.253Z" fill="#C0CAEF"/>
<path opacity="0.7" d="M57.5153 105.253L40.8267 95.6253V91.335L57.5153 101.016V105.253Z" fill="black"/>
<path d="M26.4206 100.864C26.3618 100.903 26.313 100.955 26.2782 101.016C26.2434 101.077 26.2235 101.146 26.2202 101.216V102.082C26.2235 102.152 26.2434 102.221 26.2782 102.283C26.313 102.345 26.3617 102.397 26.4206 102.437L42.7048 111.83C42.7682 111.862 42.8381 111.878 42.9089 111.878C42.9798 111.878 43.0496 111.862 43.113 111.83L55.5455 105.106V103.767L38.8605 94.136L26.4206 100.864Z" fill="#EBEBEB"/>
<path d="M38.8608 94.136L26.4208 100.864C26.3968 100.873 26.3761 100.889 26.3614 100.91C26.3467 100.931 26.3389 100.956 26.3389 100.982C26.3389 101.007 26.3467 101.032 26.3614 101.053C26.3761 101.074 26.3968 101.09 26.4208 101.099L42.7051 110.492C42.7685 110.524 42.8384 110.54 42.9092 110.54C42.98 110.54 43.0499 110.524 43.1133 110.492L55.5457 103.767L38.8608 94.136Z" fill="#FAFAFA"/>
<path d="M53.9619 103.873C54.0041 103.897 54.0501 103.914 54.098 103.922C54.1709 103.943 54.2482 103.943 54.321 103.922C54.3451 103.918 54.3681 103.909 54.3891 103.896C54.5025 103.835 54.4873 103.722 54.3588 103.65C54.2982 103.617 54.2311 103.598 54.1623 103.594C54.0834 103.584 54.0034 103.597 53.9317 103.631C53.9268 103.633 53.9223 103.635 53.9184 103.639C53.9145 103.642 53.9113 103.646 53.909 103.65C53.8221 103.711 53.8485 103.805 53.9619 103.873Z" fill="#263238"/>
<path d="M42.9089 110.537V111.875C42.838 111.88 42.7672 111.864 42.7048 111.83L26.4206 102.437C26.362 102.398 26.3134 102.346 26.2786 102.285C26.2438 102.224 26.2238 102.155 26.2202 102.085V101.216C26.2233 101.155 26.2386 101.096 26.2652 101.041C26.2919 100.987 26.3293 100.938 26.3752 100.898C26.3147 100.959 26.3261 101.042 26.4206 101.099L42.7048 110.492C42.7668 110.527 42.8379 110.543 42.9089 110.537V110.537Z" fill="#E6E6E6"/>
<path d="M56.1391 102.017C56.0072 101.949 55.8592 101.917 55.7108 101.926C55.5624 101.934 55.4191 101.983 55.2961 102.066C54.7239 102.478 54.3208 103.084 54.1621 103.771L54.4418 103.813C54.5873 103.205 54.9452 102.668 55.4511 102.301C55.5569 102.235 55.678 102.197 55.8026 102.191C55.8772 102.189 55.9509 102.208 56.0143 102.248C56.1452 102.366 56.2443 102.515 56.3024 102.682C56.3606 102.848 56.3759 103.026 56.347 103.2C56.3205 104.089 55.814 105.09 55.213 105.438C55.0886 105.518 54.9407 105.554 54.7934 105.54L54.491 105.714C54.5969 105.778 54.7185 105.812 54.8425 105.812C55.0165 105.808 55.1861 105.757 55.3339 105.665C56.0181 105.287 56.5775 104.187 56.604 103.197C56.6229 102.641 56.4528 102.206 56.1391 102.017Z" fill="#263238"/>
<path d="M26.2202 100.445C26.2252 100.498 26.2425 100.549 26.2707 100.594C26.2989 100.64 26.3373 100.678 26.3828 100.706L42.7464 110.156C42.7966 110.182 42.8523 110.195 42.9089 110.195C42.9655 110.195 43.0213 110.182 43.0715 110.156L57.7379 101.193V100.868L41.0567 91.214L26.3828 100.188C26.3374 100.215 26.299 100.252 26.2708 100.297C26.2425 100.341 26.2252 100.392 26.2202 100.445V100.445Z" fill="#C0CAEF"/>
<path opacity="0.1" d="M42.9092 109.857V110.182C42.8529 110.182 42.7974 110.169 42.7467 110.144L26.3831 100.694C26.3343 100.671 26.2931 100.634 26.2643 100.588C26.2355 100.542 26.2202 100.489 26.2202 100.435C26.2202 100.381 26.2355 100.328 26.2643 100.282C26.2931 100.237 26.3343 100.2 26.3831 100.176C26.3643 100.184 26.3482 100.197 26.3369 100.214C26.3256 100.231 26.3195 100.251 26.3195 100.271C26.3195 100.291 26.3256 100.311 26.3369 100.328C26.3482 100.345 26.3643 100.358 26.3831 100.365L42.7467 109.815C42.7955 109.845 42.8521 109.86 42.9092 109.857V109.857Z" fill="black"/>
<path d="M57.738 100.857L43.0753 109.819C43.0244 109.847 42.9669 109.86 42.909 109.857C42.8523 109.861 42.7957 109.848 42.7465 109.819L26.3828 100.369C26.3641 100.361 26.348 100.348 26.3367 100.332C26.3254 100.315 26.3193 100.295 26.3193 100.275C26.3193 100.254 26.3254 100.235 26.3367 100.218C26.348 100.201 26.3641 100.188 26.3828 100.18L41.0568 91.214L57.738 100.857Z" fill="#C0CAEF"/>
<path opacity="0.2" d="M57.7381 100.857V101.182L43.0755 110.144C43.0237 110.169 42.9668 110.182 42.9092 110.182V109.857C42.967 109.86 43.0245 109.847 43.0755 109.819L57.7381 100.857Z" fill="black"/>
<path d="M57.7382 105.124V100.86L57.5151 101.015V105.253L57.7382 105.124Z" fill="#C0CAEF"/>
<path opacity="0.2" d="M57.7382 105.124V100.86L57.5151 101.015V105.253L57.7382 105.124Z" fill="black"/>
<path d="M57.2089 100.789C57.2521 100.771 57.2895 100.741 57.3168 100.703C57.3442 100.665 57.3605 100.62 57.3638 100.573V100.241L41.2761 91.1687C41.1589 91.1095 41.0295 91.0787 40.8981 91.0787C40.7668 91.0787 40.6374 91.1095 40.5201 91.1687L26.0654 99.5074L42.7541 109.135L57.2089 100.789Z" fill="#C0CAEF"/>
<path opacity="0.2" d="M57.2089 100.789C57.2521 100.771 57.2895 100.741 57.3168 100.703C57.3442 100.665 57.3605 100.62 57.3638 100.573V100.241L41.2761 91.1687C41.1589 91.1095 41.0295 91.0787 40.8981 91.0787C40.7668 91.0787 40.6374 91.1095 40.5201 91.1687L26.0654 99.5074L42.7541 109.135L57.2089 100.789Z" fill="black"/>
<path d="M57.2088 100.467C57.2538 100.452 57.2927 100.422 57.3202 100.383C57.3477 100.344 57.3624 100.298 57.3624 100.25C57.3624 100.202 57.3477 100.156 57.3202 100.117C57.2927 100.078 57.2538 100.049 57.2088 100.033L41.2761 90.8361C41.1595 90.7751 41.0298 90.7433 40.8981 90.7433C40.7665 90.7433 40.6368 90.7751 40.5201 90.8361L26.0654 99.1823L42.7541 108.814L57.2088 100.467Z" fill="#C0CAEF"/>
<path opacity="0.5" d="M57.2088 100.467C57.2538 100.452 57.2927 100.422 57.3202 100.383C57.3477 100.344 57.3624 100.298 57.3624 100.25C57.3624 100.202 57.3477 100.156 57.3202 100.117C57.2927 100.078 57.2538 100.049 57.2088 100.033L41.2761 90.8361C41.1595 90.7751 41.0298 90.7433 40.8981 90.7433C40.7665 90.7433 40.6368 90.7751 40.5201 90.8361L26.0654 99.1823L42.7541 108.814L57.2088 100.467Z" fill="black"/>
<path d="M29.3956 97.0012L40.1006 90.8361C40.2172 90.7751 40.3469 90.7433 40.4786 90.7433C40.6102 90.7433 40.7399 90.7751 40.8566 90.8361L55.5532 99.3184L56.948 98.5094V100.158H56.9216C56.9326 100.185 56.938 100.215 56.9375 100.245C56.937 100.275 56.9306 100.304 56.9186 100.332C56.9067 100.359 56.8894 100.384 56.8679 100.405C56.8463 100.425 56.8209 100.442 56.793 100.452L44.5232 107.532L27.8345 97.9047V96.1016L29.3956 97.0012Z" fill="#EBEBEB"/>
<path d="M56.7855 98.653C56.8309 98.6381 56.8704 98.6093 56.8984 98.5706C56.9264 98.5319 56.9415 98.4854 56.9415 98.4376C56.9415 98.3898 56.9264 98.3433 56.8984 98.3046C56.8704 98.2659 56.8309 98.237 56.7855 98.2221L40.849 89.0216C40.7318 88.9625 40.6023 88.9316 40.471 88.9316C40.3397 88.9316 40.2102 88.9625 40.093 89.0216L27.8345 96.1015L44.5232 105.729L56.7855 98.653Z" fill="#FAFAFA"/>
<path d="M44.523 105.729V107.532L27.8306 97.9008V96.1016L44.523 105.729Z" fill="#E6E6E6"/>
<path d="M44.3227 105.026C44.3669 105.049 44.414 105.065 44.4626 105.075C44.5344 105.094 44.61 105.094 44.6818 105.075C44.7068 105.072 44.7311 105.064 44.7536 105.053C44.8632 104.992 44.8519 104.879 44.7234 104.803C44.6623 104.772 44.5953 104.754 44.5268 104.75C44.4467 104.737 44.3645 104.751 44.2925 104.788C44.1866 104.864 44.2017 104.958 44.3227 105.026Z" fill="#263238"/>
<path d="M42.4369 106.436C42.4277 106.659 42.4943 106.879 42.6259 107.06C42.69 107.14 42.7718 107.205 42.8648 107.249C42.9579 107.293 43.0598 107.315 43.1626 107.313V107.313C43.3458 107.307 43.5243 107.254 43.6805 107.158C43.7107 107.139 43.7447 107.124 43.775 107.101L43.5633 106.98C43.053 107.268 42.6486 107.026 42.6486 106.436C42.6644 106.113 42.7569 105.797 42.9186 105.517C43.0803 105.236 43.3065 104.998 43.5784 104.822C43.6768 104.746 43.796 104.701 43.9203 104.695C44.0445 104.688 44.1679 104.719 44.2739 104.784C44.3685 104.852 44.4356 104.951 44.4629 105.064C44.5348 105.083 44.6104 105.083 44.6822 105.064C44.6587 104.944 44.6054 104.832 44.5272 104.739C44.4636 104.658 44.382 104.593 44.2888 104.549C44.1956 104.505 44.0935 104.483 43.9904 104.486C43.8061 104.491 43.6264 104.545 43.4688 104.641C43.1666 104.836 42.9154 105.101 42.7359 105.414C42.5565 105.726 42.454 106.076 42.4369 106.436Z" fill="#263238"/>
<path d="M42.9731 104.735L57.3636 97.7004V97.9348C57.3597 97.9996 57.341 98.0625 57.3089 98.1189C57.2767 98.1753 57.2321 98.2235 57.1784 98.2599L42.9731 105.064V104.735Z" fill="#C0CAEF"/>
<path opacity="0.2" d="M42.9731 104.735L57.3636 97.7004V97.9348C57.3597 97.9996 57.341 98.0625 57.3089 98.1189C57.2767 98.1753 57.2321 98.2235 57.1784 98.2599L42.9731 105.064V104.735Z" fill="black"/>
<path d="M57.2089 97.9122C57.4168 97.795 57.4168 97.6022 57.2089 97.4813L41.2762 88.2808C41.1589 88.2216 41.0295 88.1908 40.8982 88.1908C40.7669 88.1908 40.6374 88.2216 40.5202 88.2808L26.0654 95.2246L42.7541 104.852L57.2089 97.9122Z" fill="#C0CAEF"/>
<path d="M42.7541 109.135L26.0654 99.5073V95.2208L42.7541 104.856V109.135Z" fill="#C0CAEF"/>
<path opacity="0.1" d="M42.7541 109.135L26.0654 99.5073V95.2208L42.7541 104.856V109.135Z" fill="black"/>
<path d="M39.4617 106.387C39.5654 106.388 39.6682 106.366 39.7619 106.322C39.8556 106.277 39.9378 106.211 40.0022 106.13C40.1343 105.95 40.201 105.73 40.1912 105.506C40.1731 105.147 40.0697 104.797 39.8896 104.485C39.7095 104.174 39.4579 103.91 39.1555 103.715C38.9981 103.618 38.8183 103.565 38.6338 103.56C38.1991 103.56 37.9043 103.911 37.9043 104.437C37.9218 104.797 38.0249 105.147 38.205 105.46C38.3852 105.772 38.6371 106.037 38.94 106.232C39.0974 106.328 39.2772 106.382 39.4617 106.387Z" fill="#455A64"/>
<path d="M39.9761 105.51C39.9761 106.1 39.5603 106.338 39.05 106.043C38.7803 105.868 38.5555 105.632 38.3939 105.355C38.2324 105.077 38.1386 104.765 38.1201 104.444C38.1201 103.854 38.5359 103.616 39.0462 103.911C39.3159 104.086 39.5407 104.322 39.7023 104.599C39.8638 104.877 39.9576 105.189 39.9761 105.51Z" fill="#F5F5F5"/>
<path d="M36.6118 103.355V103.688C36.6118 104.338 36.1544 104.599 35.5912 104.274L28.3601 100.116C28.0647 99.9213 27.8189 99.6603 27.6423 99.3538C27.4658 99.0473 27.3634 98.7038 27.3433 98.3506V98.018C27.3433 97.3716 27.7969 97.107 28.3601 97.4321L35.5912 101.59C35.8888 101.783 36.1365 102.043 36.3139 102.35C36.4913 102.657 36.5934 103.001 36.6118 103.355Z" fill="#F5F5F5"/>
<path d="M42.9769 109.01V104.746L42.7539 104.856V109.135L42.9769 109.01Z" fill="#C0CAEF"/>
<path opacity="0.2" d="M42.9769 109.01V104.746L42.7539 104.856V109.135L42.9769 109.01Z" fill="black"/>
<path d="M26.2202 94.2985C26.2252 94.3511 26.2425 94.4018 26.2708 94.4464C26.299 94.4911 26.3374 94.5285 26.3828 94.5555L42.7464 104.006C42.7971 104.03 42.8527 104.042 42.9089 104.042C42.9652 104.042 43.0207 104.03 43.0715 104.006L57.7379 96.5854V96.2603L41.0567 86.6213L26.3828 94.0415C26.3374 94.0685 26.299 94.1059 26.2708 94.1506C26.2425 94.1952 26.2252 94.2459 26.2202 94.2985V94.2985Z" fill="#C0CAEF"/>
<path opacity="0.1" d="M42.9093 103.711V104.032C42.8533 104.033 42.7978 104.021 42.7468 103.998L26.3831 94.548C26.3342 94.5252 26.2927 94.4889 26.2637 94.4434C26.2347 94.3979 26.2192 94.345 26.2192 94.291C26.2192 94.237 26.2347 94.1841 26.2637 94.1386C26.2927 94.093 26.3342 94.0567 26.3831 94.0339C26.364 94.0407 26.3475 94.0533 26.3358 94.0699C26.324 94.0865 26.3178 94.1062 26.3178 94.1265C26.3178 94.1468 26.324 94.1666 26.3358 94.1832C26.3475 94.1998 26.364 94.2124 26.3831 94.2192L42.7468 103.669C42.7963 103.697 42.8524 103.712 42.9093 103.711V103.711Z" fill="black"/>
<path opacity="0.5" d="M57.7379 96.2527L43.0752 103.688C43.0234 103.713 42.9665 103.726 42.9089 103.726C42.8524 103.728 42.7963 103.715 42.7464 103.688L26.3828 94.2379C26.3636 94.2311 26.3471 94.2186 26.3354 94.202C26.3237 94.1854 26.3174 94.1656 26.3174 94.1453C26.3174 94.125 26.3237 94.1052 26.3354 94.0886C26.3471 94.072 26.3636 94.0595 26.3828 94.0527L41.0567 86.6326L57.7379 96.2527Z" fill="black"/>
<path opacity="0.2" d="M57.7381 96.2527V96.5778L43.0755 103.998C43.0236 104.023 42.9666 104.034 42.9092 104.032V103.711C42.9668 103.711 43.0237 103.698 43.0755 103.673L57.7381 96.2527Z" fill="black"/>
<path d="M57.5153 96.3812L40.8267 86.7536V82.4633L57.5153 92.1438V96.3812Z" fill="#C0CAEF"/>
<path opacity="0.7" d="M57.5153 96.3812L40.8267 86.7536V82.4633L57.5153 92.1438V96.3812Z" fill="black"/>
<path d="M26.4206 91.9927C26.3622 92.0318 26.3138 92.0839 26.279 92.1449C26.2443 92.2059 26.2241 92.2741 26.2202 92.3442V93.2136C26.2241 93.2837 26.2443 93.352 26.279 93.413C26.3138 93.474 26.3622 93.5261 26.4206 93.5652L42.7048 102.958C42.7682 102.99 42.8381 103.007 42.9089 103.007C42.9798 103.007 43.0496 102.99 43.113 102.958L55.5455 96.2338V94.8957L38.8605 85.2643L26.4206 91.9927Z" fill="#EBEBEB"/>
<path d="M38.8608 85.2643L26.4208 91.9927C26.3968 92.0014 26.3761 92.0174 26.3614 92.0384C26.3467 92.0593 26.3389 92.0843 26.3389 92.1099C26.3389 92.1354 26.3467 92.1604 26.3614 92.1814C26.3761 92.2023 26.3968 92.2183 26.4208 92.227L42.7051 101.62C42.7685 101.652 42.8384 101.668 42.9092 101.668C42.98 101.668 43.0499 101.652 43.1133 101.62L55.5457 94.8957L38.8608 85.2643Z" fill="#FAFAFA"/>
<path d="M53.9619 94.9941C54.005 95.0153 54.0508 95.0306 54.098 95.0394C54.1709 95.0603 54.2482 95.0603 54.321 95.0394C54.3455 95.0363 54.3689 95.0272 54.3891 95.0129C54.5025 94.9525 54.4873 94.8429 54.3588 94.7673C54.2982 94.7343 54.2311 94.715 54.1623 94.7106C54.0829 94.6996 54.0022 94.7142 53.9317 94.7521C53.9244 94.7495 53.9164 94.7495 53.909 94.7521C53.8221 94.8391 53.8485 94.9336 53.9619 94.9941Z" fill="#263238"/>
<path d="M42.9089 101.666V103.008C42.8376 103.011 42.7668 102.994 42.7048 102.958L26.4206 93.5652C26.3616 93.5268 26.3127 93.4748 26.2778 93.4137C26.243 93.3525 26.2232 93.284 26.2202 93.2137V92.348C26.2233 92.2879 26.2387 92.2291 26.2654 92.1752C26.292 92.1212 26.3294 92.0733 26.3752 92.0343C26.3147 92.0948 26.3261 92.1742 26.4206 92.2309L42.7048 101.62C42.7668 101.656 42.8379 101.671 42.9089 101.666V101.666Z" fill="#E6E6E6"/>
<path d="M56.1391 93.1494C56.0078 93.0787 55.8595 93.0459 55.7106 93.0546C55.5618 93.0633 55.4183 93.1131 55.2961 93.1985C54.7231 93.6097 54.3199 94.2159 54.1621 94.9033L54.4418 94.9449C54.5891 94.3375 54.9467 93.8019 55.4511 93.4329C55.5569 93.3667 55.678 93.329 55.8026 93.3233C55.8775 93.3233 55.9508 93.3442 56.0143 93.3837C56.1449 93.5013 56.2438 93.6498 56.302 93.8156C56.3601 93.9814 56.3756 94.1592 56.347 94.3325C56.3205 95.2208 55.814 96.2225 55.213 96.5703C55.0893 96.6523 54.9409 96.6884 54.7934 96.6723L54.491 96.8462C54.5969 96.9106 54.7185 96.9446 54.8425 96.9445C55.0165 96.9399 55.1861 96.889 55.3339 96.7971C56.0181 96.4191 56.5775 95.3191 56.604 94.3287C56.6229 93.7731 56.4528 93.3346 56.1391 93.1494Z" fill="#263238"/>
<path d="M26.2202 91.5921C26.2252 91.6447 26.2425 91.6954 26.2708 91.74C26.299 91.7847 26.3374 91.822 26.3828 91.8491L42.7464 101.299C42.7966 101.325 42.8523 101.339 42.9089 101.339C42.9655 101.339 43.0213 101.325 43.0715 101.299L57.7379 92.3367V91.9701L41.0567 82.3538L26.3828 91.3199C26.3349 91.3479 26.2949 91.3875 26.2665 91.4351C26.2381 91.4827 26.2222 91.5367 26.2202 91.5921V91.5921Z" fill="#C0CAEF"/>
<path opacity="0.1" d="M42.9092 100.985V101.31C42.8529 101.31 42.7974 101.297 42.7467 101.273L26.3831 91.8225C26.3343 91.7991 26.2931 91.7624 26.2643 91.7166C26.2355 91.6707 26.2202 91.6177 26.2202 91.5636C26.2202 91.5095 26.2355 91.4565 26.2643 91.4107C26.2931 91.3649 26.3343 91.3281 26.3831 91.3047C26.3643 91.3123 26.3482 91.3254 26.3369 91.3423C26.3256 91.3591 26.3195 91.3789 26.3195 91.3992C26.3195 91.4195 26.3256 91.4393 26.3369 91.4561C26.3482 91.4729 26.3643 91.486 26.3831 91.4937L42.7467 100.944C42.7955 100.973 42.8521 100.988 42.9092 100.985Z" fill="black"/>
<path d="M57.738 91.9699L43.0753 100.947C43.0244 100.975 42.9669 100.988 42.909 100.985C42.8523 100.989 42.7957 100.976 42.7465 100.947L26.3828 91.4974C26.3641 91.4898 26.348 91.4767 26.3367 91.4599C26.3254 91.443 26.3193 91.4232 26.3193 91.4029C26.3193 91.3827 26.3254 91.3628 26.3367 91.346C26.348 91.3292 26.3641 91.3161 26.3828 91.3084L41.0568 82.3461L57.738 91.9699Z" fill="#C0CAEF"/>
<path opacity="0.2" d="M57.7381 91.97V92.295L43.0755 101.273C43.0245 101.3 42.967 101.313 42.9092 101.31V100.985C42.967 100.988 43.0245 100.975 43.0755 100.947L57.7381 91.97Z" fill="black"/>
<path d="M57.7382 96.2527V91.9927L57.5151 92.1439V96.3813L57.7382 96.2527Z" fill="#C0CAEF"/>
<path opacity="0.2" d="M57.7382 96.2527V91.9927L57.5151 92.1439V96.3813L57.7382 96.2527Z" fill="black"/>
<path d="M57.2089 91.9209C57.2516 91.9021 57.2885 91.8722 57.3158 91.8343C57.3431 91.7964 57.3596 91.7519 57.3638 91.7054V91.3728L41.2761 82.3008C41.1595 82.2398 41.0298 82.208 40.8981 82.208C40.7665 82.208 40.6368 82.2398 40.5201 82.3008L26.0654 90.6395L42.7541 100.286L57.2089 91.9209Z" fill="#C0CAEF"/>
<path opacity="0.2" d="M57.2089 91.9209C57.2516 91.9021 57.2885 91.8722 57.3158 91.8343C57.3431 91.7964 57.3596 91.7519 57.3638 91.7054V91.3728L41.2761 82.3008C41.1595 82.2398 41.0298 82.208 40.8981 82.208C40.7665 82.208 40.6368 82.2398 40.5201 82.3008L26.0654 90.6395L42.7541 100.286L57.2089 91.9209Z" fill="black"/>
<path d="M57.2089 91.592C57.4168 91.4711 57.4168 91.2783 57.2089 91.1611L41.2762 81.9644C41.1595 81.9034 41.0298 81.8716 40.8982 81.8716C40.7665 81.8716 40.6368 81.9034 40.5202 81.9644L26.0654 90.3144L42.7541 99.942L57.2089 91.592Z" fill="#C0CAEF"/>
<path opacity="0.5" d="M57.2089 91.592C57.4168 91.4711 57.4168 91.2783 57.2089 91.1611L41.2762 81.9644C41.1595 81.9034 41.0298 81.8716 40.8982 81.8716C40.7665 81.8716 40.6368 81.9034 40.5202 81.9644L26.0654 90.3144L42.7541 99.942L57.2089 91.592Z" fill="black"/>
<path d="M29.3956 88.1295L40.1006 81.953C40.2173 81.8921 40.3469 81.8602 40.4786 81.8602C40.6102 81.8602 40.7399 81.8921 40.8566 81.953L55.5457 90.458L56.9405 89.6453V91.2934H56.914C56.925 91.3212 56.9304 91.3509 56.9299 91.3808C56.9294 91.4106 56.923 91.4401 56.9111 91.4675C56.8991 91.4949 56.8819 91.5197 56.8603 91.5404C56.8388 91.5611 56.8133 91.5774 56.7855 91.5882L44.5232 98.6606L27.8345 89.0329V87.2299L29.3956 88.1295Z" fill="#EBEBEB"/>
<path d="M56.7855 89.7814C56.8309 89.7665 56.8704 89.7377 56.8984 89.699C56.9264 89.6603 56.9415 89.6138 56.9415 89.566C56.9415 89.5182 56.9264 89.4717 56.8984 89.433C56.8704 89.3943 56.8309 89.3655 56.7855 89.3505L40.849 80.15C40.7318 80.0909 40.6023 80.0601 40.471 80.0601C40.3397 80.0601 40.2102 80.0909 40.093 80.15L27.8345 87.23L44.5232 96.8576L56.7855 89.7814Z" fill="#FAFAFA"/>
<path d="M44.523 96.8575V98.6606L27.8306 89.0329V87.2299L44.523 96.8575Z" fill="#E6E6E6"/>
<path d="M44.3227 96.1544C44.3662 96.1786 44.4135 96.1953 44.4626 96.2036C44.5346 96.2206 44.6097 96.2206 44.6818 96.2036C44.707 96.1988 44.7313 96.1898 44.7536 96.1771C44.8632 96.1166 44.8519 96.0032 44.7234 95.9314C44.6625 95.8991 44.5956 95.8797 44.5268 95.8747C44.4467 95.8647 44.3654 95.8778 44.2925 95.9125C44.2904 95.9187 44.2904 95.9253 44.2925 95.9314C44.1866 95.9919 44.2017 96.0864 44.3227 96.1544Z" fill="#263238"/>
<path d="M42.4366 97.5645C42.4262 97.7879 42.4929 98.0081 42.6256 98.1882C42.6897 98.2686 42.7715 98.3333 42.8645 98.3772C42.9576 98.4211 43.0595 98.4431 43.1624 98.4414V98.4414C43.3458 98.4374 43.5247 98.3839 43.6802 98.2864C43.7133 98.2704 43.745 98.2514 43.7747 98.2297L43.563 98.1088C43.0527 98.3961 42.6483 98.1541 42.6483 97.5645C42.6663 97.2434 42.7595 96.9312 42.9204 96.6528C43.0813 96.3744 43.3053 96.1377 43.5744 95.9617C43.6731 95.8861 43.7926 95.8423 43.9168 95.8362C44.0411 95.8302 44.1642 95.8621 44.2699 95.9277C44.3637 95.9943 44.4307 96.0921 44.4589 96.2037C44.531 96.2207 44.6061 96.2207 44.6781 96.2037C44.654 96.0831 44.6008 95.9702 44.5232 95.8748C44.4596 95.7937 44.378 95.7286 44.2848 95.6846C44.1916 95.6406 44.0894 95.619 43.9864 95.6215C43.8015 95.6269 43.6213 95.6817 43.4648 95.7803C43.1648 95.9755 42.9152 96.2389 42.7365 96.549C42.5578 96.8591 42.455 97.207 42.4366 97.5645V97.5645Z" fill="#263238"/>
<path d="M42.9731 95.8634L57.3636 88.8289V89.0632C57.3603 89.1281 57.3418 89.1913 57.3096 89.2478C57.2775 89.3042 57.2325 89.3524 57.1784 89.3883L42.9731 96.1923V95.8634Z" fill="#C0CAEF"/>
<path opacity="0.2" d="M42.9731 95.8634L57.3636 88.8289V89.0632C57.3603 89.1281 57.3418 89.1913 57.3096 89.2478C57.2775 89.3042 57.2325 89.3524 57.1784 89.3883L42.9731 96.1923V95.8634Z" fill="black"/>
<path d="M57.2088 89.0443C57.2538 89.0284 57.2927 88.9989 57.3202 88.96C57.3477 88.9211 57.3624 88.8746 57.3624 88.8269C57.3624 88.7793 57.3477 88.7328 57.3202 88.6938C57.2927 88.6549 57.2538 88.6255 57.2088 88.6096L41.2761 79.4128C41.1595 79.3519 41.0298 79.3201 40.8981 79.3201C40.7665 79.3201 40.6368 79.3519 40.5201 79.4128L26.0654 86.3529L42.7541 95.9843L57.2088 89.0443Z" fill="#C0CAEF"/>
<path d="M42.7541 100.267L26.0654 90.6394V86.3491L42.7541 95.9843V100.267Z" fill="#C0CAEF"/>
<path opacity="0.1" d="M42.7541 100.267L26.0654 90.6394V86.3491L42.7541 95.9843V100.267Z" fill="black"/>
<path d="M39.4617 97.5153C39.565 97.5167 39.6674 97.4946 39.761 97.4507C39.8546 97.4069 39.9371 97.3424 40.0022 97.2621C40.1335 97.0813 40.2001 96.8616 40.1912 96.6384C40.1731 96.279 40.0697 95.929 39.8896 95.6175C39.7095 95.3059 39.4579 95.0417 39.1555 94.8466C38.9991 94.7477 38.8188 94.6929 38.6338 94.6879C38.1991 94.6879 37.9043 95.0432 37.9043 95.5686C37.9224 95.928 38.0258 96.2779 38.2059 96.5895C38.386 96.901 38.6376 97.1653 38.94 97.3603C39.0974 97.4566 39.2772 97.51 39.4617 97.5153V97.5153Z" fill="#455A64"/>
<path d="M39.9761 96.6383C39.9761 97.2279 39.5603 97.4661 39.05 97.1712C38.7796 96.9964 38.5543 96.76 38.3927 96.4815C38.2311 96.2029 38.1377 95.8901 38.1201 95.5685C38.1201 94.9751 38.5359 94.7369 39.0462 95.0318C39.3169 95.2072 39.5423 95.4442 39.7039 95.7234C39.8655 96.0026 39.9588 96.3161 39.9761 96.6383V96.6383Z" fill="#F5F5F5"/>
<path d="M36.6118 94.4836V94.8087C36.6118 95.4589 36.1544 95.7235 35.5912 95.3984L28.3601 91.2139C28.0647 91.0194 27.8189 90.7584 27.6423 90.4519C27.4658 90.1454 27.3634 89.8018 27.3433 89.4487V89.1274C27.3433 88.4772 27.7969 88.2126 28.3601 88.5377L35.5912 92.7259C35.8863 92.9193 36.1323 93.1789 36.3094 93.4841C36.4866 93.7892 36.5902 94.1315 36.6118 94.4836V94.4836Z" fill="#F5F5F5"/>
<path d="M42.9769 100.139V95.8748L42.7539 95.9844V100.267L42.9769 100.139Z" fill="#C0CAEF"/>
<path opacity="0.2" d="M42.9769 100.139V95.8748L42.7539 95.9844V100.267L42.9769 100.139Z" fill="black"/>
<path d="M47.0366 119.144L64.2205 129.082V118.543L47.0366 108.602V119.144Z" fill="#EBEBEB"/>
<path d="M76.1315 122.206L64.2207 129.082V118.543L76.1315 111.668V122.206Z" fill="#F5F5F5"/>
<path d="M47.0366 108.602L58.9474 101.726L76.1313 111.668L64.2205 118.543L47.0366 108.602Z" fill="#FAFAFA"/>
<path opacity="0.1" d="M55.9912 117.319L64.2203 122.07L69.157 119.22L64.2203 122.365L55.9912 117.319Z" fill="black"/>
<path opacity="0.1" d="M51.0547 117.122L64.2204 124.724L74.0938 119.024L64.2204 125.011L51.0547 117.122Z" fill="black"/>
<path opacity="0.1" d="M48.6882 112.514C48.5465 113.278 48.5008 114.056 48.5521 114.831C48.5521 114.831 50.7067 114.778 54.3431 115.78L48.6882 112.514Z" fill="black"/>
<path d="M48.6884 112.514L54.3433 115.78L48.0874 113.973L48.6884 112.514Z" fill="#FAFAFA"/>
<path opacity="0.1" d="M55.9912 121.624L62.1904 127.328C62.1904 127.328 62.3643 126.542 63.555 125.99L55.9912 121.624Z" fill="black"/>
<path d="M55.9912 121.624L61.8124 126.531L63.555 125.99L55.9912 121.624Z" fill="#FAFAFA"/>
<path opacity="0.1" d="M74.1467 115.856C74.1309 115.829 74.1132 115.804 74.0938 115.78L70.1777 118.048L74.5852 117.67C74.6616 117.032 74.5059 116.388 74.1467 115.856Z" fill="black"/>
<path d="M70.1777 118.044L74.0938 115.78L75.3979 116.468L70.1777 118.044Z" fill="#FAFAFA"/>
<g opacity="0.3">
<path opacity="0.3" d="M50.0682 109.335C50.0345 109.336 50.0015 109.325 49.9746 109.305C49.9477 109.284 49.9283 109.256 49.9197 109.223C49.911 109.19 49.9134 109.156 49.9266 109.125C49.9399 109.094 49.9631 109.068 49.9926 109.052L59.8659 103.352C59.8833 103.341 59.9024 103.335 59.9223 103.332C59.9422 103.33 59.9624 103.331 59.9818 103.336C60.0011 103.342 60.0192 103.351 60.035 103.363C60.0508 103.375 60.064 103.391 60.0738 103.408C60.0932 103.444 60.0981 103.485 60.0875 103.524C60.077 103.562 60.0517 103.596 60.0171 103.616L50.1438 109.316C50.1207 109.329 50.0946 109.336 50.0682 109.335V109.335Z" fill="#455A64"/>
<path opacity="0.3" d="M51.709 110.288C51.6824 110.287 51.6565 110.28 51.6334 110.266C51.6103 110.253 51.5909 110.235 51.5767 110.212C51.5666 110.195 51.56 110.176 51.5574 110.156C51.5548 110.136 51.5562 110.116 51.5615 110.096C51.5668 110.077 51.5758 110.059 51.5882 110.043C51.6005 110.027 51.6159 110.014 51.6334 110.004L61.5067 104.3C61.5412 104.286 61.5795 104.285 61.6147 104.297C61.6499 104.309 61.6796 104.334 61.6984 104.366C61.7172 104.398 61.7239 104.436 61.7171 104.472C61.7104 104.509 61.6907 104.542 61.6617 104.565L51.7846 110.265C51.7622 110.28 51.7358 110.288 51.709 110.288V110.288Z" fill="#455A64"/>
<path opacity="0.3" d="M53.3531 111.248C53.3269 111.248 53.3012 111.241 53.2786 111.228C53.256 111.214 53.2374 111.195 53.2246 111.172C53.2144 111.155 53.2076 111.136 53.2047 111.117C53.2018 111.097 53.2029 111.077 53.2078 111.057C53.2127 111.038 53.2214 111.02 53.2334 111.004C53.2453 110.988 53.2603 110.975 53.2775 110.965L63.1547 105.264C63.1718 105.252 63.1912 105.244 63.2117 105.24C63.2322 105.236 63.2533 105.237 63.2736 105.241C63.2939 105.246 63.3131 105.255 63.3299 105.267C63.3467 105.279 63.3608 105.295 63.3713 105.313C63.3817 105.331 63.3883 105.351 63.3907 105.372C63.3931 105.392 63.3911 105.413 63.385 105.433C63.3788 105.453 63.3686 105.472 63.355 105.487C63.3414 105.503 63.3247 105.516 63.3059 105.525L53.4325 111.218C53.4084 111.233 53.3814 111.244 53.3531 111.248V111.248Z" fill="#455A64"/>
<path opacity="0.3" d="M55.0013 112.185C54.9676 112.186 54.9346 112.175 54.9077 112.155C54.8808 112.135 54.8615 112.106 54.8528 112.073C54.8441 112.041 54.8465 112.006 54.8597 111.975C54.873 111.944 54.8962 111.918 54.9257 111.902L64.8104 106.202C64.8455 106.182 64.8871 106.176 64.9261 106.187C64.9651 106.198 64.9982 106.223 65.0183 106.258C65.0383 106.294 65.0436 106.335 65.033 106.374C65.0224 106.413 64.9967 106.446 64.9616 106.466L55.0882 112.167C55.0623 112.183 55.0316 112.189 55.0013 112.185V112.185Z" fill="#455A64"/>
<path opacity="0.3" d="M56.6453 113.138C56.6116 113.139 56.5787 113.128 56.5518 113.107C56.5248 113.087 56.5055 113.058 56.4968 113.026C56.4881 112.993 56.4906 112.959 56.5038 112.928C56.517 112.897 56.5402 112.871 56.5697 112.855L66.4469 107.154C66.464 107.142 66.4835 107.134 66.5039 107.13C66.5244 107.126 66.5455 107.127 66.5658 107.131C66.5862 107.136 66.6053 107.145 66.6222 107.157C66.639 107.169 66.653 107.185 66.6635 107.203C66.674 107.221 66.6806 107.241 66.6829 107.262C66.6853 107.282 66.6833 107.303 66.6772 107.323C66.671 107.343 66.6608 107.362 66.6472 107.377C66.6336 107.393 66.6169 107.406 66.5981 107.415L56.7209 113.115C56.6985 113.13 56.6722 113.138 56.6453 113.138V113.138Z" fill="#455A64"/>
<path opacity="0.3" d="M58.2938 114.087C58.26 114.087 58.2271 114.077 58.2002 114.056C58.1733 114.036 58.1539 114.007 58.1452 113.974C58.1366 113.942 58.139 113.907 58.1522 113.876C58.1654 113.845 58.1887 113.82 58.2182 113.803L68.0915 108.103C68.1266 108.083 68.1682 108.078 68.2072 108.088C68.2462 108.099 68.2794 108.125 68.2994 108.16C68.3195 108.195 68.3248 108.236 68.3141 108.275C68.3035 108.314 68.2778 108.348 68.2427 108.368L58.3845 114.068C58.3575 114.085 58.3253 114.092 58.2938 114.087Z" fill="#455A64"/>
<path opacity="0.3" d="M59.9375 115.028C59.9109 115.027 59.885 115.02 59.8619 115.007C59.8389 114.993 59.8194 114.975 59.8052 114.952C59.7951 114.935 59.7886 114.916 59.786 114.896C59.7833 114.876 59.7847 114.856 59.79 114.837C59.7953 114.817 59.8043 114.799 59.8167 114.783C59.829 114.767 59.8444 114.754 59.8619 114.744L69.7239 109.052C69.7584 109.038 69.7967 109.037 69.8319 109.049C69.8671 109.061 69.8968 109.085 69.9156 109.117C69.9344 109.149 69.941 109.187 69.9343 109.224C69.9275 109.26 69.9079 109.293 69.8789 109.316L60.0131 115.028C59.9884 115.035 59.9622 115.035 59.9375 115.028V115.028Z" fill="#455A64"/>
<path opacity="0.3" d="M61.5859 115.988C61.5591 115.989 61.5325 115.982 61.5092 115.969C61.4859 115.955 61.4667 115.936 61.4536 115.913C61.4434 115.895 61.4366 115.876 61.4337 115.857C61.4308 115.837 61.4319 115.817 61.4368 115.798C61.4417 115.778 61.4504 115.76 61.4624 115.744C61.4743 115.728 61.4893 115.715 61.5065 115.705L71.3837 110.004C71.4008 109.993 71.4203 109.984 71.4407 109.98C71.4612 109.976 71.4823 109.977 71.5026 109.981C71.523 109.986 71.5421 109.995 71.5589 110.007C71.5758 110.019 71.5898 110.035 71.6003 110.053C71.6107 110.071 71.6174 110.091 71.6197 110.112C71.6221 110.133 71.6201 110.153 71.614 110.173C71.6078 110.193 71.5976 110.212 71.584 110.228C71.5704 110.243 71.5537 110.256 71.5349 110.265L61.6615 115.969C61.6378 115.98 61.6121 115.987 61.5859 115.988V115.988Z" fill="#455A64"/>
<path opacity="0.3" d="M63.2298 116.937C63.1961 116.937 63.1631 116.927 63.1362 116.906C63.1093 116.886 63.09 116.857 63.0813 116.825C63.0726 116.792 63.075 116.757 63.0883 116.726C63.1015 116.695 63.1247 116.67 63.1542 116.653L73.0276 110.953C73.0628 110.934 73.1042 110.929 73.143 110.939C73.1818 110.95 73.215 110.975 73.2355 111.01C73.2456 111.027 73.2521 111.046 73.2547 111.066C73.2573 111.086 73.2559 111.106 73.2507 111.126C73.2454 111.145 73.2363 111.163 73.224 111.179C73.2116 111.195 73.1963 111.208 73.1788 111.218L63.2978 116.918C63.2773 116.93 63.2538 116.937 63.2298 116.937V116.937Z" fill="#455A64"/>
</g>
</svg>
