<svg width="64" height="58" viewBox="0 0 64 58" fill="none" xmlns="http://www.w3.org/2000/svg">
<g opacity="0.3">
<path fill-rule="evenodd" clip-rule="evenodd" d="M0 37.1957L15.0767 21.7502C15.6671 21.1454 16.4766 20.8043 17.3218 20.8043H46.6783C47.5234 20.8043 48.3329 21.1454 48.9233 21.7502L64 37.1957V52.9804C64 55.7526 61.7526 58 58.9804 58H5.01961C2.24735 58 0 55.7526 0 52.9804V37.1957ZM4.70588 35.9348L16.9412 23.3261H47.0588L59.2941 35.9348H43.6078V38.4834C43.6078 41.6022 41.0796 44.1304 37.9608 44.1304H26.0392C22.9204 44.1304 20.3922 41.6022 20.3922 38.4834V35.9348H4.70588ZM2.5 38.5H18C18 42.8631 21.537 46.4 25.9 46.4H38.1C42.4631 46.4 46 42.8631 46 38.5H61.5V52.5C61.5 54.1569 60.1569 55.5 58.5 55.5H5.5C3.84315 55.5 2.5 54.1569 2.5 52.5V38.5ZM33.2549 14.5C33.2549 15.1964 32.6931 15.7609 32 15.7609C31.3069 15.7609 30.7451 15.1964 30.7451 14.5V1.26087C30.7451 0.564511 31.3069 0 32 0C32.6931 0 33.2549 0.564511 33.2549 1.26087V14.5ZM41.3693 15.6364C41.1899 16.309 40.5018 16.7082 39.8324 16.528C39.1629 16.3477 38.7657 15.6564 38.945 14.9837L42.3554 2.19571C42.5347 1.52308 43.2228 1.12391 43.8923 1.30415C44.5617 1.48438 44.959 2.17576 44.7796 2.84839L41.3693 15.6364ZM25.3287 14.9837C25.508 15.6564 25.1108 16.3477 24.4413 16.528C23.7719 16.7082 23.0838 16.309 22.9044 15.6364L19.4941 2.84839C19.3147 2.17576 19.712 1.48438 20.3814 1.30415C21.0508 1.12391 21.739 1.52308 21.9183 2.19571L25.3287 14.9837Z" fill="#3F4A72"/>
</g>
</svg>
