<svg width="21" height="22" viewBox="0 0 21 22" fill="none" xmlns="http://www.w3.org/2000/svg">
<mask id="mask0" mask-type="alpha" maskUnits="userSpaceOnUse" x="0" y="1" width="21" height="21">
<rect y="1" width="21" height="21" rx="4" fill="#C4C4C4"/>
</mask>
<g mask="url(#mask0)">
<path d="M20.9348 0.816406H-0.0458984V21.7971H20.9348V0.816406Z" fill="#F5F5F5"/>
<path d="M20.9541 0.816406H-0.0458984V2.42996H20.9541V0.816406Z" fill="#FF4B55"/>
<path d="M20.9541 7.27148H-0.0458984V8.88504H20.9541V7.27148Z" fill="#FF4B55"/>
<path d="M20.9541 4.04395H-0.0458984V5.6575H20.9541V4.04395Z" fill="#FF4B55"/>
<path d="M20.9541 10.499H-0.0458984V12.1126H20.9541V10.499Z" fill="#FF4B55"/>
<path d="M20.9541 16.9546H-0.0458984V18.5681H20.9541V16.9546Z" fill="#FF4B55"/>
<path d="M20.9541 20.1824H-0.0458984V21.7959H20.9541V20.1824Z" fill="#FF4B55"/>
<path d="M20.9541 13.7271H-0.0458984V15.3406H20.9541V13.7271Z" fill="#FF4B55"/>
<path d="M11.2514 0.816406H-0.0458984V12.1138H11.2514V0.816406Z" fill="#41479B"/>
<path d="M1.39819 1.66011L1.48523 1.92114L1.76036 1.92327C1.79596 1.92356 1.81077 1.969 1.7821 1.99017L1.56078 2.15361L1.64375 2.41595C1.6545 2.44991 1.61586 2.47801 1.58682 2.45729L1.36296 2.29729L1.1391 2.45729C1.11014 2.47805 1.07146 2.44991 1.08217 2.41595L1.16514 2.15361L0.943823 1.99017C0.915194 1.969 0.929919 1.92356 0.965561 1.92327L1.24069 1.92114L1.32773 1.66011C1.33913 1.62632 1.38696 1.62632 1.39819 1.66011Z" fill="#F5F5F5"/>
<path d="M1.39819 3.83763L1.48523 4.09866L1.76036 4.10079C1.79596 4.10108 1.81077 4.14652 1.7821 4.16769L1.56078 4.33113L1.64375 4.59347C1.6545 4.62743 1.61586 4.65553 1.58682 4.63481L1.36296 4.47481L1.1391 4.63481C1.11014 4.65557 1.07146 4.62743 1.08217 4.59347L1.16514 4.33113L0.943823 4.16769C0.915194 4.14652 0.929919 4.10108 0.965561 4.10079L1.24069 4.09866L1.32773 3.83763C1.33913 3.8038 1.38696 3.8038 1.39819 3.83763Z" fill="#F5F5F5"/>
<path d="M1.39819 6.2524L1.48523 6.51342L1.76036 6.51556C1.79596 6.51584 1.81077 6.56129 1.7821 6.58249L1.56078 6.74594L1.64375 7.00828C1.6545 7.04224 1.61586 7.07034 1.58682 7.04962L1.36296 6.88962L1.1391 7.04962C1.11014 7.07038 1.07146 7.04224 1.08217 7.00828L1.16514 6.74594L0.943823 6.58249C0.915194 6.56133 0.929919 6.51584 0.965561 6.51556L1.24069 6.51342L1.32773 6.2524C1.33913 6.2186 1.38696 6.2186 1.39819 6.2524Z" fill="#F5F5F5"/>
<path d="M1.39819 8.47139L1.48523 8.73242L1.76036 8.73455C1.79596 8.73484 1.81077 8.78028 1.7821 8.80145L1.56078 8.96489L1.64375 9.22723C1.6545 9.26119 1.61586 9.28929 1.58682 9.26857L1.36296 9.10857L1.1391 9.26857C1.11014 9.28933 1.07146 9.26119 1.08217 9.22723L1.16514 8.96489L0.943823 8.80145C0.915194 8.78028 0.929919 8.73484 0.965561 8.73455L1.24069 8.73242L1.32773 8.47139C1.33913 8.4376 1.38696 8.4376 1.39819 8.47139Z" fill="#F5F5F5"/>
<path d="M1.39819 10.4902L1.48523 10.7512L1.76036 10.7533C1.79596 10.7536 1.81077 10.7991 1.7821 10.8202L1.56078 10.9837L1.64375 11.246C1.6545 11.28 1.61586 11.3081 1.58682 11.2874L1.36296 11.1274L1.1391 11.2874C1.11014 11.3081 1.07146 11.28 1.08217 11.246L1.16514 10.9837L0.943823 10.8202C0.915194 10.7991 0.929919 10.7536 0.965561 10.7533L1.24069 10.7512L1.32773 10.4902C1.33913 10.4564 1.38696 10.4564 1.39819 10.4902Z" fill="#F5F5F5"/>
<path d="M2.45776 2.69112L2.5448 2.95214L2.81993 2.95428C2.85553 2.95456 2.87034 3.00001 2.84167 3.02117L2.62035 3.18462L2.70333 3.44696C2.71407 3.48092 2.67543 3.50901 2.6464 3.4883L2.42253 3.3283L2.19867 3.4883C2.16971 3.50905 2.13103 3.48092 2.14174 3.44696L2.22471 3.18462L2.00339 3.02117C1.97476 3.00001 1.98949 2.95456 2.02513 2.95428L2.30026 2.95214L2.3873 2.69112C2.3987 2.65732 2.44653 2.65732 2.45776 2.69112Z" fill="#F5F5F5"/>
<path d="M2.45776 5.10616L2.5448 5.36718L2.81993 5.36931C2.85553 5.3696 2.87034 5.41505 2.84167 5.43621L2.62035 5.59966L2.70333 5.86199C2.71407 5.89595 2.67543 5.92405 2.6464 5.90334L2.42253 5.74334L2.19867 5.90334C2.16971 5.92409 2.13103 5.89595 2.14174 5.86199L2.22471 5.59966L2.00339 5.43621C1.97476 5.41505 1.98949 5.3696 2.02513 5.36931L2.30026 5.36718L2.3873 5.10616C2.3987 5.07236 2.44653 5.07236 2.45776 5.10616Z" fill="#F5F5F5"/>
<path d="M2.45776 7.40056L2.5448 7.66159L2.81993 7.66372C2.85553 7.66401 2.87034 7.70945 2.84167 7.73061L2.62035 7.89406L2.70333 8.1564C2.71407 8.19036 2.67543 8.21846 2.6464 8.19774L2.42253 8.03774L2.19867 8.19774C2.16971 8.2185 2.13103 8.19036 2.14174 8.1564L2.22471 7.89406L2.00339 7.73061C1.97476 7.70945 1.98949 7.66401 2.02513 7.66372L2.30026 7.66159L2.3873 7.40056C2.3987 7.36681 2.44653 7.36681 2.45776 7.40056Z" fill="#F5F5F5"/>
<path d="M2.45776 9.46093L2.5448 9.72195L2.81993 9.72408C2.85553 9.72437 2.87034 9.76981 2.84167 9.79098L2.62035 9.95442L2.70333 10.2168C2.71407 10.2507 2.67543 10.2788 2.6464 10.2581L2.42253 10.0981L2.19867 10.2581C2.16971 10.2789 2.13103 10.2507 2.14174 10.2168L2.22471 9.95442L2.00339 9.79098C1.97476 9.76981 1.98949 9.72437 2.02513 9.72408L2.30026 9.72195L2.3873 9.46093C2.3987 9.42709 2.44653 9.42709 2.45776 9.46093Z" fill="#F5F5F5"/>
<path d="M3.51831 1.66011L3.60535 1.92114L3.88048 1.92327C3.91608 1.92356 3.93089 1.969 3.90222 1.99017L3.6809 2.15361L3.76387 2.41595C3.77462 2.44991 3.73598 2.47801 3.70694 2.45729L3.48308 2.29729L3.25922 2.45729C3.23026 2.47805 3.19158 2.44991 3.20229 2.41595L3.28526 2.15361L3.06394 1.99017C3.03531 1.969 3.05004 1.92356 3.08568 1.92327L3.36081 1.92114L3.44785 1.66011C3.45925 1.62632 3.50703 1.62632 3.51831 1.66011Z" fill="#F5F5F5"/>
<path d="M3.51831 3.83763L3.60535 4.09866L3.88048 4.10079C3.91608 4.10108 3.93089 4.14652 3.90222 4.16769L3.6809 4.33113L3.76387 4.59347C3.77462 4.62743 3.73598 4.65553 3.70694 4.63481L3.48308 4.47481L3.25922 4.63481C3.23026 4.65557 3.19158 4.62743 3.20229 4.59347L3.28526 4.33113L3.06394 4.16769C3.03531 4.14652 3.05004 4.10108 3.08568 4.10079L3.36081 4.09866L3.44785 3.83763C3.45925 3.8038 3.50703 3.8038 3.51831 3.83763Z" fill="#F5F5F5"/>
<path d="M3.51831 6.2524L3.60535 6.51342L3.88048 6.51556C3.91608 6.51584 3.93089 6.56129 3.90222 6.58249L3.6809 6.74594L3.76387 7.00828C3.77462 7.04224 3.73598 7.07034 3.70694 7.04962L3.48308 6.88962L3.25922 7.04962C3.23026 7.07038 3.19158 7.04224 3.20229 7.00828L3.28526 6.74594L3.06394 6.58249C3.03531 6.56133 3.05004 6.51584 3.08568 6.51556L3.36081 6.51342L3.44785 6.2524C3.45925 6.2186 3.50703 6.2186 3.51831 6.2524Z" fill="#F5F5F5"/>
<path d="M3.51823 8.47115L3.60527 8.73218L3.8804 8.73431C3.916 8.7346 3.93081 8.78004 3.90214 8.80121L3.68082 8.96465L3.76379 9.22699C3.77454 9.26095 3.7359 9.28904 3.70686 9.26833L3.48308 9.10829L3.25922 9.26829C3.23026 9.28904 3.19158 9.26091 3.20229 9.22695L3.28526 8.96461L3.06394 8.80116C3.03531 8.78 3.05004 8.73455 3.08568 8.73427L3.36081 8.73213L3.44785 8.47111C3.45917 8.43736 3.50695 8.43736 3.51823 8.47115Z" fill="#F5F5F5"/>
<path d="M3.51831 10.4902L3.60535 10.7512L3.88048 10.7533C3.91608 10.7536 3.93089 10.7991 3.90222 10.8202L3.6809 10.9837L3.76387 11.246C3.77462 11.28 3.73598 11.3081 3.70694 11.2874L3.48308 11.1274L3.25922 11.2874C3.23026 11.3081 3.19158 11.28 3.20229 11.246L3.28526 10.9837L3.06394 10.8202C3.03531 10.7991 3.05004 10.7536 3.08568 10.7533L3.36081 10.7512L3.44785 10.4902C3.45925 10.4564 3.50703 10.4564 3.51831 10.4902Z" fill="#F5F5F5"/>
<path d="M4.57788 2.69112L4.66492 2.95214L4.94005 2.95428C4.97565 2.95456 4.99046 3.00001 4.96179 3.02117L4.74047 3.18462L4.82344 3.44696C4.83419 3.48092 4.79555 3.50901 4.76651 3.4883L4.54265 3.3283L4.31879 3.4883C4.28983 3.50905 4.25115 3.48092 4.26186 3.44696L4.34483 3.18462L4.12351 3.02117C4.09488 3.00001 4.10961 2.95456 4.14525 2.95428L4.42051 2.95214L4.50754 2.69112C4.51882 2.65732 4.5666 2.65732 4.57788 2.69112Z" fill="#F5F5F5"/>
<path d="M4.57788 5.10616L4.66492 5.36718L4.94005 5.36931C4.97565 5.3696 4.99046 5.41505 4.96179 5.43621L4.74047 5.59966L4.82344 5.86199C4.83419 5.89595 4.79555 5.92405 4.76651 5.90334L4.54265 5.74334L4.31879 5.90334C4.28983 5.92409 4.25115 5.89595 4.26186 5.86199L4.34483 5.59966L4.12351 5.43621C4.09488 5.41505 4.10961 5.3696 4.14525 5.36931L4.42038 5.36718L4.50742 5.10616C4.51882 5.07236 4.5666 5.07236 4.57788 5.10616Z" fill="#F5F5F5"/>
<path d="M4.57788 7.40056L4.66492 7.66159L4.94005 7.66372C4.97565 7.66401 4.99046 7.70945 4.96179 7.73061L4.74047 7.89406L4.82344 8.1564C4.83419 8.19036 4.79555 8.21846 4.76651 8.19774L4.54265 8.03774L4.31879 8.19774C4.28983 8.2185 4.25115 8.19036 4.26186 8.1564L4.34483 7.89406L4.12351 7.73061C4.09488 7.70945 4.10961 7.66401 4.14525 7.66372L4.42038 7.66159L4.50742 7.40056C4.51882 7.36681 4.5666 7.36681 4.57788 7.40056Z" fill="#F5F5F5"/>
<path d="M4.57788 9.46093L4.66492 9.72195L4.94005 9.72408C4.97565 9.72437 4.99046 9.76981 4.96179 9.79098L4.74047 9.95442L4.82344 10.2168C4.83419 10.2507 4.79555 10.2788 4.76651 10.2581L4.54265 10.0981L4.31879 10.2581C4.28983 10.2789 4.25115 10.2507 4.26186 10.2168L4.34483 9.95442L4.12351 9.79098C4.09488 9.76981 4.10961 9.72437 4.14525 9.72408L4.42038 9.72195L4.50742 9.46093C4.51882 9.42709 4.5666 9.42709 4.57788 9.46093Z" fill="#F5F5F5"/>
<path d="M5.63745 1.66011L5.72449 1.92114L5.99962 1.92327C6.03522 1.92356 6.05003 1.969 6.02136 1.99017L5.80004 2.15361L5.88301 2.41595C5.89376 2.44991 5.85512 2.47801 5.82609 2.45729L5.60222 2.29729L5.37836 2.45729C5.3494 2.47805 5.31072 2.44991 5.32143 2.41595L5.4044 2.15361L5.18308 1.99017C5.15445 1.969 5.16918 1.92356 5.20482 1.92327L5.47995 1.92114L5.56699 1.66011C5.57839 1.62632 5.62617 1.62632 5.63745 1.66011Z" fill="#F5F5F5"/>
<path d="M5.63745 3.83763L5.72449 4.09866L5.99962 4.10079C6.03522 4.10108 6.05003 4.14652 6.02136 4.16769L5.80004 4.33113L5.88301 4.59347C5.89376 4.62743 5.85512 4.65553 5.82609 4.63481L5.60222 4.47481L5.37836 4.63481C5.3494 4.65557 5.31072 4.62743 5.32143 4.59347L5.4044 4.33113L5.18308 4.16769C5.15445 4.14652 5.16918 4.10108 5.20482 4.10079L5.47995 4.09866L5.56699 3.83763C5.57839 3.8038 5.62617 3.8038 5.63745 3.83763Z" fill="#F5F5F5"/>
<path d="M5.63745 6.2524L5.72449 6.51342L5.99962 6.51556C6.03522 6.51584 6.05003 6.56129 6.02136 6.58249L5.80004 6.74594L5.88301 7.00828C5.89376 7.04224 5.85512 7.07034 5.82609 7.04962L5.60222 6.88962L5.37836 7.04962C5.3494 7.07038 5.31072 7.04224 5.32143 7.00828L5.4044 6.74594L5.18308 6.58249C5.15445 6.56133 5.16918 6.51584 5.20482 6.51556L5.47995 6.51342L5.56699 6.2524C5.57839 6.2186 5.62617 6.2186 5.63745 6.2524Z" fill="#F5F5F5"/>
<path d="M5.63745 8.47139L5.72449 8.73242L5.99962 8.73455C6.03522 8.73484 6.05003 8.78028 6.02136 8.80145L5.80004 8.96489L5.88301 9.22723C5.89376 9.26119 5.85512 9.28929 5.82609 9.26857L5.60222 9.10857L5.37836 9.26857C5.3494 9.28933 5.31072 9.26119 5.32143 9.22723L5.4044 8.96489L5.18308 8.80145C5.15445 8.78028 5.16918 8.73484 5.20482 8.73455L5.47995 8.73242L5.56699 8.47139C5.57839 8.4376 5.62617 8.4376 5.63745 8.47139Z" fill="#F5F5F5"/>
<path d="M5.63745 10.4902L5.72449 10.7512L5.99962 10.7533C6.03522 10.7536 6.05003 10.7991 6.02136 10.8202L5.80004 10.9837L5.88301 11.246C5.89376 11.28 5.85512 11.3081 5.82609 11.2874L5.60222 11.1274L5.37836 11.2874C5.3494 11.3081 5.31072 11.28 5.32143 11.246L5.4044 10.9837L5.18308 10.8202C5.15445 10.7991 5.16918 10.7536 5.20482 10.7533L5.47995 10.7512L5.56699 10.4902C5.57839 10.4564 5.62617 10.4564 5.63745 10.4902Z" fill="#F5F5F5"/>
<path d="M6.69702 2.69112L6.78406 2.95214L7.05919 2.95428C7.09479 2.95456 7.1096 3.00001 7.08093 3.02117L6.85961 3.18462L6.94258 3.44696C6.95333 3.48092 6.91469 3.50901 6.88565 3.4883L6.66179 3.3283L6.43793 3.4883C6.40897 3.50905 6.37029 3.48092 6.381 3.44696L6.46397 3.18462L6.24265 3.02117C6.21402 3.00001 6.22875 2.95456 6.26435 2.95428L6.53948 2.95214L6.62652 2.69112C6.63796 2.65732 6.68574 2.65732 6.69702 2.69112Z" fill="#F5F5F5"/>
<path d="M6.69702 5.10616L6.78406 5.36718L7.05919 5.36931C7.09479 5.3696 7.1096 5.41505 7.08093 5.43621L6.85961 5.59966L6.94258 5.86199C6.95333 5.89595 6.91469 5.92405 6.88565 5.90334L6.66179 5.74334L6.43793 5.90334C6.40897 5.92409 6.37029 5.89595 6.381 5.86199L6.46397 5.59966L6.24265 5.43621C6.21402 5.41505 6.22875 5.3696 6.26435 5.36931L6.53948 5.36718L6.62652 5.10616C6.63796 5.07236 6.68574 5.07236 6.69702 5.10616Z" fill="#F5F5F5"/>
<path d="M6.69702 7.40056L6.78406 7.66159L7.05919 7.66372C7.09479 7.66401 7.1096 7.70945 7.08093 7.73061L6.85961 7.89406L6.94258 8.1564C6.95333 8.19036 6.91469 8.21846 6.88565 8.19774L6.66179 8.03774L6.43793 8.19774C6.40897 8.2185 6.37029 8.19036 6.381 8.1564L6.46397 7.89406L6.24265 7.73061C6.21402 7.70945 6.22875 7.66401 6.26435 7.66372L6.53948 7.66159L6.62652 7.40056C6.63796 7.36681 6.68574 7.36681 6.69702 7.40056Z" fill="#F5F5F5"/>
<path d="M6.69702 9.46093L6.78406 9.72195L7.05919 9.72408C7.09479 9.72437 7.1096 9.76981 7.08093 9.79098L6.85961 9.95442L6.94258 10.2168C6.95333 10.2507 6.91469 10.2788 6.88565 10.2581L6.66179 10.0981L6.43793 10.2581C6.40897 10.2789 6.37029 10.2507 6.381 10.2168L6.46397 9.95442L6.24265 9.79098C6.21402 9.76981 6.22875 9.72437 6.26435 9.72408L6.53948 9.72195L6.62652 9.46093C6.63796 9.42709 6.68574 9.42709 6.69702 9.46093Z" fill="#F5F5F5"/>
<path d="M7.75659 1.66011L7.84363 1.92114L8.11876 1.92327C8.15436 1.92356 8.16917 1.969 8.1405 1.99017L7.91918 2.15361L8.00215 2.41595C8.0129 2.44991 7.97426 2.47801 7.94522 2.45729L7.72136 2.29729L7.4975 2.45729C7.46854 2.47805 7.42986 2.44991 7.44057 2.41595L7.52354 2.15361L7.30222 1.99017C7.27359 1.969 7.28832 1.92356 7.32396 1.92327L7.59909 1.92114L7.68613 1.66011C7.69753 1.62632 7.74531 1.62632 7.75659 1.66011Z" fill="#F5F5F5"/>
<path d="M7.75659 3.83763L7.84363 4.09866L8.11876 4.10079C8.15436 4.10108 8.16917 4.14652 8.1405 4.16769L7.91918 4.33113L8.00215 4.59347C8.0129 4.62743 7.97426 4.65553 7.94522 4.63481L7.72136 4.47481L7.4975 4.63481C7.46854 4.65557 7.42986 4.62743 7.44057 4.59347L7.52354 4.33113L7.30222 4.16769C7.27359 4.14652 7.28832 4.10108 7.32396 4.10079L7.59909 4.09866L7.68613 3.83763C7.69753 3.8038 7.74531 3.8038 7.75659 3.83763Z" fill="#F5F5F5"/>
<path d="M7.75659 6.2524L7.84363 6.51342L8.11876 6.51556C8.15436 6.51584 8.16917 6.56129 8.1405 6.58249L7.91918 6.74594L8.00215 7.00828C8.0129 7.04224 7.97426 7.07034 7.94522 7.04962L7.72136 6.88962L7.4975 7.04962C7.46854 7.07038 7.42986 7.04224 7.44057 7.00828L7.52354 6.74594L7.30222 6.58249C7.27359 6.56133 7.28832 6.51584 7.32396 6.51556L7.59909 6.51342L7.68613 6.2524C7.69753 6.2186 7.74531 6.2186 7.75659 6.2524Z" fill="#F5F5F5"/>
<path d="M7.75659 8.47139L7.84363 8.73242L8.11876 8.73455C8.15436 8.73484 8.16917 8.78028 8.1405 8.80145L7.91918 8.96489L8.00215 9.22723C8.0129 9.26119 7.97426 9.28929 7.94522 9.26857L7.72136 9.10857L7.4975 9.26857C7.46854 9.28933 7.42986 9.26119 7.44057 9.22723L7.52354 8.96489L7.30222 8.80145C7.27359 8.78028 7.28832 8.73484 7.32396 8.73455L7.59909 8.73242L7.68613 8.47139C7.69753 8.4376 7.74531 8.4376 7.75659 8.47139Z" fill="#F5F5F5"/>
<path d="M7.75659 10.4902L7.84363 10.7512L8.11876 10.7533C8.15436 10.7536 8.16917 10.7991 8.1405 10.8202L7.91918 10.9837L8.00215 11.246C8.0129 11.28 7.97426 11.3081 7.94522 11.2874L7.72136 11.1274L7.4975 11.2874C7.46854 11.3081 7.42986 11.28 7.44057 11.246L7.52354 10.9837L7.30222 10.8202C7.27359 10.7991 7.28832 10.7536 7.32396 10.7533L7.59909 10.7512L7.68613 10.4902C7.69753 10.4564 7.74531 10.4564 7.75659 10.4902Z" fill="#F5F5F5"/>
<path d="M8.81714 2.69112L8.90418 2.95214L9.17931 2.95428C9.21491 2.95456 9.22972 3.00001 9.20105 3.02117L8.97973 3.18462L9.0627 3.44696C9.07345 3.48092 9.03481 3.50901 9.00577 3.4883L8.78191 3.3283L8.55804 3.4883C8.52909 3.50905 8.49041 3.48092 8.50111 3.44696L8.58409 3.18462L8.36277 3.02117C8.33414 3.00001 8.34886 2.95456 8.38451 2.95428L8.65964 2.95214L8.74668 2.69112C8.75804 2.65732 8.80586 2.65732 8.81714 2.69112Z" fill="#F5F5F5"/>
<path d="M8.81714 5.10616L8.90418 5.36718L9.17931 5.36931C9.21491 5.3696 9.22972 5.41505 9.20105 5.43621L8.97973 5.59966L9.0627 5.86199C9.07345 5.89595 9.03481 5.92405 9.00577 5.90334L8.78191 5.74334L8.55804 5.90334C8.52909 5.92409 8.49041 5.89595 8.50111 5.86199L8.58409 5.59966L8.36277 5.43621C8.33414 5.41505 8.34886 5.3696 8.38451 5.36931L8.65964 5.36718L8.74668 5.10616C8.75804 5.07236 8.80586 5.07236 8.81714 5.10616Z" fill="#F5F5F5"/>
<path d="M8.81714 7.40056L8.90418 7.66159L9.17931 7.66372C9.21491 7.66401 9.22972 7.70945 9.20105 7.73061L8.97973 7.89406L9.0627 8.1564C9.07345 8.19036 9.03481 8.21846 9.00577 8.19774L8.78191 8.03774L8.55804 8.19774C8.52909 8.2185 8.49041 8.19036 8.50111 8.1564L8.58409 7.89406L8.36277 7.73061C8.33414 7.70945 8.34886 7.66401 8.38451 7.66372L8.65964 7.66159L8.74668 7.40056C8.75804 7.36681 8.80586 7.36681 8.81714 7.40056Z" fill="#F5F5F5"/>
<path d="M8.81714 9.46093L8.90418 9.72195L9.17931 9.72408C9.21491 9.72437 9.22972 9.76981 9.20105 9.79098L8.97973 9.95442L9.0627 10.2168C9.07345 10.2507 9.03481 10.2788 9.00577 10.2581L8.78191 10.0981L8.55804 10.2581C8.52909 10.2789 8.49041 10.2507 8.50111 10.2168L8.58409 9.95442L8.36277 9.79098C8.33414 9.76981 8.34886 9.72437 8.38451 9.72408L8.65964 9.72195L8.74668 9.46093C8.75804 9.42709 8.80586 9.42709 8.81714 9.46093Z" fill="#F5F5F5"/>
<path d="M9.87671 1.66011L9.96375 1.92114L10.2389 1.92327C10.2745 1.92356 10.2893 1.969 10.2606 1.99017L10.0393 2.15361L10.1223 2.41595C10.133 2.44991 10.0944 2.47801 10.0653 2.45729L9.84148 2.29729L9.61761 2.45729C9.58866 2.47805 9.54998 2.44991 9.56068 2.41595L9.64366 2.15361L9.42234 1.99017C9.39371 1.969 9.40843 1.92356 9.44408 1.92327L9.71921 1.92114L9.80625 1.66011C9.81761 1.62632 9.86543 1.62632 9.87671 1.66011Z" fill="#F5F5F5"/>
<path d="M9.87671 3.83763L9.96375 4.09866L10.2389 4.10079C10.2745 4.10108 10.2893 4.14652 10.2606 4.16769L10.0393 4.33113L10.1223 4.59347C10.133 4.62743 10.0944 4.65553 10.0653 4.63481L9.84148 4.47481L9.61761 4.63481C9.58866 4.65557 9.54998 4.62743 9.56068 4.59347L9.64366 4.33113L9.42234 4.16769C9.39371 4.14652 9.40843 4.10108 9.44408 4.10079L9.71921 4.09866L9.80625 3.83763C9.81761 3.8038 9.86543 3.8038 9.87671 3.83763Z" fill="#F5F5F5"/>
<path d="M9.87671 6.2524L9.96375 6.51342L10.2389 6.51556C10.2745 6.51584 10.2893 6.56129 10.2606 6.58249L10.0393 6.74594L10.1223 7.00828C10.133 7.04224 10.0944 7.07034 10.0653 7.04962L9.84148 6.88962L9.61761 7.04962C9.58866 7.07038 9.54998 7.04224 9.56068 7.00828L9.64366 6.74594L9.42234 6.58249C9.39371 6.56133 9.40843 6.51584 9.44408 6.51556L9.71921 6.51342L9.80625 6.2524C9.81761 6.2186 9.86543 6.2186 9.87671 6.2524Z" fill="#F5F5F5"/>
<path d="M9.87671 8.47139L9.96375 8.73242L10.2389 8.73455C10.2745 8.73484 10.2893 8.78028 10.2606 8.80145L10.0393 8.96489L10.1223 9.22723C10.133 9.26119 10.0944 9.28929 10.0653 9.26857L9.84148 9.10857L9.61761 9.26857C9.58866 9.28933 9.54998 9.26119 9.56068 9.22723L9.64366 8.96489L9.42234 8.80145C9.39371 8.78028 9.40843 8.73484 9.44408 8.73455L9.71921 8.73242L9.80625 8.47139C9.81761 8.4376 9.86543 8.4376 9.87671 8.47139Z" fill="#F5F5F5"/>
<path d="M9.87671 10.4902L9.96375 10.7512L10.2389 10.7533C10.2745 10.7536 10.2893 10.7991 10.2606 10.8202L10.0393 10.9837L10.1223 11.246C10.133 11.28 10.0944 11.3081 10.0653 11.2874L9.84148 11.1274L9.61761 11.2874C9.58866 11.3081 9.54998 11.28 9.56068 11.246L9.64366 10.9837L9.42234 10.8202C9.39371 10.7991 9.40843 10.7536 9.44408 10.7533L9.71921 10.7512L9.80625 10.4902C9.81761 10.4564 9.86543 10.4564 9.87671 10.4902Z" fill="#F5F5F5"/>
</g>
</svg>
