<svg width="483" height="337" viewBox="0 0 483 337" fill="none" xmlns="http://www.w3.org/2000/svg">
<path d="M483 292.398H0V292.64H483V292.398Z" fill="#EBEBEB"/>
<path d="M434.603 307.941H402.609V308.183H434.603V307.941Z" fill="#EBEBEB"/>
<path d="M319.959 310.569H311.564V310.81H319.959V310.569Z" fill="#EBEBEB"/>
<path d="M401.644 298.977H383.106V299.218H401.644V298.977Z" fill="#EBEBEB"/>
<path d="M92.3978 300.6H50.6763V300.841H92.3978V300.6Z" fill="#EBEBEB"/>
<path d="M107.12 300.6H101.005V300.841H107.12V300.6Z" fill="#EBEBEB"/>
<path d="M217.495 304.676H127V304.918H217.495V304.676Z" fill="#EBEBEB"/>
<path d="M72.0056 165.341L222.334 165.341L222.334 0.0579224L72.0056 0.0579224L72.0056 165.341Z" fill="#E5E8EF"/>
<path d="M67.0981 165.341L220.045 165.341L220.045 0.0579224L67.0981 0.0579224L67.0981 165.341Z" fill="#F3F5FB"/>
<path d="M72.0154 165.34H222.344V172.547H67.2144L72.0154 165.34Z" fill="#E5E8EF"/>
<path d="M58.9357 165.34H211.873L207.072 172.547H54.125L58.9357 165.34Z" fill="#F3F5FB"/>
<path d="M213.187 158.472V6.92627L73.9763 6.92627V158.472H213.187Z" fill="#F3F5FB"/>
<path d="M189.732 158.472L135.964 6.93579H116.934L170.702 158.472H189.732Z" fill="white"/>
<path d="M209.999 153.662C210.068 153.662 210.138 153.648 210.202 153.621C210.266 153.594 210.325 153.555 210.374 153.506C210.424 153.457 210.463 153.398 210.49 153.334C210.516 153.269 210.53 153.2 210.53 153.13V11.3988C210.527 11.2596 210.47 11.1269 210.371 11.0294C210.272 10.9318 210.138 10.8772 209.999 10.8772C209.93 10.8772 209.862 10.8907 209.799 10.9169C209.736 10.9431 209.678 10.9815 209.63 11.03C209.581 11.0784 209.543 11.1359 209.517 11.1992C209.491 11.2625 209.477 11.3303 209.477 11.3988V153.13C209.477 153.27 209.532 153.403 209.629 153.503C209.727 153.602 209.859 153.659 209.999 153.662V153.662Z" fill="#F0F0F0"/>
<path d="M149.228 158.472L95.4604 6.93579H88.0415L141.809 158.472H149.228Z" fill="white"/>
<path opacity="0.5" d="M65.4756 20.1894H215.814L216.442 9.60205H66.1131L65.4756 20.1894Z" fill="#E5E8F0"/>
<path opacity="0.5" d="M65.4756 37.5869H215.814L216.442 26.9995H66.1131L65.4756 37.5869Z" fill="#E0E0E0"/>
<path opacity="0.5" d="M65.4756 54.9847H215.814L216.442 44.407H66.1131L65.4756 54.9847Z" fill="#E0E0E0"/>
<path opacity="0.5" d="M65.4756 72.3824H215.814L216.442 61.8047H66.1131L65.4756 72.3824Z" fill="#E0E0E0"/>
<path opacity="0.5" d="M65.4756 89.7895H215.814L216.442 79.2021H66.1131L65.4756 89.7895Z" fill="#E0E0E0"/>
<path d="M348.813 292.399L347.142 75.8696H354.222L352.551 292.399H348.813Z" fill="#EBEBEB"/>
<path d="M298.146 292.399L361.738 75.8696H368.829L301.885 292.399H298.146Z" fill="#EBEBEB"/>
<path d="M403.228 292.399L339.636 75.8696H332.545L399.489 292.399H403.228Z" fill="#EBEBEB"/>
<path d="M78.468 296.098H85.3169L85.3169 205.507H78.468L78.468 296.098Z" fill="#E5E8F0"/>
<path d="M76.2948 296.098H81.0571L81.0571 205.507H76.2948L76.2948 296.098Z" fill="#F3F5FB"/>
<path d="M226.247 201.285H74.749V213.911H226.247V201.285Z" fill="#F3F5FB"/>
<path d="M222.344 291.886H229.193V213.921H222.344V291.886Z" fill="#E5E8F0"/>
<path d="M220.18 291.886H224.943V213.921H220.18V291.886Z" fill="#F3F5FB"/>
<path d="M271.117 291.886H277.966V213.921H271.117V291.886Z" fill="#E5E8F0"/>
<path d="M268.954 291.886H273.716V213.921H268.954V291.886Z" fill="#F3F5FB"/>
<path d="M121.832 291.886H128.681V213.921H121.832L121.832 291.886Z" fill="#E5E8F0"/>
<path d="M119.659 291.886H124.421L124.421 213.921H119.659L119.659 291.886Z" fill="#F3F5FB"/>
<path d="M226.237 213.921H279.521V201.295H226.237V213.921Z" fill="#E5E8F0"/>
<path d="M194.34 191.857H128.681V201.285H194.34V191.857Z" fill="#EEF0F7"/>
<path d="M194.34 201.295H226.488V191.867H194.34V201.295Z" fill="#E5E8EF"/>
<path d="M202.647 196.581H218.181C218.917 196.581 219.514 195.984 219.514 195.248C219.514 194.512 218.917 193.915 218.181 193.915H202.647C201.911 193.915 201.314 194.512 201.314 195.248C201.314 195.984 201.911 196.581 202.647 196.581Z" fill="#F3F5FB"/>
<path d="M163.882 185.085H150.657V191.857H163.882V185.085Z" fill="#F5F5F5"/>
<path d="M157.748 182.255H156.792V185.085H157.748V182.255Z" fill="#E6E6E6"/>
<path d="M175.677 186.264H174.72V187.674H175.677V186.264Z" fill="#E6E6E6"/>
<path d="M183.25 187.674H167.147V191.857H183.25V187.674Z" fill="#F0F0F0"/>
<path d="M241.5 336.023C344.942 336.023 428.798 331.127 428.798 325.088C428.798 319.049 344.942 314.153 241.5 314.153C138.058 314.153 54.2021 319.049 54.2021 325.088C54.2021 331.127 138.058 336.023 241.5 336.023Z" fill="#F3F5FB"/>
<path d="M387.811 146.687H84.1388C81.1367 146.619 78.2599 145.47 76.0378 143.45C73.8156 141.43 72.3976 138.676 72.0445 135.694L60.9838 25.8017C60.8063 24.4081 60.9306 22.9927 61.3482 21.6514C61.7659 20.3102 62.4672 19.0744 63.4045 18.0281C64.3419 16.9817 65.4933 16.1492 66.7807 15.5871C68.0681 15.0249 69.4614 14.7462 70.866 14.77H374.538C377.54 14.8393 380.417 15.9891 382.641 18.0084C384.864 20.0276 386.284 22.7809 386.642 25.763L397.693 135.655C397.872 137.049 397.749 138.465 397.332 139.807C396.915 141.149 396.213 142.385 395.276 143.432C394.338 144.479 393.186 145.311 391.898 145.873C390.61 146.435 389.216 146.712 387.811 146.687Z" fill="#C0CAEF"/>
<path opacity="0.3" d="M127.619 138.418H91.0941C88.2452 138.35 85.5162 137.258 83.4068 135.342C81.2974 133.426 79.9489 130.814 79.6083 127.985L70.1029 33.4622C69.9379 32.142 70.0587 30.8017 70.4569 29.5323C70.8552 28.2628 71.5216 27.0938 72.4111 26.1044C73.3007 25.1151 74.3925 24.3285 75.6125 23.7979C76.8326 23.2673 78.1525 23.0052 79.4827 23.0294H116.007C118.865 23.0895 121.605 24.1821 123.719 26.1052C125.834 28.0282 127.182 30.6518 127.512 33.4911L137.027 128.014C137.188 129.335 137.063 130.674 136.661 131.942C136.259 133.21 135.59 134.377 134.697 135.364C133.805 136.35 132.711 137.133 131.49 137.66C130.269 138.187 128.948 138.446 127.619 138.418V138.418Z" fill="white"/>
<path d="M191.471 142.282H152.937C149.931 142.212 147.05 141.06 144.825 139.037C142.599 137.014 141.179 134.256 140.824 131.27L130.652 30.226C130.472 28.8301 130.596 27.4119 131.014 26.0681C131.432 24.7242 132.135 23.4863 133.075 22.4385C134.014 21.3907 135.169 20.5577 136.459 19.9962C137.75 19.4347 139.146 19.1579 140.553 19.1846H179.087C182.099 19.2532 184.984 20.4088 187.21 22.4381C189.437 24.4674 190.854 27.2335 191.2 30.226L201.372 131.347C201.534 132.734 201.397 134.14 200.97 135.47C200.544 136.8 199.839 138.024 198.901 139.06C197.964 140.095 196.816 140.918 195.534 141.474C194.253 142.03 192.868 142.305 191.471 142.282V142.282Z" fill="white"/>
<path opacity="0.3" d="M252.541 138.418H216.017C213.169 138.352 210.44 137.26 208.331 135.344C206.223 133.427 204.877 130.814 204.541 127.985L195.026 33.4622C194.861 32.142 194.982 30.8017 195.38 29.5323C195.778 28.2628 196.444 27.0938 197.334 26.1044C198.224 25.1151 199.315 24.3285 200.535 23.7979C201.755 23.2673 203.075 23.0052 204.406 23.0294H240.93C243.779 23.0972 246.508 24.1891 248.617 26.1051C250.727 28.0211 252.075 30.6329 252.416 33.4622L261.921 127.985C262.086 129.305 261.966 130.646 261.567 131.915C261.169 133.185 260.503 134.354 259.613 135.343C258.724 136.332 257.632 137.119 256.412 137.649C255.192 138.18 253.872 138.442 252.541 138.418Z" fill="white"/>
<path opacity="0.2" d="M315.003 138.418H278.479C275.631 138.35 272.903 137.257 270.795 135.341C268.688 133.425 267.341 130.813 267.003 127.985L257.488 33.4619C257.326 32.1415 257.449 30.8017 257.849 29.533C258.249 28.2643 258.917 27.0961 259.806 26.1073C260.696 25.1185 261.788 24.3321 263.008 23.8011C264.228 23.2701 265.547 23.0068 266.877 23.0291H303.392C306.252 23.0887 308.994 24.1806 311.112 26.1034C313.23 28.0261 314.581 30.65 314.916 33.4909L324.422 128.014C324.583 129.335 324.458 130.676 324.055 131.944C323.653 133.213 322.982 134.38 322.089 135.367C321.195 136.354 320.1 137.137 318.878 137.663C317.655 138.19 316.334 138.447 315.003 138.418V138.418Z" fill="white"/>
<path opacity="0.1" d="M377.465 138.418H340.94C338.092 138.35 335.365 137.257 333.257 135.341C331.149 133.425 329.802 130.813 329.464 127.985L319.949 33.4619C319.787 32.1415 319.91 30.8017 320.31 29.533C320.711 28.2643 321.378 27.0961 322.268 26.1073C323.158 25.1185 324.25 24.3321 325.469 23.8011C326.689 23.2701 328.008 23.0068 329.338 23.0291H365.853C368.702 23.097 371.431 24.1889 373.541 26.1049C375.65 28.0209 376.998 30.6327 377.339 33.4619L386.844 127.985C387.009 129.305 386.889 130.645 386.49 131.915C386.092 133.184 385.426 134.353 384.536 135.343C383.647 136.332 382.555 137.119 381.335 137.649C380.115 138.18 378.795 138.442 377.465 138.418V138.418Z" fill="white"/>
<path d="M236.882 54.009C236.704 52.56 236.009 51.2242 234.924 50.2465C233.84 49.2688 232.44 48.7148 230.98 48.6863C230.317 48.6858 229.66 48.8171 229.048 49.0727C228.414 47.9847 227.51 47.0782 226.424 46.4404C225.338 45.8026 224.106 45.4549 222.846 45.4309C221.421 45.405 220.038 45.9112 218.966 46.8508C217.894 47.7904 217.211 49.0958 217.05 50.512C216.37 50.5451 215.703 50.7187 215.093 51.0221C214.482 51.3255 213.942 51.7519 213.504 52.2746C213.067 52.7973 212.742 53.405 212.551 54.0592C212.36 54.7135 212.307 55.4003 212.394 56.0762C212.571 57.5919 213.291 58.9924 214.42 60.0187C215.55 61.0451 217.012 61.628 218.538 61.6597H236.293C236.798 61.6691 237.3 61.5698 237.763 61.3685C238.227 61.1672 238.642 60.8687 238.98 60.4931C239.318 60.1175 239.571 59.6736 239.722 59.1916C239.874 58.7095 239.92 58.2005 239.858 57.6991C239.755 56.8678 239.422 56.0817 238.896 55.4296C238.371 54.7775 237.673 54.2855 236.882 54.009V54.009Z" fill="white"/>
<path d="M175.339 44.6C175.128 42.9101 174.316 41.3525 173.052 40.212C171.787 39.0715 170.154 38.4242 168.451 38.3886C167.663 38.3861 166.881 38.5404 166.152 38.8426C165.411 37.5738 164.357 36.5166 163.09 35.7723C161.823 35.028 160.386 34.6217 158.917 34.5922C157.255 34.5646 155.641 35.1566 154.392 36.253C153.142 37.3494 152.344 38.8717 152.155 40.5235C151.361 40.5665 150.585 40.7723 149.874 41.1281C149.163 41.484 148.533 41.9823 148.023 42.5921C147.513 43.2018 147.133 43.91 146.909 44.6725C146.684 45.4351 146.619 46.2357 146.716 47.0247C146.922 48.7958 147.762 50.4325 149.082 51.6314C150.402 52.8304 152.111 53.5103 153.894 53.5452H174.634C175.223 53.5565 175.808 53.441 176.349 53.2066C176.89 52.9722 177.374 52.6243 177.769 52.1865C178.164 51.7486 178.46 51.2311 178.638 50.6688C178.815 50.1066 178.869 49.5128 178.797 48.9277C178.678 47.9569 178.291 47.0384 177.681 46.2743C177.07 45.5102 176.26 44.9306 175.339 44.6V44.6Z" fill="#6A77AA"/>
<path d="M157.024 63.6012C156.81 63.6009 156.603 63.5218 156.444 63.379C156.359 63.3037 156.29 63.2124 156.241 63.1103C156.192 63.0083 156.163 62.8976 156.157 62.7845C156.151 62.6713 156.167 62.5581 156.205 62.4513C156.242 62.3444 156.301 62.246 156.376 62.1618L161.767 56.1726C161.923 56.0179 162.132 55.9288 162.351 55.9236C162.571 55.9184 162.784 55.9974 162.948 56.1445C163.111 56.2916 163.211 56.4956 163.229 56.7146C163.246 56.9336 163.179 57.151 163.042 57.3222L157.661 63.3114C157.581 63.4022 157.483 63.475 157.374 63.525C157.264 63.5749 157.144 63.6009 157.024 63.6012Z" fill="#6A77AA"/>
<path d="M163.128 63.6012C162.915 63.6009 162.708 63.5218 162.549 63.379C162.464 63.3037 162.395 63.2124 162.346 63.1103C162.297 63.0083 162.268 62.8976 162.262 62.7845C162.256 62.6713 162.272 62.5581 162.31 62.4513C162.347 62.3444 162.406 62.246 162.481 62.1618L167.872 56.1726C168.028 56.0179 168.237 55.9288 168.456 55.9236C168.676 55.9184 168.889 55.9974 169.053 56.1445C169.216 56.2916 169.316 56.4956 169.334 56.7146C169.351 56.9336 169.284 57.151 169.147 57.3222L163.766 63.3114C163.686 63.4022 163.588 63.475 163.478 63.525C163.369 63.5749 163.249 63.6009 163.128 63.6012V63.6012Z" fill="#6A77AA"/>
<path d="M150.919 63.6012C150.705 63.6009 150.498 63.5218 150.339 63.379C150.254 63.3037 150.185 63.2124 150.136 63.1103C150.087 63.0083 150.058 62.8976 150.052 62.7845C150.046 62.6713 150.062 62.5581 150.1 62.4513C150.137 62.3444 150.196 62.246 150.271 62.1618L155.662 56.1726C155.818 56.0179 156.027 55.9288 156.247 55.9236C156.466 55.9184 156.679 55.9974 156.843 56.1445C157.006 56.2916 157.106 56.4956 157.124 56.7146C157.141 56.9336 157.074 57.151 156.937 57.3222L151.556 63.3114C151.476 63.4022 151.378 63.475 151.269 63.525C151.159 63.5749 151.039 63.6009 150.919 63.6012V63.6012Z" fill="#6A77AA"/>
<g opacity="0.4">
<path opacity="0.4" d="M359.884 49.9806C359.726 48.7324 359.126 47.5823 358.191 46.74C357.257 45.8977 356.051 45.4193 354.793 45.3921C354.21 45.388 353.632 45.4996 353.093 45.7205C352.546 44.7837 351.767 44.0031 350.832 43.4533C349.896 42.9036 348.835 42.6033 347.751 42.581C346.517 42.5539 345.318 42.9886 344.389 43.8C343.46 44.6114 342.867 45.7409 342.728 46.9667C342.138 46.9962 341.561 47.1477 341.032 47.4117C340.504 47.6757 340.037 48.0463 339.659 48.5002C339.281 48.9541 339.002 49.4815 338.838 50.0489C338.675 50.6163 338.631 51.2114 338.709 51.7967C338.86 53.1066 339.481 54.3174 340.456 55.2053C341.431 56.0931 342.694 56.5981 344.012 56.6267H359.352C359.787 56.6358 360.219 56.551 360.619 56.3779C361.018 56.2049 361.375 55.9477 361.666 55.624C361.956 55.3002 362.174 54.9176 362.303 54.5021C362.432 54.0867 362.47 53.6482 362.415 53.2167C362.34 52.4939 362.063 51.8068 361.615 51.2344C361.167 50.662 360.567 50.2274 359.884 49.9806Z" fill="white"/>
<path opacity="0.4" d="M346.35 64.036C346.192 64.0384 346.04 63.9795 345.925 63.8718C345.8 63.7589 345.724 63.6009 345.715 63.4326C345.706 63.2642 345.764 63.0991 345.877 62.9734L349.741 58.723C349.796 58.6596 349.864 58.6077 349.94 58.5705C350.016 58.5333 350.098 58.5113 350.183 58.5059C350.267 58.5006 350.351 58.5118 350.431 58.5391C350.511 58.5664 350.585 58.6092 350.649 58.665C350.712 58.7209 350.764 58.7886 350.801 58.8645C350.838 58.9403 350.86 59.0227 350.866 59.107C350.871 59.1914 350.86 59.2759 350.832 59.3559C350.805 59.4358 350.762 59.5096 350.707 59.5731L346.843 63.8235C346.782 63.8936 346.706 63.9492 346.621 63.986C346.535 64.0228 346.443 64.0399 346.35 64.036V64.036Z" fill="white"/>
<path opacity="0.4" d="M350.861 64.036C350.783 64.0382 350.705 64.0248 350.632 63.9966C350.559 63.9684 350.493 63.926 350.436 63.8718C350.376 63.8133 350.329 63.7434 350.296 63.6663C350.264 63.5891 350.247 63.5063 350.247 63.4226C350.247 63.3389 350.264 63.256 350.296 63.1789C350.329 63.1017 350.376 63.0319 350.436 62.9734L354.3 58.723C354.356 58.6596 354.424 58.6077 354.5 58.5705C354.575 58.5333 354.658 58.5113 354.742 58.5059C354.827 58.5006 354.911 58.5118 354.991 58.5391C355.071 58.5664 355.145 58.6092 355.208 58.665C355.272 58.7209 355.323 58.7886 355.361 58.8645C355.398 58.9403 355.42 59.0227 355.425 59.107C355.431 59.1914 355.419 59.2759 355.392 59.3559C355.365 59.4358 355.322 59.5096 355.266 59.5731L351.402 63.8235C351.336 63.9005 351.253 63.9602 351.158 63.9973C351.064 64.0343 350.962 64.0476 350.861 64.036Z" fill="white"/>
<path opacity="0.4" d="M341.839 64.036C341.681 64.0374 341.529 63.9786 341.414 63.8718C341.288 63.7588 341.213 63.6009 341.204 63.4325C341.195 63.2642 341.253 63.0991 341.365 62.9734L345.229 58.723C345.342 58.5978 345.5 58.5224 345.669 58.5134C345.837 58.5043 346.002 58.5623 346.128 58.6747C346.191 58.7299 346.242 58.7972 346.279 58.8726C346.316 58.948 346.337 59.03 346.341 59.1137C346.346 59.1974 346.334 59.2812 346.305 59.3601C346.277 59.439 346.233 59.5114 346.176 59.5731L342.312 63.8235C342.253 63.8911 342.18 63.9451 342.099 63.9818C342.017 64.0185 341.928 64.037 341.839 64.036Z" fill="white"/>
</g>
<g opacity="0.7">
<path opacity="0.7" d="M293.201 54.656C293.28 55.2754 293.225 55.9047 293.039 56.5008C292.853 57.097 292.541 57.6461 292.124 58.1109C291.707 58.5756 291.195 58.945 290.622 59.194C290.049 59.443 289.43 59.5656 288.805 59.5537C287.468 59.5252 286.187 59.0134 285.197 58.1131C284.208 57.2128 283.579 55.9847 283.425 54.656C283.346 54.0371 283.401 53.4083 283.587 52.8126C283.772 52.2169 284.085 51.6683 284.502 51.2043C284.919 50.7403 285.432 50.3718 286.004 50.1239C286.577 49.8761 287.196 49.7547 287.82 49.7681C289.156 49.7963 290.436 50.3066 291.425 51.205C292.414 52.1034 293.045 53.3291 293.201 54.656V54.656Z" fill="white"/>
<path opacity="0.7" d="M289.269 64.5673C289.165 64.5678 289.065 64.5293 288.988 64.4596C288.911 64.3899 288.863 64.2939 288.853 64.1906L288.622 61.9591C288.611 61.8478 288.644 61.7367 288.715 61.6499C288.785 61.5631 288.887 61.5076 288.998 61.4954C289.11 61.4846 289.221 61.5181 289.308 61.5886C289.394 61.6591 289.45 61.761 289.462 61.8721L289.684 64.1036C289.689 64.1582 289.684 64.2133 289.668 64.2658C289.652 64.3182 289.625 64.3669 289.59 64.4091C289.555 64.4513 289.512 64.4862 289.464 64.5117C289.415 64.5372 289.362 64.5528 289.307 64.5576L289.269 64.5673Z" fill="white"/>
<path opacity="0.7" d="M287.579 47.8265C287.474 47.8246 287.374 47.7841 287.297 47.7128C287.22 47.6415 287.173 47.5444 287.163 47.4401L286.941 45.2183C286.93 45.107 286.964 44.9959 287.034 44.9091C287.105 44.8223 287.207 44.7668 287.318 44.7546C287.372 44.7493 287.427 44.7549 287.48 44.771C287.532 44.7871 287.581 44.8134 287.623 44.8484C287.665 44.8834 287.7 44.9265 287.726 44.975C287.751 45.0236 287.767 45.0767 287.772 45.1314L288.004 47.3629C288.009 47.4175 288.003 47.4725 287.987 47.525C287.971 47.5774 287.945 47.6262 287.91 47.6684C287.875 47.7106 287.832 47.7454 287.783 47.7709C287.735 47.7964 287.681 47.812 287.627 47.8169L287.579 47.8265Z" fill="white"/>
<path opacity="0.7" d="M281.106 55.0811H278.875C278.764 55.0786 278.658 55.0327 278.581 54.9533C278.503 54.8739 278.459 54.7672 278.459 54.6561C278.459 54.5459 278.503 54.4403 278.581 54.3624C278.659 54.2845 278.765 54.2407 278.875 54.2407H281.106C281.216 54.2407 281.322 54.2845 281.4 54.3624C281.478 54.4403 281.522 54.5459 281.522 54.6561C281.522 54.7672 281.478 54.8739 281.401 54.9533C281.323 55.0327 281.217 55.0786 281.106 55.0811V55.0811Z" fill="white"/>
<path opacity="0.7" d="M297.799 55.0811H295.597C295.485 55.0786 295.38 55.0327 295.302 54.9533C295.225 54.8738 295.181 54.7672 295.181 54.6561C295.181 54.5459 295.225 54.4403 295.303 54.3624C295.381 54.2845 295.486 54.2407 295.597 54.2407H297.828C297.938 54.2407 298.044 54.2845 298.122 54.3624C298.2 54.4403 298.243 54.5459 298.243 54.6561C298.243 54.7136 298.232 54.7705 298.209 54.8233C298.187 54.8762 298.154 54.924 298.112 54.9637C298.071 55.0034 298.021 55.0343 297.968 55.0545C297.914 55.0747 297.856 55.0837 297.799 55.0811V55.0811Z" fill="white"/>
<path opacity="0.7" d="M295.693 61.7853C295.59 61.7834 295.491 61.7458 295.412 61.6791L293.674 60.1045C293.599 60.0268 293.557 59.9238 293.556 59.8162C293.554 59.7086 293.594 59.6045 293.666 59.5249C293.738 59.4452 293.838 59.3959 293.945 59.387C294.053 59.378 294.159 59.41 294.244 59.4766L295.973 61.0512C296.052 61.1308 296.096 61.2384 296.096 61.3506C296.096 61.4628 296.052 61.5705 295.973 61.6501C295.9 61.7297 295.8 61.7782 295.693 61.7853Z" fill="white"/>
<path opacity="0.7" d="M282.661 49.9517C282.557 49.9488 282.457 49.9075 282.381 49.8358L280.652 48.2612C280.612 48.2244 280.579 48.18 280.555 48.1305C280.532 48.0809 280.518 48.0273 280.516 47.9726C280.513 47.9179 280.521 47.8631 280.54 47.8116C280.558 47.76 280.586 47.7125 280.623 47.6719C280.66 47.6313 280.704 47.5984 280.754 47.575C280.803 47.5515 280.857 47.5381 280.912 47.5354C280.967 47.5327 281.021 47.5408 281.073 47.5593C281.124 47.5777 281.172 47.6062 281.212 47.643L282.951 49.2175C283.013 49.2758 283.056 49.3513 283.074 49.4342C283.093 49.5172 283.086 49.6037 283.055 49.6827C283.024 49.7617 282.97 49.8296 282.899 49.8775C282.829 49.9255 282.746 49.9513 282.661 49.9517V49.9517Z" fill="white"/>
<path opacity="0.7" d="M282.285 61.7852C282.181 61.785 282.082 61.7472 282.004 61.679C281.966 61.6404 281.935 61.5945 281.914 61.5439C281.893 61.4933 281.882 61.4391 281.882 61.3844C281.882 61.3296 281.893 61.2754 281.914 61.2248C281.935 61.1742 281.966 61.1283 282.004 61.0897L283.424 59.5152C283.463 59.4763 283.509 59.4455 283.559 59.4244C283.61 59.4034 283.664 59.3926 283.719 59.3926C283.774 59.3926 283.828 59.4034 283.879 59.4244C283.929 59.4455 283.975 59.4763 284.014 59.5152C284.093 59.5948 284.137 59.7024 284.137 59.8146C284.137 59.9268 284.093 60.0344 284.014 60.1141L282.594 61.6886C282.507 61.7595 282.396 61.7941 282.285 61.7852Z" fill="white"/>
<path opacity="0.7" d="M292.93 49.9518C292.878 49.9524 292.826 49.9424 292.778 49.9225C292.73 49.9026 292.686 49.8731 292.65 49.8359C292.611 49.7973 292.58 49.7514 292.559 49.7008C292.538 49.6503 292.527 49.596 292.527 49.5413C292.527 49.4865 292.538 49.4323 292.559 49.3817C292.58 49.3311 292.611 49.2852 292.65 49.2466L294.07 47.672C294.148 47.6061 294.248 47.5706 294.35 47.5721C294.452 47.5735 294.55 47.6118 294.627 47.6799C294.703 47.748 294.752 47.8414 294.765 47.9429C294.778 48.0444 294.754 48.1471 294.698 48.2323L293.278 49.8069C293.236 49.8574 293.182 49.8969 293.122 49.9222C293.061 49.9474 292.995 49.9576 292.93 49.9518V49.9518Z" fill="white"/>
</g>
<path d="M110.404 53.41C110.251 52.1772 109.659 51.0407 108.737 50.2087C107.814 49.3767 106.623 48.9048 105.381 48.8794C104.807 48.8794 104.239 48.9944 103.71 49.2175C103.171 48.2913 102.403 47.5195 101.479 46.9763C100.555 46.4332 99.5069 46.1372 98.4355 46.1167C97.217 46.0782 96.029 46.5019 95.1099 47.3027C94.1908 48.1036 93.6085 49.2224 93.4799 50.4347C92.9002 50.4647 92.3328 50.6139 91.8134 50.8731C91.294 51.1322 90.8336 51.4957 90.4609 51.9409C90.0883 52.386 89.8115 52.9032 89.6479 53.4601C89.4842 54.0171 89.4371 54.6018 89.5096 55.1778C89.661 56.4687 90.2747 57.6613 91.2371 58.5349C92.1996 59.4086 93.4458 59.9043 94.7453 59.9305H109.863C110.294 59.9395 110.721 59.8556 111.116 59.6846C111.511 59.5135 111.864 59.2594 112.152 58.9395C112.44 58.6195 112.655 58.2413 112.784 57.8305C112.912 57.4197 112.951 56.9861 112.896 56.5591C112.81 55.8562 112.531 55.1907 112.092 54.6353C111.652 54.0799 111.068 53.6561 110.404 53.41Z" fill="white"/>
<path d="M95.3444 45.3052C94.5864 45.6792 93.9158 46.209 93.3765 46.8598C92.8372 47.5107 92.4412 48.268 92.2146 49.0823C91.1932 49.3185 90.2651 49.8531 89.5484 50.6182C88.6315 49.8682 88.0426 48.7907 87.9062 47.614C87.8395 47.0866 87.8872 46.551 88.0461 46.0436C88.205 45.5363 88.4713 45.0692 88.827 44.6741C89.1827 44.279 89.6194 43.9652 90.1072 43.754C90.5951 43.5429 91.1228 43.4394 91.6543 43.4505C92.3706 43.455 93.0762 43.6247 93.7162 43.9464C94.3563 44.268 94.9134 44.7331 95.3444 45.3052V45.3052Z" fill="white"/>
<path d="M91.4802 41.8179C91.3918 41.8184 91.3063 41.7861 91.2402 41.7272C91.1742 41.6684 91.1324 41.5871 91.1228 41.4991L90.9393 39.5671C90.9339 39.5207 90.938 39.4736 90.9513 39.4288C90.9646 39.3839 90.9868 39.3422 91.0165 39.3062C91.0463 39.2701 91.083 39.2404 91.1245 39.2188C91.166 39.1973 91.2114 39.1843 91.2581 39.1807C91.3045 39.1754 91.3516 39.1795 91.3964 39.1928C91.4413 39.206 91.4829 39.2282 91.519 39.258C91.5551 39.2877 91.5848 39.3245 91.6063 39.366C91.6279 39.4075 91.6409 39.4529 91.6444 39.4995L91.8376 41.4315C91.843 41.4785 91.839 41.5261 91.8258 41.5715C91.8127 41.6169 91.7906 41.6593 91.761 41.6961C91.7313 41.7329 91.6946 41.7635 91.6531 41.7861C91.6115 41.8087 91.5659 41.8228 91.5189 41.8276L91.4802 41.8179Z" fill="white"/>
<path d="M85.9742 47.9618H84.0421C83.9952 47.9618 83.9487 47.9526 83.9054 47.9346C83.862 47.9166 83.8226 47.8903 83.7894 47.8571C83.7562 47.8239 83.7299 47.7845 83.7119 47.7412C83.694 47.6978 83.6847 47.6513 83.6847 47.6044C83.6834 47.5571 83.6917 47.51 83.7092 47.466C83.7267 47.4221 83.753 47.3821 83.7864 47.3487C83.8199 47.3152 83.8598 47.289 83.9038 47.2715C83.9478 47.254 83.9948 47.2456 84.0421 47.247H85.9742C86.0689 47.247 86.1599 47.2846 86.2269 47.3516C86.2939 47.4187 86.3316 47.5096 86.3316 47.6044C86.3291 47.6984 86.2907 47.7879 86.2242 47.8544C86.1577 47.9209 86.0682 47.9594 85.9742 47.9618V47.9618Z" fill="white"/>
<path d="M87.2975 43.5859C87.2091 43.5869 87.1234 43.556 87.056 43.4989L85.578 42.1562C85.5075 42.0921 85.4654 42.0027 85.4609 41.9076C85.4563 41.8125 85.4898 41.7195 85.5538 41.649C85.6179 41.5786 85.7073 41.5364 85.8024 41.5319C85.8975 41.5274 85.9905 41.5608 86.061 41.6249L87.539 42.9676C87.605 43.0345 87.6421 43.1247 87.6421 43.2188C87.6421 43.3128 87.605 43.403 87.539 43.4699C87.5084 43.5043 87.4713 43.5322 87.4298 43.5521C87.3884 43.572 87.3434 43.5835 87.2975 43.5859V43.5859Z" fill="white"/>
<path d="M86.9403 53.6709C86.8957 53.6715 86.8514 53.6633 86.8099 53.6468C86.7685 53.6302 86.7307 53.6055 86.6988 53.5743C86.6328 53.5074 86.5957 53.4172 86.5957 53.3231C86.5957 53.2291 86.6328 53.1389 86.6988 53.072L87.9063 51.7292C87.976 51.6647 88.0674 51.6289 88.1623 51.6289C88.2572 51.6289 88.3487 51.6647 88.4183 51.7292C88.485 51.7978 88.5223 51.8896 88.5223 51.9852C88.5223 52.0808 88.485 52.1727 88.4183 52.2412L87.2108 53.5839C87.1744 53.6167 87.1315 53.6413 87.0848 53.6563C87.0382 53.6713 86.989 53.6763 86.9403 53.6709V53.6709Z" fill="white"/>
<path d="M96.0304 43.5857C95.9612 43.5878 95.893 43.5693 95.8344 43.5324C95.7759 43.4956 95.7296 43.4421 95.7016 43.3788C95.6736 43.3156 95.6651 43.2454 95.6772 43.1772C95.6893 43.1091 95.7215 43.0462 95.7696 42.9964L96.9771 41.6537C97.044 41.5876 97.1342 41.5505 97.2282 41.5505C97.3223 41.5505 97.4125 41.5876 97.4794 41.6537C97.5432 41.7217 97.5788 41.8115 97.5788 41.9048C97.5788 41.9981 97.5432 42.0879 97.4794 42.156L96.2719 43.4987C96.2041 43.5551 96.1186 43.5858 96.0304 43.5857V43.5857Z" fill="white"/>
<path d="M126.102 118.818H88.6598C88.1615 118.805 87.6844 118.614 87.3156 118.279C86.9467 117.943 86.7106 117.487 86.6505 116.992L86.2738 113.234C86.2461 113.004 86.2682 112.77 86.3385 112.549C86.4088 112.328 86.5257 112.124 86.6814 111.952C86.837 111.78 87.0277 111.644 87.2407 111.551C87.4537 111.459 87.684 111.414 87.916 111.418H125.358C125.854 111.431 126.329 111.621 126.696 111.955C127.063 112.288 127.298 112.742 127.358 113.234L127.735 116.992C127.764 117.222 127.743 117.456 127.674 117.678C127.605 117.9 127.489 118.104 127.334 118.277C127.179 118.45 126.989 118.588 126.777 118.681C126.564 118.774 126.334 118.821 126.102 118.818Z" fill="white"/>
<path d="M190.553 120.47H149.459C148.913 120.457 148.39 120.248 147.985 119.881C147.58 119.513 147.322 119.013 147.257 118.47L146.842 114.345C146.81 114.092 146.833 113.835 146.909 113.592C146.985 113.348 147.113 113.124 147.283 112.935C147.453 112.745 147.663 112.594 147.897 112.493C148.13 112.391 148.383 112.341 148.638 112.346H189.742C190.288 112.358 190.812 112.567 191.216 112.934C191.621 113.302 191.879 113.803 191.944 114.345L192.36 118.47C192.39 118.723 192.366 118.981 192.288 119.224C192.211 119.467 192.082 119.691 191.911 119.881C191.74 120.07 191.53 120.221 191.296 120.322C191.062 120.424 190.808 120.474 190.553 120.47V120.47Z" fill="#6A77AA"/>
<path d="M251.025 118.818H213.583C213.085 118.805 212.61 118.613 212.242 118.278C211.875 117.943 211.641 117.486 211.583 116.992L211.206 113.234C211.177 113.004 211.198 112.771 211.267 112.55C211.336 112.329 211.452 112.125 211.607 111.953C211.762 111.78 211.952 111.643 212.165 111.551C212.377 111.459 212.607 111.414 212.839 111.418H250.281C250.777 111.429 251.253 111.618 251.62 111.952C251.988 112.286 252.222 112.741 252.281 113.234L252.667 116.992C252.694 117.223 252.672 117.457 252.602 117.679C252.532 117.9 252.415 118.104 252.26 118.277C252.104 118.45 251.914 118.588 251.701 118.681C251.488 118.774 251.257 118.821 251.025 118.818Z" fill="white"/>
<path opacity="0.7" d="M313.487 118.818H276.044C275.547 118.805 275.071 118.613 274.704 118.278C274.337 117.943 274.103 117.486 274.045 116.992L273.668 113.234C273.639 113.004 273.66 112.771 273.729 112.55C273.798 112.329 273.914 112.125 274.069 111.953C274.224 111.78 274.414 111.643 274.626 111.551C274.839 111.459 275.069 111.414 275.301 111.418H312.743C313.239 111.429 313.715 111.618 314.082 111.952C314.45 112.286 314.684 112.741 314.742 113.234L315.129 116.992C315.156 117.223 315.134 117.457 315.064 117.679C314.994 117.9 314.877 118.104 314.722 118.277C314.566 118.45 314.375 118.588 314.162 118.681C313.95 118.774 313.719 118.821 313.487 118.818V118.818Z" fill="white"/>
<path opacity="0.4" d="M375.948 118.818H338.516C338.017 118.807 337.539 118.617 337.169 118.281C336.8 117.945 336.564 117.488 336.506 116.992L336.13 113.234C336.1 113.004 336.121 112.771 336.19 112.55C336.259 112.329 336.375 112.125 336.53 111.953C336.685 111.78 336.875 111.643 337.088 111.551C337.3 111.459 337.53 111.414 337.762 111.418H375.204C375.701 111.431 376.177 111.621 376.546 111.954C376.914 112.287 377.151 112.741 377.213 113.234L377.59 116.992C377.618 117.223 377.596 117.457 377.525 117.679C377.455 117.9 377.338 118.104 377.183 118.277C377.027 118.45 376.837 118.588 376.624 118.681C376.411 118.774 376.18 118.821 375.948 118.818V118.818Z" fill="white"/>
<path d="M355.488 84.9307C358.193 89.4226 360.637 93.9048 362.965 98.5513C365.323 103.237 367.423 108.048 369.254 112.964C369.485 113.592 369.708 114.229 369.911 114.896L370.229 115.862L370.394 116.345L370.509 116.731C370.509 116.896 370.596 117.06 370.635 117.224C371.04 119.307 370.853 121.463 370.094 123.445C369.024 126.247 367.507 128.856 365.602 131.173C362.266 135.32 358.442 139.05 354.213 142.282L350.571 138.515C353.577 134.685 356.345 130.675 358.859 126.507C359.428 125.534 359.944 124.531 360.405 123.503C360.821 122.624 361.144 121.705 361.371 120.76C361.555 119.967 361.468 119.34 361.371 119.475V119.407L361.197 119.001L360.869 118.18C360.647 117.639 360.415 117.089 360.164 116.538C358.232 112.143 355.952 107.728 353.614 103.352C351.276 98.9763 348.784 94.5713 346.408 90.292L355.488 84.9307Z" fill="#FFC895"/>
<path d="M351.953 136.824L346.456 141.654L354.107 146.484C354.107 146.484 356.358 142.833 356.261 139.452L351.953 136.824Z" fill="#FFC895"/>
<path d="M344.447 148.88L350.301 152.647L354.107 146.513L346.456 141.683L344.447 148.88Z" fill="#FFC895"/>
<path d="M323.31 53.497C323.204 54.0476 322.818 54.463 322.46 54.376C322.103 54.2891 321.89 53.7964 321.997 53.2458C322.103 52.6952 322.489 52.2798 322.847 52.3668C323.204 52.4537 323.417 52.9464 323.31 53.497Z" fill="#263238"/>
<path d="M322.876 54.4534C321.889 56.0162 320.69 57.4337 319.312 58.6652C319.636 59.0108 320.033 59.2808 320.474 59.456C320.915 59.6313 321.388 59.7076 321.862 59.6795L322.876 54.4534Z" fill="#FFBC7E"/>
<path d="M325.928 50.8212C326.011 50.8221 326.091 50.7909 326.151 50.7342C326.212 50.671 326.247 50.5861 326.247 50.4976C326.247 50.4091 326.212 50.3241 326.151 50.2609C325.8 49.8674 325.36 49.5651 324.867 49.3799C324.374 49.1948 323.843 49.1325 323.32 49.1983C323.278 49.2053 323.238 49.2206 323.202 49.2435C323.165 49.2663 323.134 49.2962 323.11 49.3314C323.086 49.3665 323.069 49.4062 323.06 49.4481C323.051 49.4899 323.051 49.5331 323.059 49.575C323.074 49.6608 323.121 49.7374 323.192 49.7881C323.262 49.8388 323.35 49.8595 323.436 49.8455V49.8455C323.85 49.8033 324.269 49.8601 324.657 50.0112C325.045 50.1624 325.391 50.4036 325.668 50.7149C325.701 50.7498 325.742 50.7773 325.787 50.7956C325.832 50.8139 325.88 50.8226 325.928 50.8212Z" fill="#263238"/>
<path d="M336.555 60.1721C335.589 65.2823 334.555 74.6621 338.129 78.0528C338.129 78.0528 336.729 83.2305 327.243 83.2305C316.8 83.2305 322.654 78.8449 322.654 78.8449C327.078 74.9809 328.189 70.9817 327.204 67.0211L336.555 60.1721Z" fill="#FFC895"/>
<path d="M339.298 79.5982C339.829 77.6662 340.409 75.4831 338.728 74.9711C336.883 74.4108 327.068 74.5847 323.832 76.2752C320.596 77.9657 321.9 81.6365 321.9 81.6365L339.298 79.5982Z" fill="#263238"/>
<path d="M373.185 314.897C372.904 314.998 372.605 315.042 372.306 315.025C372.007 315.008 371.715 314.932 371.447 314.8C371.344 314.703 371.275 314.576 371.247 314.438C371.22 314.3 371.235 314.156 371.292 314.027C371.323 313.92 371.377 313.822 371.45 313.738C371.524 313.655 371.615 313.589 371.717 313.544C372.683 313.09 374.828 313.979 374.915 314.018C374.943 314.031 374.968 314.052 374.985 314.078C375.002 314.105 375.011 314.136 375.011 314.167C375.011 314.199 375.002 314.23 374.985 314.257C374.968 314.283 374.943 314.304 374.915 314.317C374.36 314.571 373.781 314.766 373.185 314.897ZM372.046 313.776L371.852 313.844C371.793 313.87 371.74 313.908 371.696 313.957C371.653 314.005 371.621 314.062 371.601 314.124C371.514 314.423 371.601 314.52 371.659 314.549C372.036 314.868 373.437 314.549 374.412 314.182C373.664 313.868 372.855 313.73 372.046 313.776V313.776Z" fill="#407BFF"/>
<path d="M374.885 314.327H374.808C374.016 314.095 372.325 312.897 372.306 312.105C372.305 311.981 372.347 311.861 372.425 311.764C372.502 311.667 372.61 311.6 372.731 311.573C372.851 311.53 372.978 311.513 373.105 311.523C373.231 311.533 373.354 311.57 373.465 311.631C374.431 312.105 374.982 314.037 375.011 314.124C375.018 314.145 375.021 314.168 375.018 314.191C375.016 314.214 375.008 314.235 374.996 314.255C374.984 314.274 374.968 314.291 374.949 314.303C374.93 314.315 374.908 314.324 374.885 314.327V314.327ZM372.953 311.863H372.876C372.673 311.931 372.673 312.037 372.673 312.076C372.673 312.549 373.803 313.486 374.605 313.873C374.376 313.119 373.933 312.447 373.33 311.941C373.264 311.897 373.189 311.868 373.111 311.855C373.033 311.842 372.953 311.844 372.876 311.863H372.953Z" fill="#407BFF"/>
<path d="M321.678 318.316C320.78 318.316 319.92 318.191 319.63 317.785C319.555 317.681 319.514 317.556 319.514 317.427C319.514 317.299 319.555 317.174 319.63 317.07C319.685 316.973 319.76 316.888 319.85 316.822C319.94 316.755 320.043 316.708 320.152 316.684C321.321 316.365 323.755 317.756 323.861 317.814C323.89 317.832 323.912 317.858 323.926 317.889C323.94 317.92 323.944 317.954 323.939 317.988C323.934 318.02 323.919 318.051 323.897 318.075C323.874 318.099 323.845 318.116 323.813 318.123C323.108 318.248 322.394 318.313 321.678 318.316V318.316ZM320.567 316.964C320.462 316.948 320.354 316.948 320.248 316.964C320.181 316.976 320.118 317.003 320.063 317.043C320.007 317.083 319.962 317.136 319.93 317.196C319.814 317.398 319.852 317.495 319.93 317.553C320.258 318.007 322.026 318.017 323.32 317.833C322.476 317.372 321.552 317.077 320.596 316.964H320.567Z" fill="#407BFF"/>
<path d="M323.813 318.094H323.745C322.905 317.717 321.234 316.21 321.359 315.418C321.359 315.235 321.523 315.003 321.977 314.955C322.142 314.939 322.308 314.957 322.466 315.007C322.623 315.056 322.769 315.137 322.895 315.244C323.533 316.001 323.912 316.942 323.977 317.93C323.981 317.959 323.977 317.989 323.965 318.017C323.953 318.044 323.934 318.067 323.909 318.084C323.879 318.097 323.845 318.101 323.813 318.094V318.094ZM322.113 315.264H322.016C321.717 315.264 321.697 315.418 321.688 315.457C321.61 315.93 322.75 317.118 323.62 317.63C323.53 316.829 323.192 316.076 322.654 315.476C322.5 315.355 322.309 315.29 322.113 315.293V315.264Z" fill="#407BFF"/>
<path d="M331.493 317.959H324.509L323.813 301.788H330.797L331.493 317.959Z" fill="#FFC895"/>
<path d="M382.672 312.472L375.842 313.95L368.993 298.89L375.823 297.412L382.672 312.472Z" fill="#FFC895"/>
<path d="M375.195 313.264L382.855 311.612C382.991 311.582 383.133 311.599 383.258 311.66C383.382 311.722 383.482 311.824 383.541 311.95L386.197 317.746C386.261 317.887 386.293 318.04 386.289 318.195C386.286 318.35 386.247 318.501 386.177 318.639C386.106 318.777 386.005 318.896 385.881 318.989C385.758 319.082 385.615 319.146 385.463 319.176C382.778 319.707 381.445 319.833 378.073 320.557C375.996 321.011 371.311 322.151 368.413 322.77C365.515 323.388 364.549 320.635 365.68 320.132C370.683 317.843 372.78 315.824 374.132 313.95C374.389 313.597 374.768 313.353 375.195 313.264V313.264Z" fill="#263238"/>
<path d="M324.576 317.128H332.198C332.337 317.127 332.472 317.173 332.581 317.259C332.69 317.345 332.766 317.466 332.797 317.601L334.178 323.813C334.213 323.96 334.214 324.113 334.182 324.26C334.15 324.408 334.085 324.547 333.992 324.666C333.9 324.786 333.782 324.883 333.647 324.951C333.512 325.019 333.363 325.056 333.212 325.059C330.459 325.01 326.45 324.846 323.03 324.846C318.983 324.846 319.05 325.068 314.336 325.068C311.438 325.068 310.675 322.17 311.873 321.91C317.331 320.712 318.229 320.586 322.953 317.669C323.437 317.349 323.997 317.162 324.576 317.128V317.128Z" fill="#263238"/>
<path d="M317.389 92.7553C314.723 97.6915 311.921 102.415 308.917 107.091C305.903 111.847 302.623 116.43 299.093 120.818C298.649 121.378 298.127 121.928 297.663 122.479L296.939 123.319L296.079 124.199C295.509 124.778 294.987 125.242 294.427 125.754L292.804 127.164C290.64 128.99 288.457 130.69 286.255 132.361C281.84 135.694 277.329 138.824 272.663 141.789L269.369 137.703C273.175 133.839 277.097 129.975 280.961 126.179C282.893 124.247 284.825 122.392 286.641 120.508C287.54 119.542 288.448 118.576 289.201 117.736L289.723 117.108L290.293 116.364C290.669 115.852 291.056 115.398 291.423 114.838C294.427 110.646 297.219 106.096 300.02 101.517C302.822 96.9381 305.517 92.2626 308.154 87.6548L317.389 92.7553Z" fill="#FFC895"/>
<path d="M352.783 79.6369C359.352 81.1439 367.022 104.608 367.022 104.608L355.826 111.93C355.826 111.93 348.706 100.995 345.007 93.1996C341.123 85.0659 346.089 78.1107 352.783 79.6369Z" fill="#407BFF"/>
<path d="M352.783 79.6369C359.352 81.1439 367.022 104.608 367.022 104.608L355.826 111.93C355.826 111.93 348.706 100.995 345.007 93.1996C341.123 85.0659 346.089 78.1107 352.783 79.6369Z" fill="#2CC5BD"/>
<path d="M349.064 91.683C348.494 90.9391 346.939 92.649 345.77 94.8032C347.393 98.0103 349.441 101.565 351.257 104.598C352.387 98.7348 350.542 93.5667 349.064 91.683Z" fill="#1FA7A0"/>
<path d="M313.66 80.004C313.66 80.004 306.232 88.3985 313.245 140.35H350.59C350.851 134.622 347.248 106.656 352.783 79.6369C348.652 78.8414 344.473 78.3154 340.273 78.0623C334.988 77.753 329.688 77.753 324.402 78.0623C320.776 78.4278 317.185 79.077 313.66 80.004V80.004Z" fill="#407BFF"/>
<path d="M313.66 80.004C313.66 80.004 306.232 88.3985 313.245 140.35H350.59C350.851 134.622 347.248 106.656 352.783 79.6369C348.652 78.8414 344.473 78.3154 340.273 78.0623C334.988 77.753 329.688 77.753 324.402 78.0623C320.776 78.4278 317.185 79.077 313.66 80.004V80.004Z" fill="#2CC5BD"/>
<path opacity="0.5" d="M310.501 94.2913C310.117 100.5 310.117 106.726 310.501 112.935C315.254 109.882 319.62 101.758 319.195 96.3875L310.501 94.2913Z" fill="#1B9F98"/>
<path d="M171.929 81.0279L170.799 82.8633L161.892 76.6713L162.472 75.7439L171.929 81.0279Z" fill="#6A77AA"/>
<path d="M172.228 80.5547L170.499 83.3368L257.883 143.103L264.655 132.168L172.228 80.5547Z" fill="#263238"/>
<path opacity="0.2" d="M171.91 81.0762L170.828 82.815L259.139 141.065L263.39 134.206L171.91 81.0762Z" fill="white"/>
<path d="M171.542 81.6558L171.185 82.2354L260.559 138.775L261.97 136.486L171.542 81.6558Z" fill="#263238"/>
<path d="M265.988 153.111C265.037 153.111 264.103 152.847 263.293 152.348L263.921 151.382C264.411 151.678 264.958 151.866 265.526 151.935C266.094 152.003 266.67 151.949 267.215 151.778C268.409 151.4 269.429 150.609 270.092 149.547C270.754 148.484 271.015 147.22 270.828 145.982C270.738 145.418 270.529 144.879 270.214 144.403C269.899 143.927 269.486 143.523 269.002 143.219L260.956 138.225L261.583 137.21L269.63 142.205C270.256 142.596 270.792 143.117 271.202 143.731C271.612 144.346 271.886 145.041 272.007 145.769C272.24 147.291 271.923 148.846 271.112 150.155C270.301 151.464 269.049 152.44 267.582 152.908C267.064 153.054 266.527 153.122 265.988 153.111Z" fill="#263238"/>
<path d="M323.9 84.6408C327.571 93.5377 305.353 115.756 305.353 115.756L293.857 107.062C293.857 107.062 301.808 95.4117 305.082 87.4132C309.12 77.56 321.099 77.8692 323.9 84.6408Z" fill="#407BFF"/>
<path d="M323.9 84.6408C327.571 93.5377 305.353 115.756 305.353 115.756L293.857 107.062C293.857 107.062 301.808 95.4117 305.082 87.4132C309.12 77.56 321.099 77.8692 323.9 84.6408Z" fill="#2CC5BD"/>
<path d="M297.528 103.835C299.953 106.202 305.343 111.341 307.816 112.809C307.992 112.918 308.12 113.088 308.175 113.287C308.231 113.486 308.209 113.698 308.116 113.882C307.294 115.418 305.43 117.668 304.194 117.852C302.735 118.074 291.471 110.636 291.268 109.11C291.143 108.076 293.519 105.439 295.055 103.864C295.215 103.699 295.406 103.567 295.617 103.475C295.828 103.384 296.056 103.336 296.286 103.333C296.516 103.331 296.744 103.374 296.957 103.46C297.17 103.546 297.365 103.674 297.528 103.835Z" fill="#263238"/>
<path d="M353.643 107.11C356.667 105.593 363.303 102.174 365.477 100.348C365.637 100.217 365.841 100.152 366.047 100.166C366.254 100.18 366.447 100.273 366.587 100.425C367.776 101.7 369.292 104.193 369.07 105.42C368.8 106.878 358.087 115.08 356.589 114.79C355.565 114.577 353.856 111.467 352.861 109.506C352.751 109.298 352.685 109.07 352.665 108.836C352.646 108.602 352.673 108.366 352.746 108.143C352.819 107.919 352.936 107.713 353.09 107.536C353.244 107.358 353.432 107.213 353.643 107.11Z" fill="#263238"/>
<path d="M271.649 136.09L264.617 138.293L267.805 145.228C267.805 145.228 273.919 144.417 275.127 139.432L271.649 136.09Z" fill="#FFC895"/>
<path d="M261.419 141.983L263.979 146.571L267.804 145.228L264.616 138.292L261.419 141.983Z" fill="#FFC895"/>
<path opacity="0.2" d="M323.813 301.788L324.17 310.125H331.164L330.807 301.788H323.813Z" fill="black"/>
<path opacity="0.2" d="M375.823 297.422L368.993 298.9L372.529 306.657L379.358 305.179L375.823 297.422Z" fill="black"/>
<path d="M341.964 55.8926C340.235 62.6546 339.559 66.6249 335.463 69.4166C329.28 73.6573 321.504 68.9239 321.195 61.8335C320.925 55.4482 323.803 45.5467 330.971 44.1364C332.553 43.812 334.192 43.8991 335.731 44.3893C337.27 44.8794 338.657 45.7563 339.76 46.9359C340.863 48.1155 341.645 49.5584 342.031 51.1266C342.417 52.6948 342.394 54.3358 341.964 55.8926V55.8926Z" fill="#FFC895"/>
<path d="M326.257 57.5059C325.706 56.4152 325.52 55.1757 325.729 53.9714C325.938 52.7672 326.53 51.6624 327.416 50.8212C325.272 49.7103 323.292 45.8946 325.359 43.6921C319.804 42.4073 322.876 36.6403 331.503 37.2006C340.129 37.7608 333.377 41.4027 333.377 41.4027C333.377 41.4027 351.943 42.842 345.239 49.604C348.185 51.3718 348.456 57.332 344.273 60.1817C337.511 64.8185 339.607 69.9963 334.459 69.0689C329.764 68.2188 325.707 62.9638 326.257 57.5059Z" fill="#263238"/>
<path d="M328.904 56.5012C328.774 57.2768 328.48 58.0158 328.042 58.6689C327.604 59.3219 327.032 59.8739 326.363 60.2879C324.634 61.2539 323.61 60.5198 323.581 58.723C323.581 57.1098 324.306 54.4919 326.006 53.893C327.706 53.2941 329.126 54.7044 328.904 56.5012Z" fill="#FFBA7B"/>
<path d="M326.508 140.35C326.508 140.35 334.43 193.712 338.777 213.698C343.549 235.588 369.022 305.768 369.022 305.768L381.512 303.063C381.512 303.063 362.444 237.375 359.729 215.688C356.773 192.157 350.6 140.34 350.6 140.34L326.508 140.35Z" fill="#263238"/>
<path d="M365.67 300.165C365.612 300.165 368.346 306.116 368.346 306.116L382.411 303.073L380.875 297.412L365.67 300.165Z" fill="#407BFF"/>
<path opacity="0.7" d="M365.67 300.165C365.612 300.165 368.346 306.116 368.346 306.116L382.411 303.073L380.875 297.412L365.67 300.165Z" fill="white"/>
<path opacity="0.3" d="M331.502 159.361C340.67 161.158 339.694 195.325 338.593 212.897C335.956 200.474 332.082 176.575 329.445 159.612C330.081 159.293 330.808 159.204 331.502 159.361Z" fill="black"/>
<path d="M313.245 140.35C313.245 140.35 312.279 192.514 313.052 213.843C313.834 235.994 321.572 308.511 321.572 308.511H333.405C333.405 308.511 333.84 237.288 334.371 215.534C334.941 191.828 337.81 140.35 337.81 140.35H313.245Z" fill="#263238"/>
<path d="M319.292 302.358L319.968 308.714H334.352L334.738 302.918L319.292 302.358Z" fill="#407BFF"/>
<path opacity="0.7" d="M319.292 302.358L319.968 308.714H334.352L334.738 302.918L319.292 302.358Z" fill="white"/>
</svg>
