<svg width="12" height="15" viewBox="0 0 12 15" fill="none" xmlns="http://www.w3.org/2000/svg">
<path d="M11.3265 15C11.064 15 10.8511 14.787 10.8511 14.5246V0.475386C10.8511 0.212656 11.064 0 11.3265 0C11.5889 0 11.8018 0.212656 11.8018 0.475386V14.5246C11.8018 14.787 11.5889 15 11.3265 15Z" fill="#3F4354"/>
<path d="M11.3265 0.950771H4.31962C4.05689 0.950771 3.84424 0.738115 3.84424 0.475386C3.84424 0.212656 4.05689 0 4.31962 0H11.3265C11.5889 0 11.8019 0.212656 11.8019 0.475386C11.8019 0.738115 11.5889 0.950771 11.3265 0.950771Z" fill="#3F4354"/>
<path d="M11.3265 15.0001H4.31962C4.05689 15.0001 3.84424 14.7871 3.84424 14.5247C3.84424 14.2623 4.05689 14.0493 4.31962 14.0493H11.3265C11.5889 14.0493 11.8019 14.2623 11.8019 14.5247C11.8019 14.7871 11.5889 15.0001 11.3265 15.0001Z" fill="#3F4354"/>
<path d="M6.65374 7.97377C6.53204 7.97377 6.41034 7.9275 6.31748 7.83465L3.34632 4.86348C3.1606 4.67808 3.1606 4.37701 3.34632 4.19129C3.53204 4.00557 3.8328 4.00557 4.01852 4.19129L6.98968 7.16245C7.17539 7.34817 7.17539 7.64893 6.98968 7.83465C6.89713 7.92719 6.77543 7.97377 6.65374 7.97377Z" fill="#3F4354"/>
<path d="M3.68258 11.0043C3.56088 11.0043 3.43918 10.958 3.34632 10.8652C3.1606 10.6794 3.1606 10.3787 3.34632 10.193L6.31748 7.22181C6.5032 7.03609 6.80396 7.03609 6.98968 7.22181C7.17539 7.40752 7.17539 7.70829 6.98968 7.894L4.01852 10.8652C3.92597 10.958 3.80427 11.0043 3.68258 11.0043Z" fill="#3F4354"/>
<path d="M6.4963 8.00351H0.475386C0.212656 8.00351 0 7.79053 0 7.52812C0 7.26571 0.212656 7.05273 0.475386 7.05273H6.49662C6.75935 7.05273 6.97201 7.26571 6.97201 7.52812C6.97201 7.79053 6.75903 8.00351 6.4963 8.00351Z" fill="#3F4354"/>
</svg>
