<svg width="15" height="19" viewBox="0 0 15 19" fill="none" xmlns="http://www.w3.org/2000/svg">
<path d="M13.5919 18.7778C13.2771 18.7778 13.0215 18.5223 13.0215 18.2074V1.34829C13.0215 1.03302 13.2771 0.777832 13.5919 0.777832C13.9068 0.777832 14.1624 1.03302 14.1624 1.34829V18.2074C14.1624 18.5223 13.9068 18.7778 13.5919 18.7778Z" fill="white"/>
<path d="M13.592 1.91876H5.18374C4.86847 1.91876 4.61328 1.66357 4.61328 1.34829C4.61328 1.03302 4.86847 0.777832 5.18374 0.777832H13.592C13.9069 0.777832 14.1624 1.03302 14.1624 1.34829C14.1624 1.66357 13.9069 1.91876 13.592 1.91876Z" fill="white"/>
<path d="M13.592 18.7779H5.18374C4.86847 18.7779 4.61328 18.5223 4.61328 18.2074C4.61328 17.8925 4.86847 17.637 5.18374 17.637H13.592C13.9069 17.637 14.1624 17.8925 14.1624 18.2074C14.1624 18.5223 13.9069 18.7779 13.592 18.7779Z" fill="white"/>
<path d="M7.98468 10.3464C7.83864 10.3464 7.6926 10.2909 7.58117 10.1794L4.01578 6.61404C3.79292 6.39156 3.79292 6.03027 4.01578 5.8074C4.23864 5.58454 4.59955 5.58454 4.82241 5.8074L8.38781 9.3728C8.61067 9.59566 8.61067 9.95657 8.38781 10.1794C8.27676 10.2905 8.13072 10.3464 7.98468 10.3464Z" fill="white"/>
<path d="M4.41929 13.9829C4.27325 13.9829 4.12721 13.9273 4.01578 13.8159C3.79292 13.593 3.79292 13.2321 4.01578 13.0093L7.58117 9.44388C7.80403 9.22102 8.16495 9.22102 8.38781 9.44388C8.61067 9.66674 8.61067 10.0277 8.38781 10.2505L4.82241 13.8159C4.71136 13.9273 4.56532 13.9829 4.41929 13.9829Z" fill="white"/>
<path d="M7.79556 10.3821H0.570463C0.255187 10.3821 0 10.1266 0 9.81167C0 9.49678 0.255187 9.24121 0.570463 9.24121H7.79594C8.11122 9.24121 8.36641 9.49678 8.36641 9.81167C8.36641 10.1266 8.11084 10.3821 7.79556 10.3821Z" fill="white"/>
</svg>
