<svg width="155" height="34" viewBox="0 0 155 34" fill="none" xmlns="http://www.w3.org/2000/svg">
<path d="M22.7816 0.495117L33.0972 33.5048H21.1311L11.2282 0.495117H22.7816Z" fill="url(#paint0_linear)"/>
<path d="M10.8155 0.495117L0.5 33.5048H12.466L22.3689 0.495117H10.8155Z" fill="#FF006C"/>
<path d="M31.4464 0.495117L21.1309 33.5048H33.0969L42.9998 0.495117H31.4464Z" fill="#FF006C"/>
<path d="M57.79 13.5H60.46V24H58.39L54.685 18.72V24H52V13.5H54.085L57.79 18.78V13.5Z" fill="#FF006C"/>
<path d="M70.5271 24L70.0771 22.485H66.5821L66.1321 24H63.2221L66.6871 13.5H69.9571L73.4221 24H70.5271ZM67.2721 20.175H69.3871L68.3221 16.605L67.2721 20.175Z" fill="#FF006C"/>
<path d="M82.6385 13.5V16.095H80.0435V24H77.3585V16.095H74.7635V13.5H82.6385Z" fill="#FF006C"/>
<path d="M88.686 21.4049H92.301V23.9999H86.001V13.4999H88.686V21.4049Z" fill="#2C2E42"/>
<path d="M103.754 22.6499C102.694 23.6999 101.394 24.2249 99.8539 24.2249C98.3139 24.2249 97.0089 23.6999 95.9389 22.6499C94.8789 21.5899 94.3489 20.2899 94.3489 18.7499C94.3489 17.2099 94.8789 15.9149 95.9389 14.8649C97.0089 13.8049 98.3139 13.2749 99.8539 13.2749C101.394 13.2749 102.694 13.8049 103.754 14.8649C104.824 15.9149 105.359 17.2099 105.359 18.7499C105.359 20.2899 104.824 21.5899 103.754 22.6499ZM97.8289 20.8049C98.3689 21.3349 99.0439 21.5999 99.8539 21.5999C100.664 21.5999 101.339 21.3349 101.879 20.8049C102.419 20.2649 102.689 19.5799 102.689 18.7499C102.689 17.9199 102.419 17.2399 101.879 16.7099C101.339 16.1699 100.664 15.8999 99.8539 15.8999C99.0439 15.8999 98.3689 16.1699 97.8289 16.7099C97.2889 17.2399 97.0189 17.9199 97.0189 18.7499C97.0189 19.5799 97.2889 20.2649 97.8289 20.8049Z" fill="#2C2E42"/>
<path d="M119.029 17.9849V19.0499C119.029 20.5899 118.544 21.8399 117.574 22.7999C116.614 23.7499 115.364 24.2249 113.824 24.2249C112.184 24.2249 110.834 23.6999 109.774 22.6499C108.724 21.5999 108.199 20.3049 108.199 18.7649C108.199 17.2249 108.724 15.9249 109.774 14.8649C110.824 13.8049 112.124 13.2749 113.674 13.2749C114.654 13.2749 115.549 13.4949 116.359 13.9349C117.179 14.3749 117.819 14.9599 118.279 15.6899L115.999 16.9949C115.789 16.6649 115.479 16.3999 115.069 16.1999C114.669 15.9999 114.214 15.8999 113.704 15.8999C112.874 15.8999 112.194 16.1699 111.664 16.7099C111.134 17.2499 110.869 17.9399 110.869 18.7799C110.869 19.5899 111.129 20.2749 111.649 20.8349C112.179 21.3949 112.919 21.6749 113.869 21.6749C115.089 21.6749 115.894 21.2149 116.284 20.2949H113.734V17.9849H119.029Z" fill="#2C2E42"/>
<path d="M132.704 17.9849V19.0499C132.704 20.5899 132.219 21.8399 131.249 22.7999C130.289 23.7499 129.039 24.2249 127.499 24.2249C125.859 24.2249 124.509 23.6999 123.449 22.6499C122.399 21.5999 121.874 20.3049 121.874 18.7649C121.874 17.2249 122.399 15.9249 123.449 14.8649C124.499 13.8049 125.799 13.2749 127.349 13.2749C128.329 13.2749 129.224 13.4949 130.034 13.9349C130.854 14.3749 131.494 14.9599 131.954 15.6899L129.674 16.9949C129.464 16.6649 129.154 16.3999 128.744 16.1999C128.344 15.9999 127.889 15.8999 127.379 15.8999C126.549 15.8999 125.869 16.1699 125.339 16.7099C124.809 17.2499 124.544 17.9399 124.544 18.7799C124.544 19.5899 124.804 20.2749 125.324 20.8349C125.854 21.3949 126.594 21.6749 127.544 21.6749C128.764 21.6749 129.569 21.2149 129.959 20.2949H127.409V17.9849H132.704Z" fill="#2C2E42"/>
<path d="M138.639 21.4799H142.704V23.9999H135.954V13.4999H142.629V16.0049H138.639V17.4599H142.254V19.9349H138.639V21.4799Z" fill="#2C2E42"/>
<path d="M151.456 23.9999L149.626 20.6099H148.666V23.9999H145.981V13.4999H150.181C151.251 13.4999 152.146 13.8449 152.866 14.5349C153.596 15.2149 153.961 16.0799 153.961 17.1299C153.961 17.7599 153.801 18.3399 153.481 18.8699C153.161 19.3899 152.726 19.8049 152.176 20.1149L154.336 23.9999H151.456ZM148.666 15.9749V18.3299H150.151C150.481 18.3399 150.751 18.2349 150.961 18.0149C151.171 17.7949 151.276 17.5099 151.276 17.1599C151.276 16.8099 151.171 16.5249 150.961 16.3049C150.751 16.0849 150.481 15.9749 150.151 15.9749H148.666Z" fill="#2C2E42"/>
<defs>
<linearGradient id="paint0_linear" x1="16.1797" y1="10.398" x2="28.971" y2="31.0291" gradientUnits="userSpaceOnUse">
<stop stop-color="#A897B4"/>
<stop offset="1" stop-color="white"/>
</linearGradient>
</defs>
</svg>
