<svg width="20" height="20" viewBox="0 0 20 20" fill="none" xmlns="http://www.w3.org/2000/svg">
<path d="M10 1C8.21997 1 6.47991 1.52784 4.99987 2.51677C3.51983 3.50571 2.36628 4.91131 1.68509 6.55585C1.0039 8.20038 0.82567 10.01 1.17294 11.7558C1.5202 13.5016 2.37737 15.1053 3.63604 16.364C4.89471 17.6226 6.49836 18.4798 8.24419 18.8271C9.99002 19.1743 11.7996 18.9961 13.4442 18.3149C15.0887 17.6337 16.4943 16.4802 17.4832 15.0001C18.4722 13.5201 19 11.78 19 10C19 7.61305 18.0518 5.32387 16.364 3.63604C14.6761 1.94821 12.3869 1 10 1V1ZM10 18.0909C8.39977 18.0909 6.83548 17.6164 5.50493 16.7273C4.17439 15.8383 3.13736 14.5747 2.52498 13.0963C1.9126 11.6178 1.75237 9.99102 2.06456 8.42154C2.37675 6.85206 3.14733 5.4104 4.27887 4.27886C5.4104 3.14733 6.85206 2.37674 8.42154 2.06456C9.99103 1.75237 11.6178 1.91259 13.0963 2.52497C14.5747 3.13736 15.8383 4.17439 16.7273 5.50493C17.6164 6.83547 18.0909 8.39977 18.0909 10C18.0849 12.144 17.2306 14.1985 15.7145 15.7145C14.1985 17.2305 12.144 18.0849 10 18.0909V18.0909Z" fill="#3F4A72" fill-opacity="0.4" stroke="#3F4A72" stroke-opacity="0.4" stroke-width="0.4"/>
<path d="M12.3406 11.9774L9.93155 10.1593V5.5229C9.93155 5.40235 9.88366 5.28674 9.79842 5.20149C9.71317 5.11625 9.59756 5.06836 9.47701 5.06836C9.35645 5.06836 9.24084 5.11625 9.15559 5.20149C9.07035 5.28674 9.02246 5.40235 9.02246 5.5229V10.3865C9.02412 10.4568 9.04128 10.5258 9.07271 10.5887C9.10414 10.6515 9.14907 10.7067 9.20428 10.7502L11.7952 12.7047C11.8321 12.7376 11.8753 12.7626 11.9222 12.7783C11.9691 12.7939 12.0187 12.7998 12.0679 12.7956C12.1382 12.794 12.2072 12.7768 12.2701 12.7454C12.3329 12.7139 12.3881 12.669 12.4316 12.6138C12.4936 12.514 12.5185 12.3955 12.5019 12.2791C12.4853 12.1627 12.4282 12.0559 12.3406 11.9774V11.9774Z" fill="#3F4A72" fill-opacity="0.4" stroke="#3F4A72" stroke-opacity="0.4" stroke-width="0.4"/>
</svg>
