<svg width="24" height="20" viewBox="0 0 24 20" fill="none" xmlns="http://www.w3.org/2000/svg">
<path fill-rule="evenodd" clip-rule="evenodd" d="M21.5456 4.97901C21.5551 5.19641 21.5603 5.41558 21.5603 5.63475C21.5603 12.3079 16.6084 20 7.54842 20C4.76742 20 2.17861 19.1666 0 17.7332C0.38522 17.78 0.777335 17.8039 1.17462 17.8039C3.48249 17.8039 5.60508 16.9962 7.29075 15.6423C5.13627 15.6016 3.31703 14.1417 2.69051 12.1347C2.99041 12.193 3.2998 12.2257 3.61607 12.2257C4.06507 12.2257 4.50113 12.1656 4.91393 12.0498C2.66121 11.5868 0.964343 9.5462 0.964343 7.09823C0.964343 7.07702 0.964343 7.05492 0.965205 7.0346C1.62878 7.41196 2.38802 7.63996 3.19466 7.66559C1.87439 6.76152 1.00485 5.21497 1.00485 3.46339C1.00485 2.53723 1.24701 1.66939 1.67101 0.923512C4.09867 3.9795 7.72854 5.98913 11.8203 6.20123C11.7359 5.83094 11.6936 5.44651 11.6936 5.04971C11.6936 2.2615 13.8981 0 16.617 0C18.0338 0 19.3119 0.613318 20.2116 1.59427C21.3345 1.36803 22.3859 0.949141 23.3399 0.368521C22.9693 1.54832 22.1911 2.53723 21.1716 3.16292C22.1687 3.04096 23.1201 2.77054 24 2.36843C23.3433 3.37944 22.5082 4.26937 21.5456 4.97901Z" fill="white"/>
</svg>
